<svg width="71" height="24" viewBox="0 0 71 24" fill="none" xmlns="http://www.w3.org/2000/svg">
<mask id="mask0" mask-type="alpha" maskUnits="userSpaceOnUse" x="0" y="0" width="24" height="24">
<path fill-rule="evenodd" clip-rule="evenodd" d="M8.2367 9.04158e-05L15.6631 0C18.5572 0 19.6066 0.301509 20.6647 0.867679C21.7227 1.43385 22.553 2.26468 23.1189 3.32333L23.1525 3.38685C23.6966 4.42472 23.986 5.48996 23.986 8.32781V15.6722L23.9857 15.8437C23.9739 18.61 23.6734 19.6392 23.1189 20.6767C22.553 21.7353 21.7227 22.5661 20.6647 23.1323L20.6012 23.166C19.5639 23.7104 18.4993 24 15.6631 24H8.32297L8.15152 23.9996C5.38691 23.9878 4.35827 23.6872 3.3214 23.1323C2.26336 22.5661 1.43302 21.7353 0.867175 20.6767L0.833542 20.6131C0.294953 19.5859 0.00593266 18.5318 9.03632e-05 15.7585L0 8.32781C0 5.43205 0.301333 4.38197 0.867175 3.32333C1.43302 2.26468 2.26336 1.43385 3.3214 0.867679L3.38488 0.834027C4.41156 0.295125 5.46505 0.00593611 8.2367 9.04158e-05Z" fill="white"/>
</mask>
<g mask="url(#mask0)">
<rect width="23.986" height="24" fill="#91D7E0"/>
<path fill-rule="evenodd" clip-rule="evenodd" d="M1.16316 21.5879C4.34181 21.5879 6.91861 19.0636 6.91861 15.9497C6.91861 12.8358 4.34181 10.3115 1.16316 10.3115C-2.01548 10.3115 -4.59229 12.8358 -4.59229 15.9497C-4.59229 19.0636 -2.01548 21.5879 1.16316 21.5879Z" fill="#F05984"/>
<path fill-rule="evenodd" clip-rule="evenodd" d="M22.859 21.5879C26.0376 21.5879 28.6144 19.0636 28.6144 15.9497C28.6144 12.8358 26.0376 10.3115 22.859 10.3115C19.6803 10.3115 17.1035 12.8358 17.1035 15.9497C17.1035 19.0636 19.6803 21.5879 22.859 21.5879Z" fill="#F05984"/>
<path d="M4.49606 10.2028C5.31152 10.2028 5.97259 9.54137 5.97259 8.72543C5.97259 7.9095 5.31152 7.24805 4.49606 7.24805C3.6806 7.24805 3.01953 7.9095 3.01953 8.72543C3.01953 9.54137 3.6806 10.2028 4.49606 10.2028Z" fill="black"/>
<path d="M19.4423 10.2028C20.2578 10.2028 20.9189 9.54137 20.9189 8.72543C20.9189 7.9095 20.2578 7.24805 19.4423 7.24805C18.6269 7.24805 17.9658 7.9095 17.9658 8.72543C17.9658 9.54137 18.6269 10.2028 19.4423 10.2028Z" fill="black"/>
<mask id="mask1" mask-type="alpha" maskUnits="userSpaceOnUse" x="6" y="10" width="12" height="6">
<path d="M11.9655 15.6781C9.00661 15.6781 6.00104 14.0747 6.42909 11.5764C6.85715 9.07816 9.81376 10.3134 11.9655 10.3269L11.9773 10.3269L11.9773 10.326L12.0232 10.3268V10.3268L12.0689 10.326L12.0688 10.3269L12.0807 10.3269C14.2109 10.3136 17.13 9.10275 17.6035 11.5026L17.6171 11.5764C18.0452 14.0747 15.0396 15.6781 12.0807 15.6781L11.9773 15.6778V15.6778H12.0689L11.9655 15.6781V15.6781Z" fill="white"/>
</mask>
<g mask="url(#mask1)">
<rect x="6.08691" y="9.04492" width="12.2341" height="6.63317" fill="black"/>
<path fill-rule="evenodd" clip-rule="evenodd" d="M10.7576 18.8139C12.1389 18.8139 13.2587 17.7069 13.2587 16.3415C13.2587 14.9761 12.1389 13.8691 10.7576 13.8691C9.37635 13.8691 8.25659 14.9761 8.25659 16.3415C8.25659 17.7069 9.37635 18.8139 10.7576 18.8139Z" fill="#F05984"/>
<rect x="7.89502" y="9.04492" width="2.22986" height="2.53266" rx="1.11493" fill="white"/>
<rect x="10.426" y="9.04492" width="2.22986" height="2.53266" rx="1.11493" fill="white"/>
<path fill-rule="evenodd" clip-rule="evenodd" d="M13.2887 18.8139C14.6699 18.8139 15.7897 17.7069 15.7897 16.3415C15.7897 14.9761 14.6699 13.8691 13.2887 13.8691C11.9074 13.8691 10.7876 14.9761 10.7876 16.3415C10.7876 17.7069 11.9074 18.8139 13.2887 18.8139Z" fill="#F05984"/>
</g>
</g>
<path d="M32.1487 10.9494V5.67305H29.7573V18.1585H32.0874V17.1768H32.1181C32.8999 18.2045 34.0649 18.3118 34.6014 18.3118C36.9775 18.3118 38.5564 16.1798 38.5564 14.0478C38.5564 11.9771 37.0695 9.81441 34.6627 9.81441C34.1722 9.81441 32.9918 9.90644 32.1794 10.9494H32.1487ZM32.0874 14.0478C32.0874 12.8207 32.9918 11.9771 34.0956 11.9771C35.2299 11.9771 36.1344 12.8207 36.1344 14.0478C36.1344 15.2902 35.2299 16.1491 34.1109 16.1491C32.9918 16.1491 32.0874 15.2902 32.0874 14.0478Z" fill="black"/>
<path d="M42.6731 5.65771H40.2664V18.1585H42.6731V5.65771Z" fill="black"/>
<path d="M47.1919 14.5386V9.96779H44.8005V15.1061C44.8005 16.7934 45.7663 18.3272 47.8051 18.3272C48.035 18.3272 49.2614 18.3425 50.0892 17.1461H50.1045V18.1585H52.4652V9.96779H50.0738V14.5386C50.0738 15.3822 49.614 16.1031 48.6022 16.1031C47.6058 16.1031 47.1919 15.4436 47.1919 14.5386Z" fill="black"/>
<path d="M57.5956 18.3425C59.8337 18.3425 60.9221 17.0234 60.9221 15.6276C60.9221 13.741 59.4351 13.1888 57.8562 13.0048C56.9824 12.9128 56.5838 12.7747 56.5838 12.2839C56.5838 11.9158 56.9364 11.609 57.5189 11.609C58.2087 11.609 58.592 12.0231 58.7146 12.5753L60.7841 12.0538C60.6155 11.1335 59.6804 9.76839 57.5496 9.76839C55.8174 9.76839 54.3151 10.9034 54.3151 12.3912C54.3151 14.2472 55.7254 14.7687 57.2737 14.9834C58.1321 15.1061 58.5767 15.2595 58.5767 15.781C58.5767 16.0878 58.3007 16.4866 57.5956 16.4866C56.7984 16.4866 56.3386 15.9651 56.2312 15.3669L54.1464 15.9191C54.2844 16.7934 55.1888 18.3425 57.5956 18.3425Z" fill="black"/>
<path d="M67.9803 13.6183V18.1585H70.3564V13.0661C70.3564 11.3789 69.4213 9.81441 67.3518 9.81441C66.9226 9.81441 65.7882 9.95245 65.0984 10.9341H65.083V5.67305H62.6916V18.1585H65.083V13.5876C65.083 12.8054 65.5276 12.0231 66.5547 12.0231C67.5357 12.0231 67.9803 12.7287 67.9803 13.6183Z" fill="black"/>
</svg>
