<svg width="399" height="90" viewBox="0 0 399 90" fill="none" xmlns="http://www.w3.org/2000/svg" class="w-60 h-14">
    <path d="M33.5609 52.925L57.124 27.2437H88.5414L58.552 70.7592H27.8486L33.5609 52.925Z" fill="#BDFF01"
        data-darkreader-inline-fill="" style="--darkreader-inline-fill:#7b9900;"></path>
    <path d="M33.5609 52.925L57.124 27.2437H88.5414L58.552 70.7592H27.8486L33.5609 52.925Z" fill="white"
        data-darkreader-inline-fill="" style="--darkreader-inline-fill:#181a1b;"></path>
    <path d="M33.5609 52.925L57.124 27.2437H88.5414L58.552 70.7592H27.8486L33.5609 52.925Z" stroke="black"
        data-darkreader-inline-stroke="" style="--darkreader-inline-stroke:#e8e6e3;"></path>
    <path
        d="M11.3688 57.243L2.34218 58.7824C1.30326 58.9604 0.602766 59.9473 0.781397 60.9905C0.86491 61.5098 1.15697 61.9456 1.55368 62.2268C1.95232 62.5132 2.46107 62.6452 2.98168 62.5598L12.0091 61.0192C13.0472 60.8424 13.7494 59.8531 13.5733 58.8116C13.3976 57.7668 12.4105 57.0689 11.3688 57.243Z"
        fill="black" data-darkreader-inline-fill="" style="--darkreader-inline-fill:#e8e6e3;"></path>
    <path
        d="M67.5979 13.1728C68.0204 12.9232 68.3476 12.5114 68.4792 11.9966L70.7546 3.0952C71.0149 2.07274 70.398 1.02772 69.3802 0.76576C68.359 0.504033 67.318 1.12093 67.0584 2.14469L64.7831 11.0461C64.5202 12.0701 65.1382 13.111 66.1575 13.3756C66.6656 13.5052 67.1807 13.4194 67.5979 13.1728Z"
        fill="black" data-darkreader-inline-fill="" style="--darkreader-inline-fill:#e8e6e3;"></path>
    <path
        d="M36.0157 16.7592C36.5041 17.6943 37.6573 18.0557 38.589 17.5642C39.5239 17.0735 39.8826 15.9168 39.3954 14.9799L35.1416 6.84287C34.6499 5.90697 33.4997 5.54494 32.5621 6.03772C31.6278 6.53134 31.2717 7.68594 31.7619 8.62216L36.0157 16.7592Z"
        fill="black" data-darkreader-inline-fill="" style="--darkreader-inline-fill:#e8e6e3;"></path>
    <path
        d="M10.2051 32.9383L18.8216 36.0512C19.8109 36.4098 20.9022 35.8953 21.2646 34.8987C21.6224 33.9031 21.1081 32.808 20.1128 32.4488L11.4996 29.3333C10.5075 28.9728 9.41587 29.4903 9.05225 30.4837C8.69598 31.4794 9.21275 32.5794 10.2051 32.9383Z"
        fill="black" data-darkreader-inline-fill="" style="--darkreader-inline-fill:#e8e6e3;"></path>
    <path
        d="M89.9394 24.9907C89.6455 24.609 89.1871 24.3809 88.7064 24.3809H57.7489C57.4688 24.3809 57.2014 24.4587 56.9637 24.6058L56.9096 24.56L30.8224 52.2712L30.5444 52.5857L30.5794 52.622C30.521 52.7243 30.4775 52.8298 30.4489 52.9396L25.6094 71.0858C25.4874 71.5517 25.5871 72.057 25.8768 72.4398C26.1707 72.8214 26.6312 73.0496 27.1097 73.0496H58.0694C58.5649 73.0496 59.0041 72.8395 59.4604 72.3811L84.9216 45.2808C85.0044 45.1923 85.2887 44.784 85.3673 44.4908L90.2068 26.3436C90.3309 25.8787 90.2312 25.3755 89.9394 24.9907ZM56.8757 69.928H29.1332L33.1408 54.9055H60.8833L56.8757 69.928ZM62.4855 51.784H35.5558L58.4184 27.5024H85.345L62.4855 51.784Z"
        fill="black" data-darkreader-inline-fill="" style="--darkreader-inline-fill:#000000;"></path>
    <path
        d="M143.171 44.6229H137.667C137.594 44.0578 137.443 43.5477 137.216 43.0927C136.988 42.6377 136.687 42.2487 136.313 41.9258C135.939 41.6029 135.495 41.357 134.981 41.1882C134.474 41.0121 133.913 40.924 133.297 40.924C132.203 40.924 131.26 41.1919 130.467 41.7276C129.682 42.2634 129.077 43.0376 128.651 44.0504C128.233 45.0632 128.023 46.2888 128.023 47.7273C128.023 49.2244 128.236 50.4794 128.662 51.4922C129.095 52.4976 129.7 53.2572 130.478 53.771C131.264 54.2773 132.192 54.5305 133.263 54.5305C133.865 54.5305 134.412 54.4535 134.904 54.2994C135.403 54.1452 135.839 53.9214 136.214 53.6278C136.595 53.3269 136.907 52.9637 137.15 52.538C137.399 52.105 137.571 51.617 137.667 51.0739L143.171 51.1069C143.076 52.105 142.786 53.0884 142.301 54.0572C141.824 55.0259 141.168 55.9103 140.331 56.7102C139.494 57.5028 138.474 58.134 137.271 58.6037C136.074 59.0734 134.702 59.3082 133.153 59.3082C131.113 59.3082 129.286 58.8606 127.671 57.9652C126.064 57.0625 124.794 55.7488 123.862 54.0241C122.93 52.2995 122.464 50.2005 122.464 47.7273C122.464 45.2467 122.938 43.1441 123.884 41.4194C124.831 39.6947 126.112 38.3847 127.726 37.4893C129.341 36.594 131.15 36.1463 133.153 36.1463C134.518 36.1463 135.781 36.3371 136.94 36.7188C138.1 37.093 139.12 37.6435 140.001 38.37C140.881 39.0893 141.597 39.9736 142.147 41.0231C142.698 42.0726 143.039 43.2725 143.171 44.6229ZM151.672 36.4545V59H146.289V36.4545H151.672ZM163.003 59.3192C161.234 59.3192 159.708 58.9706 158.423 58.2734C157.146 57.5689 156.163 56.5671 155.473 55.2681C154.791 53.9618 154.449 52.4096 154.449 50.6115C154.449 48.8648 154.794 47.3383 155.484 46.032C156.174 44.7183 157.146 43.6982 158.401 42.9716C159.656 42.2377 161.135 41.8707 162.838 41.8707C164.041 41.8707 165.142 42.0579 166.14 42.4322C167.139 42.8065 168.001 43.3606 168.727 44.0945C169.454 44.8284 170.019 45.7347 170.423 46.8136C170.826 47.8851 171.028 49.1143 171.028 50.5014V51.8445H156.332V48.718H166.019C166.012 48.1456 165.876 47.6355 165.612 47.1879C165.348 46.7402 164.985 46.3916 164.522 46.142C164.067 45.8852 163.542 45.7567 162.948 45.7567C162.346 45.7567 161.807 45.8925 161.33 46.1641C160.853 46.4283 160.475 46.7915 160.196 47.2539C159.917 47.7089 159.77 48.2263 159.756 48.8061V51.9876C159.756 52.6774 159.891 53.2829 160.163 53.804C160.434 54.3177 160.82 54.7177 161.319 55.0039C161.818 55.2901 162.412 55.4332 163.102 55.4332C163.579 55.4332 164.012 55.3672 164.401 55.2351C164.79 55.103 165.124 54.9085 165.403 54.6516C165.682 54.3948 165.891 54.0792 166.03 53.7049L170.973 53.848C170.768 54.9562 170.316 55.9213 169.619 56.7433C168.929 57.5579 168.023 58.1927 166.9 58.6477C165.777 59.0954 164.478 59.3192 163.003 59.3192ZM178.544 59.2862C177.465 59.2862 176.508 59.1064 175.671 58.7468C174.842 58.3799 174.185 57.8294 173.701 57.0955C173.224 56.3543 172.985 55.4259 172.985 54.3104C172.985 53.371 173.15 52.5784 173.48 51.9325C173.811 51.2867 174.266 50.762 174.845 50.3583C175.425 49.9547 176.093 49.6501 176.849 49.4446C177.605 49.2318 178.412 49.0887 179.271 49.0153C180.232 48.9272 181.007 48.8355 181.594 48.7401C182.181 48.6373 182.606 48.4942 182.871 48.3107C183.142 48.1199 183.278 47.852 183.278 47.5071V47.4521C183.278 46.887 183.083 46.4503 182.695 46.142C182.306 45.8338 181.781 45.6797 181.12 45.6797C180.408 45.6797 179.836 45.8338 179.403 46.142C178.97 46.4503 178.695 46.8759 178.577 47.419L173.612 47.2429C173.759 46.2154 174.137 45.2981 174.746 44.4908C175.363 43.6761 176.207 43.0376 177.278 42.5753C178.357 42.1056 179.652 41.8707 181.164 41.8707C182.243 41.8707 183.238 41.9992 184.148 42.256C185.058 42.5056 185.85 42.8725 186.525 43.3569C187.201 43.8339 187.722 44.421 188.089 45.1183C188.463 45.8155 188.65 46.6117 188.65 47.5071V59H183.586V56.6442H183.454C183.153 57.2166 182.768 57.701 182.298 58.0973C181.836 58.4936 181.289 58.7908 180.658 58.989C180.034 59.1871 179.33 59.2862 178.544 59.2862ZM180.207 55.7635C180.786 55.7635 181.307 55.6461 181.77 55.4112C182.239 55.1764 182.614 54.8535 182.893 54.4425C183.172 54.0241 183.311 53.5398 183.311 52.9893V51.3821C183.157 51.4628 182.97 51.5362 182.75 51.6023C182.537 51.6683 182.302 51.7307 182.045 51.7894C181.788 51.8481 181.524 51.8995 181.252 51.9435C180.981 51.9876 180.72 52.0279 180.471 52.0646C179.964 52.1454 179.531 52.2701 179.172 52.4389C178.82 52.6077 178.548 52.8279 178.357 53.0994C178.174 53.3636 178.082 53.6792 178.082 54.0462C178.082 54.6039 178.28 55.0296 178.676 55.3232C179.08 55.6167 179.59 55.7635 180.207 55.7635ZM197.325 49.3565V59H191.942V42.0909H197.061V45.1953H197.248C197.622 44.1605 198.261 43.3495 199.163 42.7624C200.066 42.168 201.141 41.8707 202.389 41.8707C203.578 41.8707 204.609 42.1386 205.482 42.6744C206.363 43.2028 207.045 43.944 207.53 44.8981C208.021 45.8448 208.264 46.953 208.256 48.2227V59H202.873V49.2795C202.88 48.3401 202.642 47.6062 202.158 47.0778C201.681 46.5494 201.016 46.2852 200.165 46.2852C199.6 46.2852 199.101 46.4099 198.668 46.6594C198.242 46.9016 197.912 47.2502 197.677 47.7053C197.45 48.1603 197.332 48.7107 197.325 49.3565ZM222.499 51.7013V42.0909H227.871V59H222.741V55.8516H222.565C222.19 56.8864 221.552 57.7083 220.649 58.3175C219.754 58.9193 218.671 59.2202 217.402 59.2202C216.249 59.2202 215.237 58.956 214.363 58.4276C213.49 57.8991 212.811 57.1616 212.327 56.2148C211.842 55.2608 211.596 54.1452 211.589 52.8683V42.0909H216.972V51.8114C216.98 52.7288 217.222 53.4517 217.699 53.9801C218.176 54.5085 218.825 54.7727 219.647 54.7727C220.183 54.7727 220.664 54.6553 221.089 54.4205C221.522 54.1783 221.864 53.8297 222.113 53.3746C222.37 52.9123 222.499 52.3545 222.499 51.7013ZM231.297 65.3409V42.0909H236.625V44.9861H236.79C237.011 44.4724 237.322 43.977 237.726 43.5C238.137 43.023 238.658 42.634 239.289 42.3331C239.928 42.0249 240.691 41.8707 241.579 41.8707C242.753 41.8707 243.851 42.179 244.871 42.7955C245.898 43.4119 246.727 44.3623 247.359 45.6467C247.99 46.931 248.305 48.5676 248.305 50.5565C248.305 52.4719 248.001 54.0755 247.392 55.3672C246.79 56.6589 245.975 57.6276 244.948 58.2734C243.928 58.9193 242.794 59.2422 241.546 59.2422C240.695 59.2422 239.957 59.1027 239.333 58.8239C238.71 58.545 238.185 58.178 237.759 57.723C237.341 57.268 237.018 56.7799 236.79 56.2589H236.68V65.3409H231.297ZM236.57 50.5455C236.57 51.4555 236.691 52.2481 236.934 52.9233C237.183 53.5985 237.539 54.1232 238.001 54.4975C238.471 54.8645 239.032 55.0479 239.686 55.0479C240.346 55.0479 240.908 54.8645 241.37 54.4975C241.832 54.1232 242.181 53.5985 242.416 52.9233C242.658 52.2481 242.779 51.4555 242.779 50.5455C242.779 49.6354 242.658 48.8465 242.416 48.1786C242.181 47.5108 241.832 46.9934 241.37 46.6264C240.915 46.2595 240.353 46.076 239.686 46.076C239.025 46.076 238.464 46.2558 238.001 46.6154C237.539 46.975 237.183 47.4888 236.934 48.1566C236.691 48.8245 236.57 49.6207 236.57 50.5455ZM254.154 59.3192C253.361 59.3192 252.682 59.0404 252.117 58.4826C251.559 57.9248 251.284 57.2496 251.291 56.457C251.284 55.6791 251.559 55.0149 252.117 54.4645C252.682 53.9067 253.361 53.6278 254.154 53.6278C254.902 53.6278 255.563 53.9067 256.135 54.4645C256.715 55.0149 257.008 55.6791 257.016 56.457C257.008 56.9854 256.869 57.4661 256.597 57.8991C256.333 58.3321 255.985 58.6771 255.552 58.9339C255.126 59.1908 254.66 59.3192 254.154 59.3192ZM260.572 65.3409V42.0909H265.9V44.9861H266.065C266.285 44.4724 266.597 43.977 267.001 43.5C267.412 43.023 267.933 42.634 268.564 42.3331C269.202 42.0249 269.965 41.8707 270.854 41.8707C272.028 41.8707 273.125 42.179 274.145 42.7955C275.173 43.4119 276.002 44.3623 276.633 45.6467C277.264 46.931 277.58 48.5676 277.58 50.5565C277.58 52.4719 277.275 54.0755 276.666 55.3672C276.064 56.6589 275.25 57.6276 274.222 58.2734C273.202 58.9193 272.068 59.2422 270.82 59.2422C269.969 59.2422 269.232 59.1027 268.608 58.8239C267.984 58.545 267.459 58.178 267.034 57.723C266.615 57.268 266.292 56.7799 266.065 56.2589H265.955V65.3409H260.572ZM265.845 50.5455C265.845 51.4555 265.966 52.2481 266.208 52.9233C266.457 53.5985 266.813 54.1232 267.276 54.4975C267.745 54.8645 268.307 55.0479 268.96 55.0479C269.621 55.0479 270.182 54.8645 270.644 54.4975C271.107 54.1232 271.455 53.5985 271.69 52.9233C271.932 52.2481 272.053 51.4555 272.053 50.5455C272.053 49.6354 271.932 48.8465 271.69 48.1786C271.455 47.5108 271.107 46.9934 270.644 46.6264C270.189 46.2595 269.628 46.076 268.96 46.076C268.3 46.076 267.738 46.2558 267.276 46.6154C266.813 46.975 266.457 47.4888 266.208 48.1566C265.966 48.8245 265.845 49.6207 265.845 50.5455ZM280.401 59V42.0909H285.784V59H280.401ZM283.098 40.1204C282.342 40.1204 281.692 39.8709 281.149 39.3718C280.606 38.8654 280.335 38.2563 280.335 37.5444C280.335 36.8398 280.606 36.238 281.149 35.739C281.692 35.2326 282.342 34.9794 283.098 34.9794C283.861 34.9794 284.511 35.2326 285.046 35.739C285.589 36.238 285.861 36.8398 285.861 37.5444C285.861 38.2563 285.589 38.8654 285.046 39.3718C284.511 39.8709 283.861 40.1204 283.098 40.1204ZM297.103 59.3192C295.32 59.3192 293.79 58.9523 292.513 58.2184C291.243 57.4845 290.267 56.4644 289.585 55.158C288.902 53.8443 288.561 52.3252 288.561 50.6005C288.561 48.8685 288.902 47.3493 289.585 46.043C290.274 44.7293 291.254 43.7055 292.524 42.9716C293.801 42.2377 295.324 41.8707 297.092 41.8707C298.656 41.8707 300.017 42.1533 301.176 42.7184C302.343 43.2835 303.253 44.0835 303.907 45.1183C304.567 46.1457 304.916 47.353 304.952 48.7401H299.922C299.819 47.8741 299.525 47.1952 299.041 46.7035C298.564 46.2118 297.94 45.9659 297.169 45.9659C296.546 45.9659 295.999 46.142 295.529 46.4943C295.059 46.8393 294.692 47.353 294.428 48.0355C294.171 48.7107 294.043 49.5473 294.043 50.5455C294.043 51.5436 294.171 52.3875 294.428 53.0774C294.692 53.7599 295.059 54.2773 295.529 54.6296C295.999 54.9746 296.546 55.147 297.169 55.147C297.668 55.147 298.109 55.0406 298.49 54.8278C298.879 54.6149 299.199 54.303 299.448 53.892C299.698 53.4737 299.855 52.9673 299.922 52.3729H304.952C304.901 53.7673 304.552 54.9856 303.907 56.0277C303.268 57.0698 302.369 57.8808 301.21 58.4606C300.057 59.033 298.689 59.3192 297.103 59.3192ZM317.252 42.0909V46.054H306.584V42.0909H317.252ZM308.819 38.0398H314.202V53.6829C314.202 54.0131 314.254 54.281 314.356 54.4865C314.467 54.6847 314.624 54.8278 314.83 54.9158C315.035 54.9966 315.281 55.0369 315.567 55.0369C315.773 55.0369 315.989 55.0186 316.217 54.9819C316.452 54.9379 316.628 54.9012 316.745 54.8718L317.56 58.7578C317.303 58.8312 316.94 58.9229 316.47 59.033C316.008 59.1431 315.454 59.2128 314.808 59.2422C313.545 59.3009 312.463 59.1541 311.56 58.8018C310.665 58.4422 309.979 57.8845 309.502 57.1286C309.032 56.3726 308.804 55.4222 308.819 54.2773V38.0398ZM330.908 51.7013V42.0909H336.28V59H331.15V55.8516H330.974C330.6 56.8864 329.961 57.7083 329.058 58.3175C328.163 58.9193 327.08 59.2202 325.811 59.2202C324.659 59.2202 323.646 58.956 322.772 58.4276C321.899 57.8991 321.22 57.1616 320.736 56.2148C320.252 55.2608 320.006 54.1452 319.998 52.8683V42.0909H325.381V51.8114C325.389 52.7288 325.631 53.4517 326.108 53.9801C326.585 54.5085 327.235 54.7727 328.057 54.7727C328.592 54.7727 329.073 54.6553 329.499 54.4205C329.932 54.1783 330.273 53.8297 330.522 53.3746C330.779 52.9123 330.908 52.3545 330.908 51.7013ZM339.706 59V42.0909H344.935V45.1733H345.112C345.42 44.0578 345.922 43.2285 346.62 42.6854C347.317 42.1349 348.128 41.8597 349.053 41.8597C349.302 41.8597 349.559 41.8781 349.823 41.9148C350.087 41.9441 350.333 41.9918 350.561 42.0579V46.7365C350.304 46.6484 349.966 46.5787 349.548 46.5273C349.137 46.476 348.77 46.4503 348.447 46.4503C347.809 46.4503 347.232 46.5934 346.719 46.8796C346.212 47.1585 345.812 47.5511 345.519 48.0575C345.233 48.5566 345.089 49.1437 345.089 49.8189V59H339.706ZM359.78 59.3192C358.012 59.3192 356.485 58.9706 355.201 58.2734C353.924 57.5689 352.94 56.5671 352.251 55.2681C351.568 53.9618 351.227 52.4096 351.227 50.6115C351.227 48.8648 351.572 47.3383 352.262 46.032C352.951 44.7183 353.924 43.6982 355.179 42.9716C356.434 42.2377 357.913 41.8707 359.615 41.8707C360.819 41.8707 361.92 42.0579 362.918 42.4322C363.916 42.8065 364.778 43.3606 365.505 44.0945C366.231 44.8284 366.796 45.7347 367.2 46.8136C367.604 47.8851 367.806 49.1143 367.806 50.5014V51.8445H353.109V48.718H362.797C362.789 48.1456 362.654 47.6355 362.389 47.1879C362.125 46.7402 361.762 46.3916 361.3 46.142C360.845 45.8852 360.32 45.7567 359.725 45.7567C359.124 45.7567 358.584 45.8925 358.107 46.1641C357.63 46.4283 357.252 46.7915 356.973 47.2539C356.694 47.7089 356.548 48.2263 356.533 48.8061V51.9876C356.533 52.6774 356.669 53.2829 356.94 53.804C357.212 54.3177 357.597 54.7177 358.096 55.0039C358.595 55.2901 359.19 55.4332 359.879 55.4332C360.356 55.4332 360.789 55.3672 361.178 55.2351C361.567 55.103 361.901 54.9085 362.18 54.6516C362.459 54.3948 362.668 54.0792 362.808 53.7049L367.751 53.848C367.545 54.9562 367.094 55.9213 366.396 56.7433C365.707 57.5579 364.8 58.1927 363.677 58.6477C362.555 59.0954 361.256 59.3192 359.78 59.3192ZM385.317 47.2539L380.375 47.386C380.323 47.0337 380.184 46.7218 379.956 46.4503C379.729 46.1714 379.431 45.9549 379.065 45.8008C378.705 45.6393 378.287 45.5586 377.81 45.5586C377.186 45.5586 376.654 45.6834 376.213 45.9329C375.78 46.1824 375.568 46.52 375.575 46.9457C375.568 47.2759 375.7 47.5621 375.971 47.8043C376.25 48.0465 376.745 48.241 377.457 48.3878L380.716 49.0043C382.404 49.3272 383.659 49.8629 384.481 50.6115C385.31 51.3601 385.728 52.3509 385.736 53.5838C385.728 54.7434 385.383 55.7525 384.701 56.6112C384.026 57.4698 383.101 58.1377 381.927 58.6147C380.753 59.0844 379.409 59.3192 377.898 59.3192C375.483 59.3192 373.579 58.8239 372.184 57.8331C370.797 56.835 370.005 55.4993 369.806 53.826L375.123 53.6939C375.241 54.3104 375.545 54.7801 376.037 55.103C376.529 55.4259 377.156 55.5874 377.92 55.5874C378.61 55.5874 379.171 55.4589 379.604 55.2021C380.037 54.9452 380.257 54.6039 380.264 54.1783C380.257 53.7966 380.088 53.4921 379.758 53.2646C379.428 53.0297 378.91 52.8462 378.206 52.7141L375.256 52.1527C373.56 51.8445 372.298 51.2757 371.469 50.4464C370.639 49.6097 370.228 48.5456 370.236 47.2539C370.228 46.1237 370.529 45.1586 371.138 44.3587C371.748 43.5514 372.614 42.9349 373.736 42.5092C374.859 42.0836 376.184 41.8707 377.71 41.8707C380 41.8707 381.806 42.3514 383.127 43.3129C384.448 44.2669 385.178 45.5806 385.317 47.2539Z"
        fill="black" data-darkreader-inline-fill="" style="--darkreader-inline-fill:#000000;"></path>
</svg>