<svg width="112" height="24" viewBox="0 0 112 24" fill="none" xmlns="http://www.w3.org/2000/svg">
<path d="M63.1855 18.5146C63.6416 20.2898 65.2526 21.6022 67.1699 21.6025C69.0876 21.6025 70.6992 20.29 71.1553 18.5146H73.6016C73.1083 21.6232 70.4173 23.9999 67.1699 24C63.9227 23.9997 61.2306 21.6231 60.7373 18.5146H63.1855ZM60.6572 17.5615C60.6569 17.5366 60.6553 17.5114 60.6553 17.4863C60.6553 17.4616 60.6569 17.4367 60.6572 17.4121V17.5615ZM59.9707 6.17188L55.1709 8.57129V17.1445H52.7715V4.11719H55.1709V6.17188L59.9707 3.77148V6.17188ZM93.9121 6.17188C94.5323 5.18417 95.7329 4.7998 97.3408 4.7998C99.9593 4.79982 101.797 7.09506 101.797 9.64453V17.1436H99.3682V10.1963C99.3682 8.35869 98.2163 7.2002 96.6543 7.2002C95.0694 7.20025 93.9121 8.45061 93.9121 10.1963V17.1436H91.5117V4.7998H93.9121V6.17188ZM19.1709 6.17188C19.8566 5.1434 21.1585 4.79982 22.5996 4.7998C24.0407 4.7998 25.3426 5.48614 26.0283 6.51465C26.714 5.48614 27.7427 4.7998 29.7998 4.7998C32.7138 4.79994 34.9423 6.6857 34.9424 9.25684V17.1426H32.542V9.94238C32.5419 8.1529 31.3569 7.02848 29.7998 7.02832C28.196 7.02832 27.0567 8.24574 27.0566 9.94238V17.1426H24.6572V9.94238C24.6571 8.15278 23.3227 7.02832 21.7422 7.02832C20.1386 7.02851 19.1709 8.15009 19.1709 9.84668V17.1426H16.7715V4.7998H19.1709V6.17188ZM50.708 9.99512C50.8186 12.6349 49.3889 15.215 46.8623 16.4473C44.3358 17.6793 41.4232 17.2171 39.4111 15.5049L41.9023 14.29C43.0925 14.8701 44.5282 14.9162 45.8105 14.291C47.0928 13.6656 47.941 12.5059 48.2168 11.2109L50.708 9.99512ZM73.6836 10.5908C73.6837 10.6035 73.6846 10.6162 73.6846 10.6289C73.6846 10.6413 73.6837 10.6537 73.6836 10.666V10.9717H73.6748C73.4965 14.4098 70.6525 17.1426 67.1699 17.1426C63.5725 17.1423 60.6562 14.2263 60.6562 10.6289C60.6564 7.03165 63.5726 4.11549 67.1699 4.11523C68.7303 4.11523 70.1623 4.66426 71.2842 5.5791V3.42969H73.6836V10.5908ZM89.4502 9.99512C89.5608 12.6348 88.1309 15.2149 85.6045 16.4473C83.0779 17.6795 80.1645 17.2172 78.1523 15.5049L80.6436 14.29C81.8337 14.8701 83.2695 14.9162 84.5518 14.291C85.834 13.6656 86.6822 12.5059 86.958 11.2109L89.4502 9.99512ZM107.279 3.42773H110.021V5.82812H107.279V14.7422H111.739V17.1426L104.882 17.1416H104.88V5.82812H103.165V3.42773H104.88V0H107.279V3.42773ZM14.708 9.99316C14.8186 12.6329 13.3889 15.213 10.8623 16.4453C8.33582 17.6773 5.42318 17.2151 3.41113 15.5029L5.90234 14.2881C7.09265 14.8682 8.52816 14.9135 9.81055 14.2881C11.093 13.6626 11.9411 12.5031 12.2168 11.208L14.708 9.99316ZM67.1699 6.51367C64.8979 6.51378 63.0558 8.35502 63.0557 10.627C63.0557 12.899 64.8978 14.7411 67.1699 14.7412C69.4421 14.7412 71.2842 12.8991 71.2842 10.627C71.284 8.35496 69.442 6.51367 67.1699 6.51367ZM40.8525 4.12402C44.2554 2.46459 48.3598 3.8776 50.0195 7.28027C50.1209 7.48808 50.2104 7.69881 50.2891 7.91113L38.0273 13.8926C37.9084 13.6998 37.7977 13.4989 37.6963 13.291C36.0366 9.88819 37.4496 5.78369 40.8525 4.12402ZM79.5938 4.12402C82.9966 2.46455 87.101 3.8776 88.7607 7.28027C88.8621 7.48807 88.9516 7.69882 89.0303 7.91113L76.7686 13.8926C76.6496 13.6998 76.5389 13.4989 76.4375 13.291C74.7778 9.88819 76.1908 5.78369 79.5938 4.12402ZM4.85254 4.12207C8.25543 2.46258 12.3598 3.87557 14.0195 7.27832C14.1209 7.48616 14.2104 7.69683 14.2891 7.90918L2.02734 13.8896C1.90847 13.697 1.79765 13.4968 1.69629 13.2891C0.0365657 9.88623 1.4496 5.78174 4.85254 4.12207ZM46.8047 6.94141C45.4952 5.7885 43.5704 5.46869 41.9043 6.28125C40.2383 7.0938 39.3059 8.80725 39.4082 10.5488L46.8047 6.94141ZM85.5459 6.94141C84.2364 5.7885 82.3116 5.46869 80.6455 6.28125C78.9796 7.09382 78.0471 8.80727 78.1494 10.5488L85.5459 6.94141ZM10.8047 6.93945C9.49529 5.78661 7.57029 5.46593 5.9043 6.27832C4.23824 7.09088 3.30586 8.80523 3.4082 10.5469L10.8047 6.93945Z" fill="white"/>
</svg>
