<?xml version="1.0" encoding="UTF-8"?>
<svg width="680px" height="248px" viewBox="0 0 680 248" version="1.1" xmlns="http://www.w3.org/2000/svg" xmlns:xlink="http://www.w3.org/1999/xlink">
    <!-- Generator: Sketch 64 (93537) - https://sketch.com -->
    <title>Group</title>
    <desc>Created with Sketch.</desc>
    <defs>
        <polygon id="path-1" points="0 46.7848101 239.546127 46.7848101 239.546127 0.330531646 0 0.330531646"></polygon>
    </defs>
    <g id="Page-1" stroke="none" stroke-width="1" fill="none" fill-rule="evenodd">
        <g id="logo--flaticon" transform="translate(-80.000000, -498.000000)">
            <g id="Group" transform="translate(80.000000, 498.000000)">
                <rect id="Rectangle-4" stroke="#E2E9ED" x="0.5" y="0.5" width="679" height="247"></rect>
                <g id="Group-14" transform="translate(220.000000, 100.000000)">
                    <polygon id="Fill-1" fill="#0E2A47" points="88.3108861 42.7900557 95.1797468 42.7900557 95.1797468 4.89253671 88.3108861 4.89253671"></polygon>
                    <g id="Group-13" transform="translate(0.000000, 0.277246)">
                        <path d="M105.641256,29.748638 C105.641256,33.6433215 108.19437,36.7754734 112.220901,36.7754734 C116.141711,36.7754734 118.799939,33.7751696 118.799939,29.748638 C118.799939,25.7221063 116.141711,22.7218025 112.220901,22.7218025 C108.19437,22.7218025 105.641256,25.8533468 105.641256,29.748638 L105.641256,29.748638 Z M125.29999,42.5123848 L118.589711,42.5123848 L118.589711,39.6967899 C116.931585,41.7492456 114.457458,43.1710177 110.957104,43.1710177 C103.930876,43.1710177 98.6138127,37.4067646 98.6138127,29.748638 C98.6138127,22.0905114 103.930876,16.3268658 110.957104,16.3268658 C114.457458,16.3268658 116.904851,17.7480304 118.589711,19.8266127 L118.589711,17.0110177 L125.29999,17.0110177 L125.29999,42.5123848 Z" id="Fill-2" fill="#0E2A47"></path>
                        <mask id="mask-2" fill="white">
                            <use xlink:href="#path-1"></use>
                        </mask>
                        <g id="Clip-5"></g>
                        <path d="M151.684861,42.5128101 L158.553722,42.5128101 L158.553722,17.0108354 L151.684861,17.0108354 L151.684861,42.5128101 Z M159.475443,8.66855696 C159.475443,11.1420759 157.55362,13.036557 155.080101,13.036557 C152.605975,13.036557 150.711494,11.1420759 150.711494,8.66855696 C150.711494,6.19443038 152.605975,4.24708861 155.080101,4.24708861 C157.55362,4.24708861 159.475443,6.19443038 159.475443,8.66855696 L159.475443,8.66855696 Z" id="Fill-4" fill="#0E2A47" mask="url(#mask-2)"></path>
                        <path d="M84.8361722,11.1654076 C83.7892861,10.7601418 81.9780456,10.0699139 79.9650835,10.3135595 C78.0329316,10.5572051 76.9866532,11.5305722 76.9866532,13.8837873 L76.9866532,16.9667241 L84.8762734,16.9667241 L84.8762734,23.0924962 L76.9866532,23.0924962 L76.9866532,42.5252051 L70.1433114,42.5252051 L70.1433114,23.0924962 L65.3931342,23.0924962 L65.3931342,17.0074329 L70.1433114,17.0074329 L70.1433114,13.8430785 C70.1433114,7.83882532 73.3234633,3.94414177 79.2408304,3.94414177 C81.4950076,3.94414177 83.3463494,4.39072405 84.8762734,5.03963544 L84.8361722,11.1654076 Z" id="Fill-6" fill="#0E2A47" mask="url(#mask-2)"></path>
                        <path d="M142.854319,36.7754734 C140.722268,36.7754734 139.038015,35.6173975 139.038015,32.4329924 L139.038015,23.1167392 L148.275281,23.1167392 L148.275281,17.0110177 L139.038015,17.0110177 L139.038015,9.43127089 L132.169154,9.43127089 L132.169154,17.0110177 L128.735028,17.0110177 L128.735028,23.1167392 L132.169154,23.1167392 L132.169154,32.9859038 C132.169154,39.5916759 135.40642,43.1710177 141.72237,43.1710177 C144.3648,43.1710177 146.447028,42.5530937 148.247939,41.6313722 L145.658977,36.1302076 C144.741509,36.5099544 143.777863,36.7754734 142.854319,36.7754734" id="Fill-7" fill="#0E2A47" mask="url(#mask-2)"></path>
                        <path d="M191.423939,29.748638 C191.423939,33.8808911 194.318522,36.7754734 198.187686,36.7754734 C202.056243,36.7754734 204.977559,33.8808911 204.977559,29.748638 C204.977559,25.6169924 202.056243,22.7218025 198.187686,22.7218025 C194.318522,22.7218025 191.423939,25.6169924 191.423939,29.748638 M212.004395,29.748638 C212.004395,37.4334987 206.135028,43.1710177 198.187686,43.1710177 C190.265256,43.1710177 184.42323,37.4334987 184.42323,29.748638 C184.42323,22.0643848 190.265256,16.3268658 198.187686,16.3268658 C206.135028,16.3268658 212.004395,22.0643848 212.004395,29.748638" id="Fill-8" fill="#0E2A47" mask="url(#mask-2)"></path>
                        <path d="M239.545884,26.2748962 L239.545884,42.5128709 L232.677023,42.5128709 L232.677023,28.4853266 C232.677023,24.8008709 230.834795,22.7745418 227.702643,22.7745418 C224.7552,22.7745418 222.3072,24.695757 222.3072,28.5375797 L222.3072,42.5128709 L215.438339,42.5128709 L215.438339,17.0108962 L222.123099,17.0108962 L222.123099,20.0105924 C223.9392,17.3001114 226.729276,16.3267443 229.623858,16.3267443 C235.414238,16.3267443 239.545884,20.3532759 239.545884,26.2748962" id="Fill-9" fill="#0E2A47" mask="url(#mask-2)"></path>
                        <path d="M181.063413,34.2003038 L181.058552,34.1960506 C179.733387,35.6421266 178.029691,36.5924051 176.055008,36.7443038 C175.873337,36.7582785 175.692273,36.7752911 175.505742,36.7752911 C175.125387,36.7752911 174.756577,36.7376203 174.395666,36.6756456 C172.434349,36.3402532 170.796273,35.1214177 169.893387,33.2561013 C169.410349,32.2578228 169.136932,31.0760506 169.136932,29.7484557 C169.136932,28.3892658 169.432223,27.1813671 169.946856,26.1642532 C170.875261,24.3293165 172.526704,23.1281013 174.48802,22.8115443 C174.828273,22.7568608 175.17521,22.7216203 175.531868,22.7216203 C175.680122,22.7216203 175.819261,22.7355949 175.962653,22.7434937 C177.981084,22.8540759 179.529235,23.7265823 180.978957,25.2741266 L184.347463,19.44 C182.949995,18.1968608 181.276071,17.299443 179.395565,16.796962 C178.240527,16.4889114 177.009539,16.3266835 175.716577,16.3266835 C174.069995,16.3266835 172.541286,16.5709367 171.137742,17.0084051 C169.254805,17.5947342 167.616122,18.5480506 166.267261,19.7917975 C163.654603,22.2009114 162.136223,25.6927595 162.136223,29.7484557 C162.136223,33.7834937 163.628476,37.2504304 166.199818,39.6534684 C167.54078,40.9075443 169.175818,41.8669367 171.054501,42.4635949 C172.480527,42.9162532 174.037185,43.1708354 175.716577,43.1708354 C177.043565,43.1708354 178.304324,43.004962 179.484273,42.6835443 C181.355666,42.1737722 183.021691,41.2708861 184.422805,40.0192405 L181.063413,34.2003038 Z" id="Fill-10" fill="#0E2A47" mask="url(#mask-2)"></path>
                        <path d="M28.1538835,16.4367797 L16.3531747,16.4367797 L12.6559595,10.0333367 L31.8510987,10.0333367 L37.4525165,0.330653165 L5.69170633,0.330653165 C3.63742785,0.330653165 1.79763038,1.39272911 0.770187342,3.17237468 C-0.256648101,4.95080506 -0.256648101,7.07556456 0.770794937,8.85399494 L21.0292253,43.9432101 C22.0560608,45.7222481 23.8958582,46.7849316 25.9501367,46.7849316 C28.0044152,46.7849316 29.8442127,45.7222481 30.8710481,43.9432101 L31.5527696,42.7632608 L22.2541367,26.6571342 L28.1538835,16.4367797 Z" id="Fill-11" fill="#4AD295" mask="url(#mask-2)"></path>
                        <path d="M51.1300861,3.17115949 C50.1032506,1.39272911 48.2634532,0.330653165 46.2091747,0.330653165 L44.8463392,0.330653165 L29.6552506,26.6601722 L35.2487696,36.3604253 L51.1294785,8.85399494 C52.1569215,7.07556456 52.1569215,4.95080506 51.1300861,3.17115949" id="Fill-12" fill="#4AD295" mask="url(#mask-2)"></path>
                    </g>
                </g>
            </g>
        </g>
    </g>
</svg>