<?xml version="1.0" encoding="UTF-8" standalone="no"?>
<!DOCTYPE svg PUBLIC "-//W3C//DTD SVG 1.1//EN" "http://www.w3.org/Graphics/SVG/1.1/DTD/svg11.dtd"><svg width="100%"
    height="100%" viewBox="0 0 1806 666" version="1.1" xmlns="http://www.w3.org/2000/svg"
    xmlns:xlink="http://www.w3.org/1999/xlink" xml:space="preserve" xmlns:serif="http://www.serif.com/"
    style="fill-rule:evenodd;clip-rule:evenodd;stroke-linejoin:round;stroke-miterlimit:2;">
    <g transform="matrix(32.7316,0,0,32.7316,-13089.8,-15408.9)">
        <g transform="matrix(13,0,0,13,402,480)">
            <path d="M0.087,0l0.121,0l0,-0.281l0.288,0l0,-0.109l-0.288,0l0,-0.212l0.343,0l0,-0.108l-0.464,0l0,0.71Z"
                style="fill:#333;fill-rule:nonzero;" />
        </g>
        <g transform="matrix(13,0,0,13,409.439,480)">
            <path
                d="M0.338,-0.495c-0.03,0 -0.058,0.007 -0.084,0.021c-0.026,0.013 -0.049,0.033 -0.068,0.059l-0.001,0l0,-0.073l-0.112,0l0,0.488l0.112,0l0,-0.231c0,-0.027 0.005,-0.051 0.015,-0.072c0.01,-0.021 0.026,-0.038 0.046,-0.05c0.02,-0.012 0.044,-0.019 0.072,-0.019c0.01,0 0.021,0.001 0.034,0.002l0,-0.125c-0.003,0 -0.008,0 -0.014,0Z"
                style="fill:#333;fill-rule:nonzero;" />
        </g>
        <g transform="matrix(13,0,0,13,414.099,480)">
            <path
                d="M0.519,-0.25c0,-0.047 -0.01,-0.089 -0.029,-0.126c-0.019,-0.037 -0.047,-0.066 -0.083,-0.087c-0.036,-0.022 -0.078,-0.032 -0.125,-0.032c-0.034,0 -0.065,0.006 -0.094,0.018c-0.03,0.012 -0.055,0.029 -0.076,0.051c-0.021,0.022 -0.038,0.049 -0.05,0.08c-0.012,0.031 -0.018,0.065 -0.018,0.102c0,0.05 0.011,0.094 0.033,0.132c0.021,0.039 0.051,0.069 0.089,0.089c0.038,0.021 0.08,0.031 0.127,0.031c0.046,0 0.086,-0.008 0.121,-0.025c0.034,-0.017 0.063,-0.039 0.085,-0.067l-0.078,-0.067c-0.031,0.038 -0.071,0.057 -0.122,0.057c-0.035,0 -0.066,-0.01 -0.091,-0.03c-0.025,-0.019 -0.041,-0.047 -0.048,-0.081l0.356,0c0.002,-0.012 0.003,-0.027 0.003,-0.045Zm-0.231,-0.144c0.02,0 0.039,0.005 0.056,0.013c0.016,0.008 0.029,0.02 0.04,0.034c0.01,0.015 0.017,0.032 0.022,0.052l-0.244,0c0.008,-0.032 0.023,-0.056 0.046,-0.073c0.022,-0.017 0.049,-0.026 0.08,-0.026Z"
                style="fill:#333;fill-rule:nonzero;" />
        </g>
        <g transform="matrix(13,0,0,13,421.398,480)">
            <path
                d="M0.519,-0.25c0,-0.047 -0.01,-0.089 -0.029,-0.126c-0.019,-0.037 -0.047,-0.066 -0.083,-0.087c-0.036,-0.022 -0.078,-0.032 -0.125,-0.032c-0.034,0 -0.065,0.006 -0.094,0.018c-0.03,0.012 -0.055,0.029 -0.076,0.051c-0.021,0.022 -0.038,0.049 -0.05,0.08c-0.012,0.031 -0.018,0.065 -0.018,0.102c0,0.05 0.011,0.094 0.033,0.132c0.021,0.039 0.051,0.069 0.089,0.089c0.038,0.021 0.08,0.031 0.127,0.031c0.046,0 0.086,-0.008 0.121,-0.025c0.034,-0.017 0.063,-0.039 0.085,-0.067l-0.078,-0.067c-0.031,0.038 -0.071,0.057 -0.122,0.057c-0.035,0 -0.066,-0.01 -0.091,-0.03c-0.025,-0.019 -0.041,-0.047 -0.048,-0.081l0.356,0c0.002,-0.012 0.003,-0.027 0.003,-0.045Zm-0.231,-0.144c0.02,0 0.039,0.005 0.056,0.013c0.016,0.008 0.029,0.02 0.04,0.034c0.01,0.015 0.017,0.032 0.022,0.052l-0.244,0c0.008,-0.032 0.023,-0.056 0.046,-0.073c0.022,-0.017 0.049,-0.026 0.08,-0.026Z"
                style="fill:#333;fill-rule:nonzero;" />
        </g>
        <g transform="matrix(13,0,0,13,428.698,480)">
            <path d="M0.087,0l0.121,0l0,-0.281l0.288,0l0,-0.109l-0.288,0l0,-0.212l0.343,0l0,-0.108l-0.464,0l0,0.71Z"
                style="fill:#333;fill-rule:nonzero;" />
        </g>
        <g transform="matrix(13,0,0,13,435.903,480)">
            <path
                d="M0.3,0.008c0.049,0 0.093,-0.011 0.132,-0.032c0.039,-0.021 0.07,-0.05 0.091,-0.089c0.022,-0.038 0.033,-0.081 0.033,-0.13c0,-0.049 -0.011,-0.093 -0.033,-0.132c-0.021,-0.038 -0.052,-0.068 -0.09,-0.089c-0.039,-0.021 -0.083,-0.031 -0.133,-0.031c-0.05,0 -0.095,0.011 -0.134,0.033c-0.039,0.022 -0.07,0.052 -0.091,0.09c-0.021,0.038 -0.031,0.081 -0.031,0.129c0,0.035 0.006,0.069 0.018,0.099c0.013,0.031 0.03,0.058 0.052,0.08c0.022,0.023 0.049,0.04 0.081,0.053c0.033,0.012 0.068,0.019 0.105,0.019Zm0,-0.102c-0.041,0 -0.075,-0.014 -0.102,-0.043c-0.027,-0.028 -0.04,-0.064 -0.04,-0.106c0,-0.043 0.013,-0.079 0.039,-0.108c0.027,-0.028 0.061,-0.043 0.103,-0.043c0.041,0 0.075,0.014 0.102,0.042c0.027,0.028 0.04,0.065 0.04,0.109c0,0.043 -0.013,0.079 -0.041,0.107c-0.027,0.028 -0.061,0.042 -0.101,0.042Z"
                style="fill:#333;fill-rule:nonzero;" />
        </g>
        <g transform="matrix(13,0,0,13,443.704,480)">
            <path
                d="M0.338,-0.495c-0.03,0 -0.058,0.007 -0.084,0.021c-0.026,0.013 -0.049,0.033 -0.068,0.059l-0.001,0l0,-0.073l-0.112,0l0,0.488l0.112,0l0,-0.231c0,-0.027 0.005,-0.051 0.015,-0.072c0.01,-0.021 0.026,-0.038 0.046,-0.05c0.02,-0.012 0.044,-0.019 0.072,-0.019c0.01,0 0.021,0.001 0.034,0.002l0,-0.125c-0.003,0 -0.008,0 -0.014,0Z"
                style="fill:#333;fill-rule:nonzero;" />
        </g>
        <g transform="matrix(13,0,0,13,402,491.01)">
            <path
                d="M0.299,0.008c0.023,0 0.046,-0.003 0.069,-0.008c0.023,-0.005 0.045,-0.014 0.066,-0.025c0.022,-0.011 0.04,-0.025 0.056,-0.041c0.017,-0.017 0.03,-0.037 0.039,-0.06c0.01,-0.024 0.015,-0.05 0.015,-0.079c0,-0.027 -0.004,-0.052 -0.012,-0.073c-0.014,-0.037 -0.044,-0.068 -0.089,-0.093c-0.02,-0.011 -0.06,-0.029 -0.119,-0.052c-0.05,-0.019 -0.082,-0.034 -0.097,-0.043c-0.024,-0.016 -0.036,-0.036 -0.036,-0.06c0.001,-0.026 0.01,-0.046 0.029,-0.061c0.019,-0.014 0.042,-0.022 0.071,-0.022c0.05,0 0.105,0.024 0.163,0.073l0.072,-0.095c-0.075,-0.058 -0.153,-0.088 -0.235,-0.087c-0.041,0 -0.078,0.008 -0.113,0.026c-0.034,0.017 -0.061,0.041 -0.081,0.072c-0.021,0.03 -0.031,0.064 -0.031,0.1c0,0.018 0.003,0.035 0.007,0.051c0.004,0.016 0.01,0.03 0.017,0.042c0.007,0.012 0.016,0.024 0.027,0.035c0.012,0.011 0.023,0.02 0.034,0.028c0.011,0.008 0.025,0.016 0.041,0.024c0.015,0.007 0.03,0.014 0.043,0.019c0.013,0.005 0.028,0.011 0.046,0.017c0.015,0.005 0.027,0.01 0.036,0.013c0.009,0.004 0.019,0.008 0.03,0.013c0.011,0.005 0.019,0.009 0.026,0.013c0.006,0.004 0.013,0.008 0.019,0.014c0.007,0.006 0.011,0.011 0.015,0.017c0.003,0.006 0.006,0.012 0.008,0.019c0.002,0.008 0.003,0.016 0.003,0.025c0,0.027 -0.01,0.048 -0.03,0.063c-0.02,0.016 -0.05,0.023 -0.088,0.023c-0.032,0 -0.064,-0.008 -0.096,-0.024c-0.033,-0.016 -0.061,-0.039 -0.086,-0.069l-0.076,0.093c0.036,0.038 0.076,0.065 0.121,0.084c0.044,0.019 0.089,0.028 0.136,0.028Z"
                style="fill:#333;fill-rule:nonzero;" />
        </g>
        <g transform="matrix(13,0,0,13,409.63,491.01)">
            <path
                d="M0.218,0.008c0.029,0 0.053,-0.003 0.071,-0.008c0.018,-0.004 0.036,-0.012 0.053,-0.021l-0.029,-0.097c-0.026,0.014 -0.05,0.021 -0.072,0.021c-0.016,0 -0.028,-0.005 -0.036,-0.015c-0.007,-0.011 -0.011,-0.028 -0.011,-0.053l0,-0.228l0.143,0l0,-0.095l-0.143,0l0,-0.174l-0.112,0.012l0,0.162l-0.06,0l0,0.095l0.06,0l0,0.239c0,0.053 0.012,0.093 0.036,0.121c0.024,0.027 0.057,0.041 0.1,0.041Z"
                style="fill:#333;fill-rule:nonzero;" />
        </g>
        <g transform="matrix(13,0,0,13,414.372,491.01)">
            <path
                d="M0.397,-0.488l0,0.234c0,0.025 -0.003,0.048 -0.01,0.069c-0.007,0.02 -0.016,0.037 -0.028,0.05c-0.011,0.013 -0.025,0.023 -0.04,0.03c-0.015,0.007 -0.03,0.011 -0.047,0.011c-0.017,0 -0.032,-0.002 -0.043,-0.006c-0.012,-0.004 -0.022,-0.011 -0.03,-0.021c-0.008,-0.01 -0.014,-0.023 -0.018,-0.039c-0.004,-0.016 -0.006,-0.037 -0.006,-0.061l0,-0.267l-0.112,0l0,0.297c0,0.036 0.005,0.066 0.014,0.092c0.008,0.026 0.021,0.047 0.038,0.062c0.016,0.015 0.035,0.027 0.057,0.034c0.021,0.007 0.046,0.011 0.074,0.011c0.029,0 0.056,-0.006 0.082,-0.018c0.026,-0.013 0.049,-0.03 0.068,-0.053l0.001,0l0,0.063l0.112,0l0,-0.488l-0.112,0Z"
                style="fill:#333;fill-rule:nonzero;" />
        </g>
        <g transform="matrix(13,0,0,13,421.881,491.01)">
            <path
                d="M0.436,-0.736l0,0.307l-0.003,0c-0.037,-0.044 -0.088,-0.066 -0.154,-0.066c-0.033,0 -0.064,0.006 -0.093,0.019c-0.029,0.013 -0.054,0.03 -0.075,0.052c-0.021,0.022 -0.037,0.049 -0.049,0.081c-0.013,0.031 -0.019,0.065 -0.019,0.101c0,0.03 0.004,0.058 0.012,0.084c0.008,0.026 0.018,0.049 0.033,0.069c0.014,0.02 0.031,0.038 0.05,0.052c0.019,0.015 0.041,0.026 0.065,0.034c0.025,0.007 0.05,0.011 0.077,0.011c0.068,0 0.121,-0.025 0.158,-0.073l0.002,0l0,0.065l0.107,0l0,-0.736l-0.111,0Zm-0.139,0.642c-0.041,0 -0.075,-0.014 -0.101,-0.041c-0.026,-0.028 -0.039,-0.063 -0.039,-0.106c0,-0.023 0.004,-0.044 0.011,-0.063c0.008,-0.02 0.018,-0.036 0.03,-0.049c0.013,-0.013 0.028,-0.023 0.045,-0.03c0.017,-0.007 0.035,-0.011 0.055,-0.011c0.042,0 0.076,0.015 0.102,0.044c0.027,0.029 0.04,0.065 0.04,0.109c0,0.043 -0.014,0.079 -0.041,0.106c-0.027,0.028 -0.061,0.041 -0.102,0.041Z"
                style="fill:#333;fill-rule:nonzero;" />
        </g>
        <g transform="matrix(13,0,0,13,429.942,491.01)">
            <path
                d="M0.519,-0.25c0,-0.047 -0.01,-0.089 -0.029,-0.126c-0.019,-0.037 -0.047,-0.066 -0.083,-0.087c-0.036,-0.022 -0.078,-0.032 -0.125,-0.032c-0.034,0 -0.065,0.006 -0.094,0.018c-0.03,0.012 -0.055,0.029 -0.076,0.051c-0.021,0.022 -0.038,0.049 -0.05,0.08c-0.012,0.031 -0.018,0.065 -0.018,0.102c0,0.05 0.011,0.094 0.033,0.132c0.021,0.039 0.051,0.069 0.089,0.089c0.038,0.021 0.08,0.031 0.127,0.031c0.046,0 0.086,-0.008 0.121,-0.025c0.034,-0.017 0.063,-0.039 0.085,-0.067l-0.078,-0.067c-0.031,0.038 -0.071,0.057 -0.122,0.057c-0.035,0 -0.066,-0.01 -0.091,-0.03c-0.025,-0.019 -0.041,-0.047 -0.048,-0.081l0.356,0c0.002,-0.012 0.003,-0.027 0.003,-0.045Zm-0.231,-0.144c0.02,0 0.039,0.005 0.056,0.013c0.016,0.008 0.029,0.02 0.04,0.034c0.01,0.015 0.017,0.032 0.022,0.052l-0.244,0c0.008,-0.032 0.023,-0.056 0.046,-0.073c0.022,-0.017 0.049,-0.026 0.08,-0.026Z"
                style="fill:#333;fill-rule:nonzero;" />
        </g>
        <g transform="matrix(13,0,0,13,437.242,491.01)">
            <path
                d="M0.35,-0.495c-0.032,0 -0.062,0.006 -0.091,0.019c-0.028,0.013 -0.052,0.031 -0.073,0.055l-0.001,0l0,-0.067l-0.112,0l0,0.488l0.112,0l0,-0.245c0,-0.024 0.003,-0.045 0.009,-0.064c0.006,-0.018 0.014,-0.034 0.025,-0.046c0.011,-0.013 0.025,-0.022 0.04,-0.029c0.016,-0.006 0.033,-0.01 0.052,-0.01c0.018,0 0.033,0.003 0.045,0.007c0.013,0.005 0.024,0.012 0.033,0.022c0.01,0.011 0.017,0.025 0.021,0.042c0.005,0.018 0.007,0.039 0.007,0.065l0,0.258l0.112,0l0,-0.287c0,-0.071 -0.016,-0.123 -0.048,-0.157c-0.032,-0.034 -0.075,-0.051 -0.131,-0.051Z"
                style="fill:#333;fill-rule:nonzero;" />
        </g>
        <g transform="matrix(13,0,0,13,444.955,491.01)">
            <path
                d="M0.218,0.008c0.029,0 0.053,-0.003 0.071,-0.008c0.018,-0.004 0.036,-0.012 0.053,-0.021l-0.029,-0.097c-0.026,0.014 -0.05,0.021 -0.072,0.021c-0.016,0 -0.028,-0.005 -0.036,-0.015c-0.007,-0.011 -0.011,-0.028 -0.011,-0.053l0,-0.228l0.143,0l0,-0.095l-0.143,0l0,-0.174l-0.112,0.012l0,0.162l-0.06,0l0,0.095l0.06,0l0,0.239c0,0.053 0.012,0.093 0.036,0.121c0.024,0.027 0.057,0.041 0.1,0.041Z"
                style="fill:#333;fill-rule:nonzero;" />
        </g>
        <g transform="matrix(13,0,0,13,449.741,491.01)">
            <path
                d="M0.229,0.008c0.03,0 0.057,-0.004 0.081,-0.012c0.023,-0.007 0.042,-0.018 0.057,-0.031c0.014,-0.014 0.025,-0.03 0.033,-0.047c0.007,-0.018 0.011,-0.037 0.011,-0.058c0,-0.02 -0.003,-0.038 -0.009,-0.053c-0.01,-0.025 -0.031,-0.046 -0.063,-0.063c-0.013,-0.007 -0.045,-0.02 -0.097,-0.041c-0.017,-0.007 -0.031,-0.013 -0.041,-0.018c-0.011,-0.006 -0.019,-0.012 -0.026,-0.019c-0.007,-0.007 -0.01,-0.015 -0.01,-0.022c0,-0.014 0.005,-0.025 0.016,-0.032c0.012,-0.007 0.024,-0.01 0.037,-0.01c0.013,0 0.026,0.001 0.04,0.005c0.013,0.004 0.027,0.009 0.042,0.017c0.014,0.008 0.028,0.018 0.04,0.03l0.056,-0.088c-0.05,-0.041 -0.108,-0.061 -0.172,-0.061c-0.05,0 -0.091,0.013 -0.124,0.039c-0.032,0.026 -0.048,0.059 -0.048,0.099c0,0.016 0.002,0.03 0.005,0.043c0.004,0.013 0.009,0.025 0.016,0.035c0.007,0.01 0.015,0.019 0.023,0.028c0.009,0.008 0.019,0.015 0.031,0.022c0.012,0.006 0.023,0.012 0.035,0.017c0.011,0.005 0.024,0.01 0.039,0.015c0.036,0.012 0.062,0.023 0.076,0.03c0.013,0.008 0.02,0.018 0.02,0.029c0,0.015 -0.006,0.026 -0.018,0.035c-0.012,0.009 -0.029,0.013 -0.05,0.013c-0.029,0 -0.055,-0.004 -0.077,-0.014c-0.023,-0.009 -0.044,-0.024 -0.064,-0.043l-0.056,0.084c0.054,0.047 0.12,0.071 0.197,0.071Z"
                style="fill:#333;fill-rule:nonzero;" />
        </g>
    </g>
    <path id="Rounded-Rectangle-1" serif:id="Rounded Rectangle 1"
        d="M36,10c0,-5.519 -4.481,-10 -10,-10l-16,0c-5.519,0 -10,4.481 -10,10l0,646c0,5.519 4.481,10 10,10l16,0c5.519,0 10,-4.481 10,-10l0,-646Z"
        style="fill:#67b8a5;" />
</svg>