<svg width="300" height="132" viewBox="0 0 300 132" fill="none" xmlns="http://www.w3.org/2000/svg">
<path d="M54.4613 95.96C54.4613 91.964 51.6533 89.3 46.3253 89.3H37.7573V114.5H46.7573C52.6253 114.5 55.4693 111.656 55.4693 107.3C55.4693 104.528 53.8133 101.864 50.1053 101.504C53.0213 100.964 54.4613 98.552 54.4613 95.96ZM46.0013 93.08C49.1333 93.08 50.2493 94.628 50.2493 96.464C50.2493 98.372 49.0973 99.884 46.5413 99.884H41.8613V93.08H46.0013ZM51.2573 107.048C51.2573 109.1 49.7813 110.756 46.7213 110.756H41.8613V103.376H46.6133C49.8893 103.376 51.2573 104.924 51.2573 107.048Z" fill="#1F4D8F"/>
<path d="M114.676 101.9C114.676 94.196 109.204 88.76 102.004 88.76C94.8035 88.76 89.3315 94.196 89.3315 101.9C89.3315 109.604 94.8035 115.04 102.004 115.04C109.204 115.04 114.676 109.604 114.676 101.9ZM110.464 101.9C110.464 107.444 106.72 111.188 102.004 111.188C97.3235 111.188 93.5435 107.444 93.5435 101.9C93.5435 96.356 97.3235 92.612 102.004 92.612C106.72 92.612 110.464 96.356 110.464 101.9Z" fill="#1F4D8F"/>
<path d="M170.676 101.9C170.676 94.196 165.204 88.76 158.004 88.76C150.804 88.76 145.332 94.196 145.332 101.9C145.332 109.604 150.804 115.04 158.004 115.04C165.204 115.04 170.676 109.604 170.676 101.9ZM166.464 101.9C166.464 107.444 162.72 111.188 158.004 111.188C153.324 111.188 149.544 107.444 149.544 101.9C149.544 96.356 153.324 92.612 158.004 92.612C162.72 92.612 166.464 96.356 166.464 101.9Z" fill="#1F4D8F"/>
<path d="M209.422 102.548L219.898 114.5H225.37L213.742 101.288L224.47 89.3H219.574L209.422 100.82V89.3H205.318V114.5H209.422V102.548Z" fill="#1F4D8F"/>
<path d="M270.184 115.04C275.44 115.04 279.112 111.908 279.112 107.228C279.112 97.508 266.152 101.828 266.152 95.78C266.152 93.62 267.88 92.36 270.22 92.36C272.92 92.36 274.612 93.944 275.008 96.248L279.004 95.528C278.356 91.568 275.116 88.76 270.328 88.76C265.504 88.76 261.976 91.676 261.976 96.14C261.976 105.824 274.9 101.54 274.9 107.66C274.9 109.928 273.064 111.476 270.292 111.476C267.808 111.476 265.432 110.144 265 107.588L261.004 108.452C261.724 112.628 265.684 115.04 270.184 115.04Z" fill="#1F4D8F"/>
<path fill-rule="evenodd" clip-rule="evenodd" d="M2 0H226C226.53 0 227.039 0.210714 227.414 0.585786L243.414 16.5858C243.789 16.9609 244 17.4696 244 18V56H282C282.53 56 283.039 56.2107 283.414 56.5858L299.414 72.5858C299.789 72.9609 300 73.4696 300 74V130C300 131.105 299.105 132 298 132H18C17.4696 132 16.9609 131.789 16.5858 131.414L0.585786 115.414C0.210714 115.039 0 114.53 0 114V2C0 0.89543 0.89543 0 2 0ZM244 60V72H293.172L281.172 60H244ZM296 76H20V128H296V76ZM16 125.172V74.8284L4 62.8284V113.172L16 125.172ZM4 57.1716L16 69.1716V18.8284L4 6.82843V57.1716ZM6.82843 4H225.172L237.172 16H18.8284L6.82843 4ZM20 20V72H240V20H20Z" fill="#1F4D8F"/>
<path d="M57.217 39.636C55.453 35.208 51.601 32.76 46.453 32.76C39.325 32.76 34.105 38.16 34.105 45.9C34.105 53.676 39.325 59.04 46.561 59.04C53.617 59.04 57.937 54.036 58.081 46.476V45.108H46.669V48.852H53.689C53.329 52.272 51.097 55.188 46.561 55.188C41.557 55.188 38.281 51.156 38.281 45.9C38.281 40.644 41.629 36.612 46.597 36.612C50.305 36.612 52.465 38.988 53.257 41.112L57.217 39.636Z" fill="#1F4D8F"/>
<path d="M114.676 45.9C114.676 38.196 109.204 32.76 102.004 32.76C94.8035 32.76 89.3315 38.196 89.3315 45.9C89.3315 53.604 94.8035 59.04 102.004 59.04C109.204 59.04 114.676 53.604 114.676 45.9ZM110.464 45.9C110.464 51.444 106.72 55.188 102.004 55.188C97.3235 55.188 93.5435 51.444 93.5435 45.9C93.5435 40.356 97.3235 36.612 102.004 36.612C106.72 36.612 110.464 40.356 110.464 45.9Z" fill="#1F4D8F"/>
<path d="M170.676 45.9C170.676 38.196 165.204 32.76 158.004 32.76C150.804 32.76 145.332 38.196 145.332 45.9C145.332 53.604 150.804 59.04 158.004 59.04C165.204 59.04 170.676 53.604 170.676 45.9ZM166.464 45.9C166.464 51.444 162.72 55.188 158.004 55.188C153.324 55.188 149.544 51.444 149.544 45.9C149.544 40.356 153.324 36.612 158.004 36.612C162.72 36.612 166.464 40.356 166.464 45.9Z" fill="#1F4D8F"/>
<path d="M225.182 45.9C225.182 38.304 219.998 33.3 211.754 33.3H204.158V58.5H211.178C218.81 58.5 225.182 55.044 225.182 45.9ZM220.934 45.9C220.934 48.6 220.142 50.76 218.522 52.38C216.902 53.964 214.706 54.756 211.934 54.756H208.262V37.08H211.934C217.478 37.08 220.934 40.5 220.934 45.9Z" fill="#1F4D8F"/>
</svg>
