<?xml version="1.0" encoding="utf-8"?>
<!-- Generator: Adobe Illustrator 24.0.3, SVG Export Plug-In . SVG Version: 6.00 Build 0)  -->
<svg version="1.1" id="Layer_1" xmlns="http://www.w3.org/2000/svg" xmlns:xlink="http://www.w3.org/1999/xlink" x="0px" y="0px"
	 viewBox="0 0 188.06941 26" enable-background="new 0 0 188.06941 26" xml:space="preserve">
<g id="LOGO-" transform="translate(180.000000, 32.000000)">
	<polyline id="Fill-1" fill-rule="evenodd" clip-rule="evenodd" fill="#33475B" points="-170.47276,-27.82948 -170.47276,-21.14619 
		-176.93239,-21.14619 -176.93239,-27.82948 -180,-27.82948 -180,-11.87717 -176.93239,-11.87717 -176.93239,-18.34233 
		-170.47276,-18.34233 -170.47276,-11.87717 -167.40607,-11.87717 -167.40607,-27.82948 	"/>
	<path id="Fill-2" fill-rule="evenodd" clip-rule="evenodd" fill="#33475B" d="M-157.72446-17.30143
		c0,1.39427-1.14253,2.52846-2.54474,2.52846c-1.40266,0-2.54445-1.1342-2.54445-2.52846v-7.16968h-2.91322v7.16968
		c0,2.99122,2.44829,5.42426,5.45767,5.42426c3.00877,0,5.45706-2.43304,5.45706-5.42426v-7.16968h-2.91232"/>
	<path id="Fill-3" fill-rule="evenodd" clip-rule="evenodd" fill="#33475B" d="M-137.17299-23.16351
		c0-1.40061,0.94243-1.84464,1.97409-1.84464c0.83084,0,1.93011,0.62202,2.64749,1.37777l1.83928-2.13295
		c-0.9192-1.22162-2.78113-2.06615-4.30699-2.06615c-3.05188,0-5.25087,1.75529-5.25087,4.66597
		c0,5.39875,6.70941,3.68742,6.70941,6.70972c0,0.93217-0.91965,1.75486-1.97394,1.75486
		c-1.66095,0-2.19971-0.79971-2.96236-1.64424l-2.04213,2.08813c1.30212,1.57759,2.91708,2.37787,4.84705,2.37787
		c2.89445,0,5.2281-1.77755,5.2281-4.55507C-130.46385-22.43074-137.17299-20.56426-137.17299-23.16351"/>
	<path id="Fill-4" fill-rule="evenodd" clip-rule="evenodd" fill="#33475B" d="M-95.33423-14.49811
		c-1.63459,0-2.09857-0.7225-2.09857-1.82978v-4.90153h2.5407v-2.48465h-2.5407v-3.27582l-2.80562,1.28739v9.98463
		c0,2.55287,1.7229,3.8407,4.0864,3.8407c0.35352,0,0.84022-0.02323,1.10573-0.09028l0.68504-2.57493
		C-94.67047-14.52061-95.02386-14.49811-95.33423-14.49811"/>
	<path id="Fill-5" fill-rule="evenodd" clip-rule="evenodd" fill="#33475B" d="M-147.13966-14.67793
		c-1.73293,0-3.1375-1.41323-3.1375-3.15637c0-1.74329,1.40457-3.15637,3.1375-3.15637c1.7325,0,3.13721,1.41308,3.13721,3.15637
		C-144.00246-16.09116-145.40717-14.67793-147.13966-14.67793 M-147.12254-23.86074c-1.36777,0-2.32245,0.39937-3.24434,1.30976
		v-5.2785h-2.76605v9.7828c0,3.66179,2.63141,6.16952,5.58789,6.16952c3.2867,0,6.16644-2.55236,6.16644-5.99157
		C-141.3786-21.26418-144.03412-23.86074-147.12254-23.86074"/>
	<path id="Fill-6" fill-rule="evenodd" clip-rule="evenodd" fill="#33475B" d="M-119.65415-17.67429
		c0,1.74312-1.40469,3.15634-3.13731,3.15634c-1.73277,0-3.13732-1.41321-3.13732-3.15634
		c0-1.74327,1.40456-3.15634,3.13732-3.15634C-121.05884-20.83063-119.65415-19.41755-119.65415-17.67429 M-117.03033-17.63999
		c0-3.43904-2.87971-5.99152-6.16622-5.99152c-2.95674,0-5.58812,2.50785-5.58812,6.16946v9.78285h2.76617v-5.2786
		c0.92187,0.91038,1.87654,1.30989,3.24429,1.30989C-119.68581-11.6479-117.03033-14.24443-117.03033-17.63999"/>
	<path id="Fill-7" fill-rule="evenodd" clip-rule="evenodd" fill="#FF7A59" d="M-108.20373-14.49478
		c-1.74625,0-3.16212-1.45555-3.16212-3.25109c0-1.79554,1.41588-3.25124,3.16212-3.25124c1.74609,0,3.16183,1.4557,3.16183,3.25124
		C-105.0419-15.95033-106.45763-14.49478-108.20373-14.49478 M-107.25712-26.89696c0.73408-0.35661,1.24854-1.12032,1.24854-2.00665
		v-0.06681c0-1.22306-0.97347-2.22386-2.1628-2.22386h-0.06497c-1.18948,0-2.16295,1.0008-2.16295,2.22386v0.06681
		c0,0.88634,0.5146,1.65004,1.24867,2.00665v2.8921c-1.09303,0.17356-2.09177,0.63721-2.91594,1.31941l-7.7225-6.17704
		c0.05083-0.20102,0.08649-0.40828,0.08678-0.62578c0.00173-1.38548-1.08913-2.50995-2.43657-2.51173
		c-1.34729-0.00178-2.44104,1.11987-2.44263,2.50535c-0.00173,1.38533,1.08913,2.5098,2.43656,2.51158
		c0.43909,0.0006,0.8454-0.12768,1.20175-0.33598l7.5966,6.07638c-0.64614,1.00273-1.02444,2.20382-1.02444,3.4968
		c0,1.3537,0.41584,2.60571,1.11872,3.63561l-2.31022,2.37544c-0.18266-0.05627-0.37224-0.09576-0.57294-0.09576
		c-1.10703,0-2.0047,0.92301-2.0047,2.06144s0.89767,2.06129,2.0047,2.06129c1.10732,0,2.00484-0.92286,2.00484-2.06129
		c0-0.20622-0.03826-0.4013-0.09312-0.58896l2.28524-2.34976c1.03729,0.81433,2.32899,1.30323,3.73477,1.30323
		c3.40599,0,6.16714-2.8391,6.16714-6.34124c0-3.17047-2.26517-5.78969-5.22054-6.25914V-26.89696z"/>
	<path id="Fill-10" fill-rule="evenodd" clip-rule="evenodd" fill="#33475B" d="M-83.35149-17.55514h7.31936l-3.65968-8.47183
		L-83.35149-17.55514z M-85.79123-11.87717h-1.85326l7.17857-15.95232h1.64215l7.13159,15.95232h-1.87674l-1.82977-4.19087h-8.58614
		L-85.79123-11.87717z"/>
	<path id="Fill-11" fill-rule="evenodd" clip-rule="evenodd" fill="#33475B" d="M-62.11926-19.9489
		c-0.26702-0.43013-0.65548-0.78441-1.16521-1.06314c-0.51018-0.27843-1.06332-0.41802-1.65958-0.41802
		c-0.64368,0-1.22413,0.11552-1.74191,0.34641c-0.51794,0.23089-0.96143,0.54943-1.33005,0.95549
		c-0.36891,0.40621-0.65145,0.88403-0.84747,1.43347c-0.19632,0.54959-0.29418,1.14308-0.29418,1.78003
		c0,0.6371,0.09786,1.22665,0.29418,1.76791c0.19601,0.54171,0.47453,1.01545,0.83568,1.42136
		c0.36086,0.40621,0.80047,0.72506,1.31826,0.9558c0.51793,0.23104,1.09838,0.34641,1.74191,0.34641
		c0.70634,0,1.30245-0.1352,1.78906-0.40621c0.48631-0.27055,0.88641-0.62105,1.20056-1.05118l1.20057,0.9078
		c-0.4708,0.58956-1.04751,1.05951-1.73028,1.4097c-0.68263,0.35004-1.50279,0.52551-2.45991,0.52551
		c-0.89445,0-1.70283-0.14731-2.42453-0.44194c-0.72202-0.29448-1.33811-0.70477-1.84784-1.23044
		c-0.51019-0.52551-0.90639-1.14671-1.18878-1.86345c-0.28254-0.71673-0.42381-1.49691-0.42381-2.34127
		c0-0.84406,0.14127-1.62454,0.42381-2.34142c0.28239-0.71673,0.6786-1.33793,1.18878-1.86345
		c0.50973-0.52567,1.12582-0.93551,1.84784-1.23029c0.7217-0.29478,1.53008-0.44209,2.42453-0.44209
		c0.73753,0,1.48669,0.16351,2.24807,0.48978c0.7611,0.32657,1.37704,0.80848,1.84799,1.44543L-62.11926-19.9489"/>
	<path id="Fill-12" fill-rule="evenodd" clip-rule="evenodd" fill="#33475B" d="M-52.81593-16.91467
		c-0.6432,0-1.29034,0.02801-1.94127,0.08357c-0.65122,0.05602-1.24056,0.16714-1.76891,0.33444
		c-0.52848,0.16715-0.96132,0.4103-1.29806,0.72869c-0.33704,0.31885-0.50549,0.74065-0.50549,1.26617
		c0,0.39834,0.07251,0.73278,0.21824,1.00349c0.14545,0.27101,0.34083,0.48978,0.58586,0.65693
		c0.24487,0.1673,0.51698,0.28676,0.81557,0.35837c0.29876,0.07176,0.601,0.1075,0.90746,0.1075
		c0.55135,0,1.0414-0.09917,1.47045-0.29856c0.42847-0.19894,0.78866-0.46965,1.07969-0.81227
		c0.29074-0.34232,0.5129-0.73657,0.66621-1.1826c0.15302-0.44572,0.22974-0.91582,0.22974-1.4097v-0.83604H-52.81593z
		 M-52.35645-18.56055c0-0.96427-0.24503-1.68358-0.73523-2.15807c-0.49035-0.47419-1.20242-0.71143-2.13637-0.71143
		c-0.64335,0-1.2407,0.11946-1.79205,0.35822c-0.55134,0.23891-1.01882,0.55776-1.40143,0.95564l-0.87296-1.0751
		c0.44405-0.46177,1.02975-0.84391,1.7574-1.14671c0.72721-0.30235,1.55081-0.4539,2.46976-0.4539
		c0.58177,0,1.12584,0.08357,1.63103,0.25087c0.50548,0.16715,0.94967,0.41817,1.33271,0.75261
		c0.38247,0.33445,0.68121,0.7567,0.89581,1.26617c0.21445,0.50992,0.32174,1.10705,0.32174,1.79183v4.89753
		c0,0.43013,0.015,0.87631,0.04586,1.33793c0.03043,0.46223,0.07658,0.85224,0.13787,1.17079h-1.40129
		c-0.04615-0.27055-0.08458-0.56533-0.11502-0.88403c-0.03086-0.3184-0.04601-0.62892-0.04601-0.93172h-0.04585
		c-0.49049,0.74883-1.04533,1.28646-1.66569,1.61273c-0.62034,0.32612-1.36678,0.48963-2.24001,0.48963
		c-0.41333,0-0.83844-0.05995-1.27492-0.17941c-0.43648-0.11991-0.83496-0.31552-1.19456-0.58729
		c-0.36018-0.27176-0.65879-0.62332-0.89609-1.05496c-0.23761-0.43149-0.35611-0.95867-0.35611-1.58199
		c0-0.86299,0.21037-1.54626,0.63185-2.04937c0.42104-0.50326,0.98389-0.87888,1.68854-1.12673
		c0.70421-0.24784,1.51236-0.40757,2.42375-0.47964c0.91109-0.07161,1.85699-0.1078,2.83724-0.1078V-18.56055z"/>
	<path id="Fill-13" fill-rule="evenodd" clip-rule="evenodd" fill="#33475B" d="M-46.57652-16.68507
		c0,0.59693,0.0894,1.15938,0.26777,1.68735c0.17864,0.52812,0.43536,0.98727,0.77017,1.37732
		c0.33481,0.39034,0.74768,0.69673,1.23879,0.91846c0.49096,0.22201,1.04911,0.33287,1.67403,0.33287
		c0.58021,0,1.11587-0.11086,1.60698-0.33287c0.4911-0.22172,0.91544-0.52419,1.27188-0.90682
		c0.35785-0.38234,0.63651-0.838,0.83736-1.36597c0.20086-0.52812,0.30128-1.09813,0.30128-1.71034
		c0-0.61206-0.10043-1.18237-0.30128-1.71048c-0.20085-0.52797-0.47951-0.98713-0.83736-1.37747
		c-0.35645-0.39019-0.78078-0.6963-1.27188-0.91817c-0.4911-0.22187-1.02677-0.33287-1.60698-0.33287
		c-0.62492,0-1.18306,0.11479-1.67403,0.34422c-0.49111,0.22958-0.90398,0.53961-1.23879,0.92995
		c-0.33481,0.3902-0.59153,0.84921-0.77017,1.37732C-46.48712-17.84459-46.57652-17.28214-46.57652-16.68507z M-38.83173-13.12661
		c-0.44556,0.68859-1.02691,1.20928-1.74065,1.56107c-0.71432,0.35179-1.45082,0.52797-2.20969,0.52797
		c-0.81855,0-1.55888-0.14563-2.22085-0.43617c-0.6624-0.29054-1.22762-0.68873-1.69637-1.19386
		c-0.46876-0.50498-0.83355-1.10191-1.09367-1.7905c-0.26054-0.68888-0.39054-1.431-0.39054-2.22696
		c0-0.79567,0.13-1.53823,0.39054-2.22696c0.26012-0.68873,0.62491-1.28566,1.09367-1.79065
		c0.46875-0.50513,1.03397-0.90289,1.69637-1.19386c0.66197-0.29054,1.4023-0.43617,2.22085-0.43617
		c0.75887,0,1.49537,0.18011,2.20969,0.53946c0.71374,0.35979,1.29509,0.89183,1.74065,1.59555h0.04526v-8.47139h1.51772v17.3561
		h-1.51772v-1.81363H-38.83173z"/>
	<path id="Fill-14" fill-rule="evenodd" clip-rule="evenodd" fill="#33475B" d="M-24.63178-17.77493
		c-0.04812-1.05103-0.38498-1.9231-1.00906-2.61591c-0.6256-0.69281-1.51435-1.03922-2.66929-1.03922
		c-0.53836,0-1.03613,0.09962-1.4948,0.29841c-0.46017,0.19955-0.86319,0.4701-1.21057,0.81242
		c-0.34889,0.34262-0.6256,0.73293-0.83012,1.17064c-0.20602,0.4383-0.32483,0.89599-0.35641,1.37366H-24.63178z
		 M-22.99562-17.24926c0,0.11158,0,0.23104,0,0.35837c0,0.12778-0.00752,0.26298-0.02256,0.40621h-9.2079
		c0.01504,0.55761,0.12632,1.08328,0.33235,1.57684c0.20603,0.49387,0.49025,0.92385,0.85417,1.29009
		c0.36392,0.36654,0.791,0.65693,1.28125,0.87207c0.49025,0.21499,1.0211,0.32248,1.58954,0.32248
		c0.83913,0,1.56248-0.19485,2.17153-0.58532c0.60905-0.39001,1.07222-0.83998,1.38803-1.34989l1.21057,0.95564
		c-0.66468,0.84436-1.39554,1.44967-2.19407,1.81575c-0.80004,0.36609-1.65872,0.54943-2.57605,0.54943
		c-0.82258,0-1.58503-0.14731-2.28881-0.44194c-0.7053-0.29448-1.30983-0.70477-1.81662-1.23044
		c-0.50529-0.52551-0.9053-1.14671-1.19704-1.86345c-0.29325-0.71673-0.43912-1.49691-0.43912-2.34127
		c0-0.84406,0.14136-1.62454,0.42709-2.34142c0.28422-0.71673,0.67973-1.33793,1.18651-1.86345
		c0.50529-0.52567,1.09929-0.93551,1.77903-1.23029c0.67972-0.29478,1.4166-0.44209,2.2076-0.44209
		c0.86922,0,1.63767,0.14731,2.30086,0.44209c0.66468,0.29478,1.21809,0.69281,1.66172,1.1944
		c0.44213,0.50175,0.77899,1.08706,1.00908,1.7561C-23.10991-18.73042-22.99562-18.01369-22.99562-17.24926z"/>
	<path id="Fill-15" fill-rule="evenodd" clip-rule="evenodd" fill="#33475B" d="M-17.34743-22.21205
		c0.65401-0.38662,1.38285-0.57986,2.18504-0.57986c0.29932,0,0.61061,0.03055,0.93239,0.09093
		c0.32327,0.06067,0.63755,0.1784,0.94585,0.35247c0.3068,0.17451,0.58966,0.40564,0.85007,0.69356
		c0.2589,0.28806,0.48339,0.6594,0.67197,1.11418c0.37864-0.72771,0.89347-1.28465,1.54748-1.67128
		c0.65253-0.38662,1.42927-0.57986,2.32574-0.57986c1.40082,0,2.45294,0.4019,3.15334,1.20511
		c0.70041,0.80365,1.05062,1.86452,1.05062,3.18347v6.52616h-1.60586v-5.88938c0-1.12168-0.21701-2.02375-0.64953-2.70606
		c-0.43252-0.68217-1.16884-1.02311-2.20749-1.02311c-0.58368,0-1.07457,0.1137-1.47715,0.34094
		c-0.40109,0.22739-0.72436,0.52698-0.96831,0.89818c-0.24395,0.37164-0.42054,0.79226-0.53129,1.26203
		c-0.10925,0.4702-0.16462,0.9551-0.16462,1.45541v5.66199h-1.60586v-6.2077c0-0.51516-0.03891-0.98536-0.11824-1.40988
		c-0.07931-0.42423-0.21701-0.78448-0.41306-1.08018c-0.19755-0.29555-0.46844-0.52294-0.81565-0.68217
		c-0.34571-0.15909-0.78721-0.23863-1.3215-0.23863c-0.37864,0-0.76028,0.08344-1.1464,0.25002
		c-0.38463,0.16701-0.73184,0.42063-1.03864,0.76171s-0.55524,0.7731-0.74382,1.29618
		c-0.18857,0.52294-0.28286,1.14084-0.28286,1.85328v5.45737h-1.60586v-8.29975c0-0.28777-0.00897-0.6594-0.02394-1.11418
		c-0.01646-0.45493-0.04041-0.86403-0.07183-1.22803h1.53551c0.03143,0.2882,0.05538,0.60652,0.07185,0.9551
		c0.01496,0.34887,0.02244,0.63664,0.02244,0.86403h0.04789C-18.48486-21.32137-17.99995-21.82543-17.34743-22.21205"/>
	<path id="Fill-16" fill-rule="evenodd" clip-rule="evenodd" fill="#33475B" d="M2.77889-13.05241h0.04854l3.47039-8.8999h1.7716
		L2.49222-8.68121C2.15702-7.87019,1.7308-7.22066,1.21206-6.73234C0.69332-6.24431-0.05293-6-1.02671-6
		c-0.49446,0-0.98135-0.04512-1.45913-0.13522l0.16684-1.397c0.38375,0.12008,0.78266,0.18034,1.19673,0.18034
		c0.55818,0,0.99804-0.16163,1.31657-0.48432c0.32004-0.32327,0.59913-0.78532,0.83878-1.38587l0.90856-2.20802l-4.78696-10.52222
		h1.81862L2.77889-13.05241"/>
</g>
</svg>
