<svg xmlns="http://www.w3.org/2000/svg" xmlns:xlink="http://www.w3.org/1999/xlink" width="200" height="60"
    viewBox="0 0 200 60">
    <style>
        a {
            cursor: pointer
        }
    </style>
    <a xlink:href="/" target="_top">
        <g id="Logo" fill="#FFFFFF">
            <g id="JSR_Eng" transform="translate(-32 -9)">
                <g id="BODY-FLASHES" transform="translate(32 17)">
                    <g id="BODY" transform="translate(0 8)">
                        <g id="LIGHTHOUSE" transform="translate(36.81)" fill="#FFFFFF">
                            <g id="Layer_2" transform="translate(2.734 10.251)">
                                <path d="M.943 5.681l.714 1.446L7.05 4.465l-.713-1.446L.943 5.681z" id="Shape" />
                                <path
                                    d="M2.126 1.85L5.872 3.7l.714-1.447L2.84.403 2.126 1.85zM.582 7.238L8.068 9.42l.451-1.547L1.034 5.69.582 7.238z"
                                    id="Shape" />
                            </g>
                            <path
                                d="M7.158.694a3.13 3.13 0 1 0 0 6.26 3.13 3.13 0 0 0 0-6.26zm0 4.113a.983.983 0 1 1-.001-1.965.983.983 0 0 1 0 1.965z"
                                id="Shape" />
                            <path
                                d="M9.059 6.393C8.869 5.8 8.196 5.32 7.561 5.32h-.744c-.637 0-1.307.483-1.496 1.073L.639 21.018c-.19.594.17 1.074.815 1.074h.923a.808.808 0 0 0 .737-.545l2.395-8.186c.573-1.946.964-3.585 1.59-5.506h.104c.599 1.92.99 3.56 1.563 5.506l2.42 8.186a.807.807 0 0 0 .733.545h1.035c.638 0 1-.483.809-1.074L9.059 6.393z"
                                id="V_1_" />
                        </g>
                        <g id="TEXT_EXPANDED" transform="translate(0 6.6)" fill="#FFFFFF">
                            <g id="Group" transform="translate(0 .608)">
                                <path
                                    d="M1.837 9.72c.793.98 1.69 1.502 2.586 1.502 1.398 0 2.107-.605 2.107-2.482V2.585H1.21V.019h8.387v8.97c0 2.67-1.315 4.882-5.069 4.882-1.502 0-3.275-.585-4.464-2.254L1.837 9.72zM19.614 10.387h-4.11l-.834 3.233h-3.13L15.775.02h3.671l4.236 13.601h-3.255l-.813-3.233zm-.627-2.4l-.313-1.25c-.355-1.357-.73-2.963-1.085-4.382h-.083c-.334 1.44-.71 3.026-1.064 4.381l-.314 1.252h2.86zM24.186.019h3.254l1.628 6.342c.418 1.481.688 2.858 1.084 4.36h.084c.417-1.501.708-2.879 1.105-4.36L32.947.02h3.129L31.988 13.62h-3.693L24.185.02z"
                                    id="Shape" />
                            </g>
                            <g id="Group" transform="translate(52.928)">
                                <path
                                    d="M1.8 10.412c1.022.834 2.294 1.418 3.484 1.418 1.418 0 2.044-.5 2.044-1.314 0-.855-.793-1.127-2.107-1.627l-1.753-.75c-1.522-.565-2.9-1.733-2.9-3.714C.568 2.172 2.612.378 5.554.378c1.648 0 3.296.626 4.527 1.794l-1.564 1.94c-.94-.689-1.793-1.085-2.962-1.085-1.19 0-1.879.459-1.879 1.23 0 .834.919 1.127 2.232 1.606l1.65.711c1.793.667 2.92 1.772 2.92 3.692 0 2.254-1.899 4.214-5.279 4.214a7.854 7.854 0 0 1-5.173-1.96L1.8 10.412zM19.139.377c1.731 0 3.108.834 4.027 1.732l-1.69 1.898c-.646-.584-1.356-.98-2.336-.98-1.92 0-3.338 1.648-3.338 4.38 0 2.796 1.418 4.423 3.462 4.423.981 0 1.753-.48 2.42-1.21l1.69 1.857c-1.126 1.313-2.587 2.002-4.297 2.002-3.505 0-6.425-2.399-6.425-6.968C12.65 3.007 15.508.377 19.139.377zM32.765 14.229l-2.608-4.902H28.55v4.902h-3.067V.627h4.82c2.877 0 5.256 1.002 5.256 4.235 0 2.002-.98 3.276-2.42 3.922l3.067 5.444h-3.442v.001zM28.55 6.887h1.502c1.627 0 2.482-.689 2.482-2.024 0-1.334-.856-1.793-2.482-1.793H28.55v3.817zM38.087 11.642h3.17V3.214h-3.17V.627h9.43v2.587h-3.172v8.428h3.171v2.587h-9.429v-2.587zM50.607.627h4.964c2.942 0 5.32 1.085 5.32 4.381 0 3.193-2.44 4.61-5.32 4.61h-1.897v4.611h-3.067V.627zm4.777 6.551c1.689 0 2.481-.751 2.481-2.17 0-1.417-.855-1.939-2.481-1.939h-1.711v4.11h1.71zM66.297 3.214h-4.068V.627h11.223v2.587h-4.068v11.014h-3.088V3.214z"
                                    id="Shape" />
                            </g>
                            <g id="Group" transform="translate(128.973 .608)">
                                <path
                                    d="M2.162 10.04c1.107 0 1.862.835 1.862 1.894 0 1.06-.755 1.88-1.862 1.88-1.109 0-1.863-.82-1.863-1.88s.754-1.895 1.863-1.895z"
                                    id="Shape" />
                                <path
                                    d="M8.437 13.625h9.26v-2.54h-3.114V2.806h3.114V.267h-9.26v2.54h3.114v8.277H8.437v2.541z"
                                    id="INFO" />
                                <path
                                    d="M20.975 13.625h2.89V8.892c0-1.577-.288-3.36-.431-4.835h.082l1.147 2.91 2.828 6.658h3.073V.267h-2.889v4.732c0 1.558.287 3.443.43 4.856h-.082l-1.147-2.93L24.049.267h-3.074v13.358zM34.539 13.625h3.011V8.442h4.938V5.9H37.55V2.807h5.798V.267h-8.81v13.358zM50.175 13.87c3.176 0 5.368-2.622 5.368-6.986 0-4.343-2.192-6.863-5.368-6.863s-5.368 2.5-5.368 6.863c0 4.364 2.192 6.987 5.368 6.987zm0-2.601c-1.393 0-2.274-1.7-2.274-4.385 0-2.663.88-4.261 2.274-4.261 1.393 0 2.274 1.598 2.274 4.261 0 2.684-.88 4.385-2.274 4.385z"
                                    id="Path" />
                            </g>
                        </g>
                    </g>
                    <g id="FLASHES" transform="translate(29.81)" fill="#FFFFFF">
                        <path
                            d="M20.692 10.994l-.545-.39 2.488-.962-.422-.596 5.555-.482.043.13-2.263.89.263.486-2.997.735.46.578-4.145.561-.057-.114 1.62-.836"
                            id="flash4">
                            <animate attributeName="opacity" from="1" to="0" dur="1s" begin="overlay.mouseover"
                                end="overlay.mouseout" repeatCount="indefinite" />
                            <animateMotion from="0,0" to="10,-6" dur="1s" begin="overlay.mouseover"
                                end="overlay.mouseout" repeatCount="indefinite" />
                        </path>
                        <path
                            d="M20.487 5.088l.457.367-3.899 2.74-.091-.094 1.39-1.895-.725.043 1.547-1.778-.4-.487L23.55.367l.09.094-1.858 2.553.586-.002-1.88 2.076"
                            id="flash3">
                            <animate attributeName="opacity" from="1" to="0" dur="1s" begin="overlay.mouseover"
                                end="overlay.mouseout" repeatCount="indefinite" />
                            <animateMotion from="0,0" to="10,-10" dur="1s" begin="overlay.mouseover"
                                end="overlay.mouseout" repeatCount="indefinite" />
                        </path>
                        <path
                            d="M7.903 5.088l-.456.367 3.898 2.74.091-.094-1.39-1.895.725.043L9.224 4.47l.4-.487L4.84.367l-.09.094 1.858 2.553-.586-.002 1.88 2.076"
                            id="flash2">
                            <animate attributeName="opacity" from="1" to="0" dur="1s" begin="overlay.mouseover"
                                end="overlay.mouseout" repeatCount="indefinite" />
                            <animateMotion from="0,0" to="-10,-10" dur="1s" begin="overlay.mouseover"
                                end="overlay.mouseout" repeatCount="indefinite" />
                        </path>
                        <path
                            d="M7.699 10.994l.545-.39-2.488-.962.422-.596-5.555-.482-.043.13 2.263.89-.263.486 2.997.735-.46.578 4.145.561.058-.114-1.621-.836"
                            id="flash1">
                            <animate attributeName="opacity" from="1" to="0" dur="1s" begin="overlay.mouseover"
                                end="overlay.mouseout" repeatCount="indefinite" />
                            <animateMotion from="0,0" to="-10,-6" dur="1s" begin="overlay.mouseover"
                                end="overlay.mouseout" repeatCount="indefinite" />
                        </path>
                    </g>
                </g>
            </g>
        </g>
        <path id="overlay" pointer-events="all" fill="none" d="M0 0h171v60H0z" />
    </a>
</svg>