<svg width="122" height="32" viewBox="0 0 122 32" fill="none" xmlns="http://www.w3.org/2000/svg">
    <path
        d="M42.3419 7.91172H40.4793C40.2867 7.91172 40.1582 8.04011 40.1582 8.23269V23.7031C40.1582 23.8957 40.2867 24.0241 40.4793 24.0241H42.3419C42.5346 24.0241 42.6631 23.8957 42.6631 23.7031V8.23269C42.6631 8.04011 42.5346 7.91172 42.3419 7.91172Z"
        fill="#5846F6" />
    <path
        d="M57.1142 12.02H55.2516C55.0589 12.02 54.9304 12.1484 54.9304 12.341V18.6961C54.9304 19.7873 54.6735 20.6218 54.0955 21.1354C53.5817 21.7131 52.8109 21.9699 51.9117 21.9699C51.0126 21.9699 50.2418 21.7131 49.728 21.1354C49.2142 20.5577 48.893 19.7232 48.893 18.6961V12.341C48.893 12.1484 48.7646 12.02 48.5719 12.02H46.7735C46.5808 12.02 46.4524 12.1484 46.4524 12.341V19.0812C46.4524 20.1725 46.6451 21.0712 47.0947 21.8415C47.5443 22.6118 48.1223 23.1896 48.8288 23.5747C49.5353 23.9599 50.4345 24.1524 51.3979 24.1524C52.1044 24.1524 52.8109 24.0241 53.389 23.7031C54.0313 23.4463 54.5451 23.0612 54.9304 22.5476V23.7031C54.9304 23.8957 55.0589 24.0241 55.2516 24.0241H57.1142C57.3069 24.0241 57.4353 23.8957 57.4353 23.7031V12.341C57.4353 12.1484 57.3069 12.02 57.1142 12.02Z"
        fill="#5846F6" />
    <path
        d="M77.7955 12.4052C76.7678 11.8917 75.6117 11.6991 74.263 11.8917H74.1987C72.9142 12.2768 71.9508 12.8545 71.3727 13.7532C71.2443 13.9458 70.9874 13.9458 70.8589 13.7532C70.4735 13.1755 69.9597 12.7262 69.3817 12.4052C68.6109 12.02 67.776 11.8275 66.8126 11.8275C66.1061 11.8275 65.4638 11.9559 64.8215 12.2126C64.1792 12.4694 63.6654 12.8545 63.28 13.3681V12.341C63.28 12.1484 63.1516 12.02 62.9589 12.02H61.0321C60.8394 12.02 60.7109 12.1484 60.7109 12.341V23.7031C60.7109 23.8957 60.8394 24.0241 61.0321 24.0241H62.8947C63.0874 24.0241 63.2158 23.8957 63.2158 23.7031V17.2838C63.2158 16.1926 63.4727 15.3581 64.0508 14.8445C64.5646 14.2668 65.3353 14.01 66.2345 14.01C67.1337 14.01 67.9044 14.2668 68.4182 14.8445C68.9321 15.4222 69.2532 16.2568 69.2532 17.2838V23.7031C69.2532 23.8957 69.3817 24.0241 69.5743 24.0241H71.3727C71.5654 24.0241 71.6939 23.8957 71.6939 23.7031V17.2838C71.6939 16.1926 71.9508 15.3581 72.5288 14.8445C73.1069 14.331 73.8134 14.01 74.7126 14.01C75.6117 14.01 76.3825 14.2668 76.8963 14.8445C77.4101 15.4222 77.7313 16.2568 77.7313 17.2838V23.7031C77.7313 23.8957 77.8597 24.0241 78.0524 24.0241H79.8508C80.0434 24.0241 80.1719 23.8957 80.1719 23.7031V16.8987C80.1719 15.8074 79.9792 14.9087 79.5296 14.1384C79.08 13.3681 78.502 12.7904 77.7955 12.4052Z"
        fill="#5846F6" />
    <path
        d="M91.5402 12.5336C90.641 12.02 89.6134 11.7633 88.5215 11.7633C87.3654 11.7633 86.2736 12.02 85.3744 12.5336C84.4752 13.0471 83.7687 13.7532 83.2549 14.7161C82.741 15.679 82.4841 16.7061 82.4841 17.99C82.4841 19.2096 82.741 20.3009 83.2549 21.2638C83.7687 22.2267 84.4752 22.9328 85.3744 23.4463C86.2736 23.9599 87.3012 24.2166 88.4573 24.2166C89.8703 24.2166 91.0264 23.8957 91.9898 23.1896C92.8248 22.6118 93.4028 21.8415 93.7882 20.9428C93.8524 20.7502 93.724 20.4935 93.467 20.4935H91.4118C91.2833 20.4935 91.2191 20.5577 91.1549 20.686C90.5768 21.7131 89.6776 22.1625 88.3931 22.1625C87.4939 22.1625 86.6589 21.8415 86.0166 21.2638C85.4386 20.7502 85.1175 20.1083 84.989 19.338C84.989 19.1454 85.1175 18.9528 85.3101 18.9528H93.8524C94.0451 18.9528 94.1736 18.8245 94.1736 18.6961C94.2378 18.3751 94.2378 18.1183 94.2378 17.7332C94.2378 16.5777 93.9809 15.5506 93.467 14.6519C93.0817 13.7532 92.3752 13.0471 91.5402 12.5336ZM91.4118 16.8987H85.5028C85.3102 16.8987 85.1175 16.7061 85.1817 16.5135C85.3102 15.7432 85.6955 15.1655 86.2093 14.6519C86.7874 14.1384 87.5581 13.8174 88.3931 13.8174C89.3565 13.8174 90.1272 14.0742 90.7695 14.6519C91.3475 15.1013 91.6687 15.7432 91.7329 16.5135C91.7329 16.7703 91.6045 16.8987 91.4118 16.8987Z"
        fill="#5846F6" />
    <path
        d="M105.349 12.4052C104.578 12.0201 103.743 11.8275 102.78 11.8275C102.074 11.8275 101.367 11.9559 100.789 12.2126C100.147 12.4694 99.6329 12.8546 99.2476 13.3681V12.341C99.2476 12.1484 99.1191 12.02 98.9264 12.02H97.0638C96.8711 12.02 96.7427 12.1484 96.7427 12.341V23.7031C96.7427 23.8957 96.8711 24.0241 97.0638 24.0241H98.9264C99.1191 24.0241 99.2476 23.8957 99.2476 23.7031V17.2838C99.2476 16.1926 99.5045 15.3581 100.083 14.8445C100.596 14.2668 101.367 14.01 102.266 14.01C103.165 14.01 103.936 14.2668 104.45 14.8445C104.964 15.4223 105.285 16.2568 105.285 17.2838V23.7031C105.285 23.8957 105.413 24.0241 105.606 24.0241H107.404C107.597 24.0241 107.726 23.8957 107.726 23.7031V16.8987C107.726 15.8074 107.533 14.9087 107.083 14.1384C106.698 13.3681 106.12 12.7904 105.349 12.4052Z"
        fill="#5846F6" />
    <path
        d="M119.158 14.5877C118.388 14.0742 117.424 13.8174 116.204 13.8174C115.497 13.8174 114.855 13.9458 114.277 14.2026C113.956 14.331 113.635 14.5236 113.442 14.7161C113.249 14.9087 112.928 14.7161 112.928 14.4594V11.2497C112.928 11.0572 113.057 10.9288 113.249 10.9288H118.516C118.58 10.9288 118.709 10.8646 118.773 10.8646L120.314 9.32395C120.507 9.13137 120.379 8.74622 120.057 8.74622H110.937C110.744 8.74622 110.616 8.8746 110.616 9.06718V17.6048C110.616 17.7974 110.744 17.9258 110.937 17.9258H112.735C112.864 17.9258 112.992 17.8616 113.057 17.7332C113.249 17.2196 113.57 16.7703 114.02 16.5135C114.534 16.1284 115.112 16 115.818 16C116.846 16 117.617 16.2567 118.131 16.8345C118.644 17.4122 118.901 18.1825 118.901 19.2096C118.901 20.2367 118.644 21.0712 118.131 21.7131C117.617 22.355 116.846 22.676 115.818 22.676C114.983 22.676 114.277 22.4834 113.763 22.0983C113.249 21.7773 112.928 21.2638 112.735 20.686C112.671 20.5577 112.607 20.4293 112.414 20.4293C111.965 20.4293 111.13 20.4293 110.616 20.4293C110.423 20.4293 110.231 20.6218 110.295 20.8144C110.552 21.9057 111.066 22.8686 111.965 23.5747C112.928 24.345 114.213 24.7302 115.754 24.7302C116.974 24.7302 117.938 24.4734 118.773 24.0241C119.608 23.5747 120.186 22.8686 120.635 22.0341C121.021 21.1996 121.278 20.2367 121.278 19.1454C121.278 18.2467 121.085 17.4122 120.764 16.6419C120.443 15.8716 119.865 15.1013 119.158 14.5877Z"
        fill="#5846F6" />
    <path
        d="M13.1827 21.0712C13.2469 20.8144 13.1827 20.4935 12.99 20.3009L8.55833 15.8716C8.10874 15.4223 8.10874 14.7161 8.55833 14.2668L19.9908 2.84052C20.1193 2.71214 20.1193 2.45537 19.9908 2.32698L18.7705 1.10732C17.2933 -0.369107 14.8526 -0.369107 13.3112 1.10732L1.10793 13.3039C-0.369309 14.7803 -0.369309 17.2197 1.10793 18.7603L10.2925 27.9398C10.4852 28.1324 10.8063 28.0682 10.9348 27.8114L13.1827 21.0712Z"
        fill="#5846F6" />
    <path
        d="M21.147 4.25276L18.8991 10.9288C18.8349 11.1856 18.8991 11.5065 19.0918 11.6991L23.5235 16.1284C23.9731 16.5777 23.9731 17.2839 23.5235 17.7332L12.1552 29.1595C12.0267 29.2879 12.0267 29.5446 12.1552 29.673L13.3755 30.8927C14.8527 32.3691 17.2934 32.3691 18.8349 30.8927L31.0381 18.6961C32.5153 17.2197 32.5153 14.7803 31.0381 13.2397L21.7893 4.12437C21.5966 3.8676 21.2755 3.99599 21.147 4.25276Z"
        fill="#5846F6" />
</svg>