<svg width="290" height="102" fill="none" xmlns="http://www.w3.org/2000/svg">
    <path
        d="M83.968 28.12l-1.776-.336v-1.68h3.912c.256 0 .752-.016 1.488-.048a36.933 36.933 0 012.52-.096c1.728 0 3.088.208 4.08.624.992.416 1.696 1.016 2.112 1.8.416.768.624 1.744.624 2.928 0 2.048-.624 3.64-1.872 4.776-1.248 1.136-3.024 1.704-5.328 1.704-.72 0-1.272-.024-1.656-.072v4.368l3.168.264v1.584h-9.12v-1.584l1.848-.24V28.12zm4.08 7.944c.32.08.848.12 1.584.12 2.08 0 3.12-1.592 3.12-4.776 0-1.328-.264-2.296-.792-2.904-.512-.624-1.288-.936-2.328-.936-.448 0-.8.024-1.056.072a15.58 15.58 0 00-.528.072v8.352zm9.576 6.288l1.464-.216v-9.024l-1.416-.432v-1.872l3.984-.528h.072l.672.504v.576l-.072 1.992h.072c.112-.368.368-.792.768-1.272.4-.496.904-.92 1.512-1.272a3.9 3.9 0 012.016-.552c.416 0 .736.056.96.168V34.6a3.284 3.284 0 00-.84-.456c-.288-.112-.664-.168-1.128-.168-.576 0-1.096.08-1.56.24-.464.144-.832.312-1.104.504v7.416l2.64.24v1.56h-8.04v-1.584zm10.859-5.016c0-1.536.304-2.832.912-3.888.608-1.072 1.424-1.872 2.448-2.4 1.04-.528 2.176-.792 3.408-.792 2.016 0 3.592.608 4.728 1.824 1.152 1.2 1.728 2.88 1.728 5.04 0 1.584-.304 2.904-.912 3.96-.608 1.056-1.424 1.84-2.448 2.352-1.024.512-2.168.768-3.432.768-2 0-3.576-.6-4.728-1.8-1.136-1.216-1.704-2.904-1.704-5.064zm6.672 5.184c.768 0 1.336-.408 1.704-1.224.384-.832.576-2.128.576-3.888 0-1.872-.184-3.248-.552-4.128-.352-.896-.952-1.344-1.8-1.344-1.568 0-2.352 1.704-2.352 5.112 0 1.856.192 3.232.576 4.128.384.896 1 1.344 1.848 1.344zm9.518-9.912h-1.872V31.12l1.872-.48v-1.008c0-1.072.288-2.048.864-2.928a6.173 6.173 0 012.304-2.088 6.668 6.668 0 013.144-.768c.592 0 1.128.08 1.608.24v3.48c-.176-.192-.52-.376-1.032-.552a4.287 4.287 0 00-1.512-.288c-.528 0-.904.136-1.128.408-.224.272-.336.72-.336 1.344v2.136h2.88v1.992h-2.88v9.528l2.424.216v1.584h-8.184v-1.584l1.848-.216v-9.528zm11.256-4.08c-.624 0-1.128-.184-1.512-.552-.384-.368-.576-.84-.576-1.416 0-.672.208-1.224.624-1.656.432-.432 1.008-.648 1.728-.648s1.272.184 1.656.552c.384.368.576.84.576 1.416 0 .688-.216 1.248-.648 1.68-.432.416-1.04.624-1.824.624h-.024zm-1.464 4.584l-1.608-.456v-1.8l4.8-.576h.048l.744.504v11.352l1.44.216v1.584h-6.912v-1.584l1.488-.216v-9.024zm7.598-6.504l-1.68-.312v-1.464l4.8-.576h.072l.696.504v17.376l1.56.216v1.584h-6.984v-1.584l1.536-.216V26.608zM154.537 44.2c-2.192 0-3.816-.616-4.872-1.848-1.056-1.248-1.584-2.944-1.584-5.088 0-1.456.272-2.712.816-3.768.544-1.056 1.304-1.856 2.28-2.4.992-.56 2.152-.84 3.48-.84 1.68 0 2.96.424 3.84 1.272.896.848 1.36 2.048 1.392 3.6 0 1.024-.072 1.848-.216 2.472h-7.512c.08 1.36.408 2.4.984 3.12.592.704 1.416 1.056 2.472 1.056.592 0 1.208-.096 1.848-.288.656-.208 1.184-.44 1.584-.696l.672 1.464c-.416.464-1.128.904-2.136 1.32a7.812 7.812 0 01-3.048.624zm1.536-8.184l.024-1.008c0-1.008-.136-1.776-.408-2.304-.272-.528-.736-.792-1.392-.792-.672 0-1.192.296-1.56.888-.368.576-.568 1.648-.6 3.216h3.936zm11.496-7.896l-1.776-.336v-1.68h3.912c.256 0 .752-.016 1.488-.048a36.933 36.933 0 012.52-.096c1.728 0 3.088.208 4.08.624.992.416 1.696 1.016 2.112 1.8.416.768.624 1.744.624 2.928 0 2.048-.624 3.64-1.872 4.776-1.248 1.136-3.024 1.704-5.328 1.704-.72 0-1.272-.024-1.656-.072v4.368l3.168.264v1.584h-9.12v-1.584l1.848-.24V28.12zm4.08 7.944c.32.08.848.12 1.584.12 2.08 0 3.12-1.592 3.12-4.776 0-1.328-.264-2.296-.792-2.904-.512-.624-1.288-.936-2.328-.936-.448 0-.8.024-1.056.072a15.58 15.58 0 00-.528.072v8.352zm12.479-7.536c-.624 0-1.128-.184-1.512-.552-.384-.368-.576-.84-.576-1.416 0-.672.208-1.224.624-1.656.432-.432 1.008-.648 1.728-.648s1.272.184 1.656.552c.384.368.576.84.576 1.416 0 .688-.216 1.248-.648 1.68-.432.416-1.04.624-1.824.624h-.024zm-1.464 4.584l-1.608-.456v-1.8l4.8-.576h.048l.744.504v11.352l1.44.216v1.584h-6.912v-1.584l1.488-.216v-9.024zm6.107 4.248c0-1.424.288-2.672.864-3.744a6.015 6.015 0 012.424-2.472c1.04-.592 2.24-.888 3.6-.888.672 0 1.248.048 1.728.144.496.08 1 .2 1.512.36.464.128.752.2.864.216l-.168 4.344h-2.424l-.624-2.76c-.048-.208-.184-.352-.408-.432a1.828 1.828 0 00-.768-.144c-.752 0-1.344.368-1.776 1.104-.416.736-.624 1.96-.624 3.672 0 1.632.264 2.888.792 3.768.544.864 1.272 1.296 2.184 1.296a6.127 6.127 0 003.264-.912l.648 1.416c-.384.432-1.016.856-1.896 1.272-.88.4-1.856.6-2.928.6-2.096 0-3.664-.616-4.704-1.848-1.04-1.248-1.56-2.912-1.56-4.992zm19.842-9.24l-2.544-.336v-1.68h8.16l2.544 10.032.576 2.664.48-2.664 2.52-10.032h8.112v1.68l-2.616.336 1.92 13.968 1.848.264v1.584h-8.088v-1.584l2.04-.264-1.008-10.344-.432-4.224-.84 3.84-3.144 11.88h-3.144l-3.36-11.544-1.104-4.2-.288 4.248-.888 10.344 2.448.264v1.584h-6.936v-1.584l1.992-.24 1.752-13.992zm21.004 11.976c0-1.408.712-2.488 2.136-3.24 1.44-.752 3.328-1.136 5.664-1.152v-.48c0-.576-.064-1.032-.192-1.368a1.322 1.322 0 00-.696-.744c-.336-.176-.832-.264-1.488-.264-.784 0-1.488.096-2.112.288a14.39 14.39 0 00-1.92.72l-.816-1.728c.256-.208.672-.456 1.248-.744.576-.304 1.264-.56 2.064-.768a9.567 9.567 0 012.544-.336c1.28 0 2.28.168 3 .504.736.336 1.256.856 1.56 1.56.32.704.48 1.664.48 2.88v7.128h1.248v1.512c-.368.08-.88.16-1.536.24-.656.08-1.216.12-1.68.12-.608 0-1.016-.088-1.224-.264-.192-.176-.288-.528-.288-1.056v-.552c-.4.48-.936.912-1.608 1.296-.672.368-1.448.552-2.328.552-.752 0-1.44-.16-2.064-.48a3.884 3.884 0 01-1.464-1.416c-.352-.624-.528-1.36-.528-2.208zm5.928 1.896c.288 0 .608-.08.96-.24a3.82 3.82 0 00.912-.624v-3.816c-1.248 0-2.176.224-2.784.672-.592.448-.888 1.024-.888 1.728 0 .72.16 1.28.48 1.68.32.4.76.6 1.32.6zM244 26.608l-1.632-.312v-1.464l4.776-.576h.072l.696.504v11.208l-.072 1.176 4.512-4.752-1.776-.264v-1.512h6.528v1.512l-1.968.312-2.592 2.472 3.96 7.224 1.248.216v1.584h-6.672v-1.584l1.08-.216-2.376-4.752-1.944 2.016.048 1.224v1.512l1.392.216v1.584h-6.6v-1.584l1.32-.216V26.608zM263.932 44.2c-2.192 0-3.816-.616-4.872-1.848-1.056-1.248-1.584-2.944-1.584-5.088 0-1.456.272-2.712.816-3.768.544-1.056 1.304-1.856 2.28-2.4.992-.56 2.152-.84 3.48-.84 1.68 0 2.96.424 3.84 1.272.896.848 1.36 2.048 1.392 3.6 0 1.024-.072 1.848-.216 2.472h-7.512c.08 1.36.408 2.4.984 3.12.592.704 1.416 1.056 2.472 1.056.592 0 1.208-.096 1.848-.288.656-.208 1.184-.44 1.584-.696l.672 1.464c-.416.464-1.128.904-2.136 1.32a7.812 7.812 0 01-3.048.624zm1.536-8.184l.024-1.008c0-1.008-.136-1.776-.408-2.304-.272-.528-.736-.792-1.392-.792-.672 0-1.192.296-1.56.888-.368.576-.568 1.648-.6 3.216h3.936zm4.865 6.336l1.464-.216v-9.024l-1.416-.432v-1.872l3.984-.528h.072l.672.504v.576l-.072 1.992h.072c.112-.368.368-.792.768-1.272.4-.496.904-.92 1.512-1.272a3.9 3.9 0 012.016-.552c.416 0 .736.056.96.168V34.6a3.284 3.284 0 00-.84-.456c-.288-.112-.664-.168-1.128-.168-.576 0-1.096.08-1.56.24-.464.144-.832.312-1.104.504v7.416l2.64.24v1.56h-8.04v-1.584z"
        fill="#292930"></path>
    <path
        d="M283.616 44.128a2.06 2.06 0 01-1.44-.576c-.4-.384-.6-.856-.6-1.416 0-.64.232-1.16.696-1.56.464-.416 1.04-.624 1.728-.624.624 0 1.128.2 1.512.6.384.4.576.872.576 1.416 0 .672-.224 1.2-.672 1.584-.448.384-1.048.576-1.8.576z"
        fill="#5956E9"></path>
    <g filter="url(#filter0_d)">
        <rect x="30" y="15" width="42.284" height="42" rx="21" fill="#fff"></rect>
    </g>
    <path
        d="M51.169 23.043c-3.728 0-6.774 3.026-6.774 6.728S47.44 36.5 51.168 36.5c3.728 0 6.774-3.027 6.774-6.729s-3.046-6.728-6.773-6.728z"
        fill="#FAB8C4"></path>
    <path
        d="M63.2 41.876a6.259 6.259 0 00-.68-1.234c-1.361-1.998-3.462-3.32-5.828-3.643-.296-.03-.621.03-.858.206a7.158 7.158 0 01-4.26 1.38 7.158 7.158 0 01-4.259-1.38 1.116 1.116 0 00-.858-.206 8.366 8.366 0 00-5.827 3.643 7.219 7.219 0 00-.68 1.234c-.09.177-.06.382.03.559.236.411.532.822.798 1.175.414.558.858 1.058 1.36 1.528.415.411.888.793 1.361 1.175a13.462 13.462 0 008.046 2.644c2.899 0 5.71-.91 8.046-2.644a12.99 12.99 0 001.36-1.175c.474-.47.947-.97 1.361-1.528.296-.382.563-.764.8-1.175.147-.177.176-.382.088-.559z"
        fill="#5956E9"></path>
    <defs>
        <filter id="filter0_d" x="0" y="0" width="102.284" height="102" filterUnits="userSpaceOnUse"
            color-interpolation-filters="sRGB">
            <feFlood flood-opacity="0" result="BackgroundImageFix"></feFlood>
            <feColorMatrix in="SourceAlpha" values="0 0 0 0 0 0 0 0 0 0 0 0 0 0 0 0 0 0 127 0" result="hardAlpha">
            </feColorMatrix>
            <feOffset dy="15"></feOffset>
            <feGaussianBlur stdDeviation="15"></feGaussianBlur>
            <feColorMatrix values="0 0 0 0 0.725694 0 0 0 0 0.780258 0 0 0 0 0.916667 0 0 0 0.5 0"></feColorMatrix>
            <feBlend in2="BackgroundImageFix" result="effect1_dropShadow"></feBlend>
            <feBlend in="SourceGraphic" in2="effect1_dropShadow" result="shape"></feBlend>
        </filter>
    </defs>
</svg>