<svg width="139" height="33" viewBox="0 0 464 107" xmlns="http://www.w3.org/2000/svg">
    <g fill-rule="evenodd" fill="#778A99" data-darkreader-inline-fill="" style="--darkreader-inline-fill:#53636f;">
        <path
            d="M0 35.5v42.361c3.513-4.098 9.072-6.63 14.157-6.861H35.5C55.106 71 71 55.106 71 35.5S55.106 0 35.5 0 0 15.894 0 35.5z"
            class="part__fwfSE" fill="#17a8d6" data-darkreader-inline-fill="" style="--darkreader-inline-fill:#3bc0ea;">
        </path>
        <path d="M30 80v12c0 8.284-6.716 15-15 15H3a3 3 0 0 1-3-3V92c0-8.284 6.716-15 15-15h12a3 3 0 0 1 3 3z"
            class="part__fwfSE" fill="#8bd3eb" data-darkreader-inline-fill="" style="--darkreader-inline-fill:#82d0e9;">
        </path>
        <path
            d="M128.124 66.563v22.739a2 2 0 0 1-2 2H113a2 2 0 0 1-2-2V22.776a2 2 0 0 1 2-2h25.74c8.411 0 14.82 2.078 19.227 6.234 4.406 4.157 6.609 9.76 6.609 16.809 0 4.39-.985 8.296-2.954 11.721-1.97 3.425-4.89 6.118-8.763 8.08-3.872 1.962-8.578 2.943-14.12 2.943h-10.615zm8.713-13.666c6.876 0 10.314-3.026 10.314-9.078 0-6.185-3.438-9.277-10.314-9.277h-8.713v18.355h8.713zm35.25-32.367c0-2.753.87-5.03 2.611-6.83 1.741-1.8 4.042-2.7 6.902-2.7 2.86 0 5.16.9 6.902 2.7 1.741 1.8 2.611 4.077 2.611 6.83 0 2.682-.87 4.923-2.611 6.723-1.741 1.8-4.042 2.7-6.902 2.7-2.86 0-5.16-.9-6.902-2.7-1.741-1.8-2.611-4.041-2.611-6.723zm18.025 17.11v51.662a2 2 0 0 1-2 2h-13.124a2 2 0 0 1-2-2V37.639a2 2 0 0 1 2-2h13.124a2 2 0 0 1 2 2zm37.053-2.7c7.21 0 13.252 1.98 18.125 5.936 4.352 3.533 7.266 8.246 8.743 14.138a1.747 1.747 0 0 1-1.694 2.172h-14.451a2 2 0 0 1-1.895-1.36 5.788 5.788 0 0 0-.033-.096c-.61-1.706-1.573-3.083-2.887-4.13-1.67-1.33-3.772-1.995-6.309-1.995-3.004 0-5.474 1.18-7.41 3.54-1.937 2.362-2.905 5.803-2.905 10.325 0 4.523.968 7.964 2.904 10.325 1.937 2.36 4.407 3.541 7.411 3.541 2.537 0 4.64-.665 6.309-1.995 1.33-1.06 2.298-2.456 2.908-4.19l.015-.043a2 2 0 0 1 1.892-1.353h14.73a1.529 1.529 0 0 1 1.485 1.888c-1.454 6.025-4.392 10.832-8.813 14.422C240.417 90.022 234.375 92 227.165 92c-5.475 0-10.332-1.147-14.571-3.442-4.24-2.294-7.56-5.602-9.964-9.925-2.404-4.323-3.605-9.377-3.605-15.163 0-5.852 1.185-10.923 3.555-15.212 2.37-4.29 5.691-7.581 9.964-9.876 4.273-2.294 9.146-3.441 14.62-3.441zm91.83 2.7v51.662a2 2 0 0 1-2 2H303.77a2 2 0 0 1-2-2v-8.075c-1.602 3.258-3.989 5.852-7.16 7.78-3.171 1.929-6.86 2.893-11.066 2.893-6.409 0-11.5-2.128-15.271-6.384-3.772-4.256-5.658-10.108-5.658-17.557V37.64a2 2 0 0 1 2-2h13.024a2 2 0 0 1 2 2v28.226c0 3.79.985 6.733 2.954 8.828 1.97 2.095 4.623 3.142 7.961 3.142 3.472 0 6.21-1.097 8.212-3.292 2.003-2.194 3.004-5.32 3.004-9.377V37.64a2 2 0 0 1 2-2h13.225a2 2 0 0 1 2 2zm28.94-18.156v69.818a2 2 0 0 1-2 2h-13.124a2 2 0 0 1-2-2V19.484a2 2 0 0 1 2-2h13.125a2 2 0 0 1 2 2zm33.047 15.457c4.273 0 7.945.964 11.016 2.893 3.071 1.928 5.34 4.555 6.81 7.88V37.64a2 2 0 0 1 2-2h13.024a2 2 0 0 1 2 2v51.663a2 2 0 0 1-2 2h-13.024a2 2 0 0 1-2-2v-8.075c-1.47 3.325-3.739 5.952-6.81 7.88-3.071 1.929-6.743 2.893-11.016 2.893-4.606 0-8.729-1.147-12.367-3.442-3.639-2.294-6.51-5.602-8.612-9.925-2.103-4.323-3.155-9.377-3.155-15.163 0-5.852 1.052-10.923 3.155-15.212 2.103-4.29 4.973-7.581 8.612-9.876 3.638-2.294 7.76-3.441 12.367-3.441zm5.508 14.963c-3.672 0-6.626 1.197-8.862 3.591-2.237 2.394-3.355 5.72-3.355 9.975 0 4.257 1.118 7.582 3.355 9.976 2.236 2.394 5.19 3.59 8.862 3.59 3.605 0 6.56-1.23 8.863-3.69s3.455-5.752 3.455-9.876c0-4.19-1.152-7.498-3.455-9.925-2.304-2.427-5.258-3.641-8.863-3.641zm58.283-3.79c2.136-3.392 4.89-6.086 8.261-8.08 2.79-1.651 5.773-2.62 8.951-2.904A1.85 1.85 0 0 1 464 36.972v14.324a2 2 0 0 1-2 2h-2.907c-4.54 0-8.061.964-10.565 2.892-2.503 1.929-3.755 5.188-3.755 9.776v23.338a2 2 0 0 1-2 2h-13.124a2 2 0 0 1-2-2V37.639a2 2 0 0 1 2-2h13.124a2 2 0 0 1 2 2v8.474z">
        </path>
    </g>
</svg>