<svg width="1485" height="349" viewBox="0 0 1485 349" fill="none" xmlns="http://www.w3.org/2000/svg">
    <g filter="url(#filter0_d)">
        <path d="M9 29H222.487V335.83H9V29Z" fill="url(#paint0_linear)"></path>
        <path
            d="M9 26.5C7.61929 26.5 6.5 27.6193 6.5 29V335.83C6.5 337.211 7.61929 338.33 9 338.33H222.487C223.868 338.33 224.987 337.211 224.987 335.83V29C224.987 27.6193 223.868 26.5 222.487 26.5H9Z"
            stroke="black" stroke-width="5" stroke-linecap="round" stroke-linejoin="round"></path>
    </g>
    <g filter="url(#filter1_d)">
        <path
            d="M36 5.00001C36 2.23858 38.2386 0 41 0H244.487C247.249 0 249.487 2.23858 249.487 5V301.83C249.487 304.592 247.249 306.83 244.487 306.83H41C38.2386 306.83 36 304.592 36 301.83V5.00001Z"
            fill="url(#paint1_linear)"></path>
    </g>
    <path
        d="M185.5 148.67C188.833 150.594 188.833 155.406 185.5 157.33L125.5 191.971C122.167 193.896 118 191.49 118 187.641V118.359C118 114.51 122.167 112.104 125.5 114.029L185.5 148.67Z"
        fill="white"></path>
    <path
        d="M388.36 111.765C406.888 111.765 422.717 118.793 435.848 132.849C448.98 146.723 455.545 163.7 455.545 183.78C455.545 204.043 448.98 221.111 435.848 234.985C422.717 248.858 406.888 255.795 388.36 255.795C367.853 255.795 352.114 248.128 341.141 232.794V307H312V115.324H341.141V135.039C352.114 119.523 367.853 111.765 388.36 111.765ZM353.283 215.269C361.377 223.484 371.541 227.591 383.773 227.591C396.005 227.591 406.168 223.484 414.263 215.269C422.357 206.872 426.405 196.376 426.405 183.78C426.405 171.184 422.357 160.779 414.263 152.564C406.168 144.167 396.005 139.968 383.773 139.968C371.541 139.968 361.377 144.167 353.283 152.564C345.188 160.779 341.141 171.184 341.141 183.78C341.141 196.376 345.188 206.872 353.283 215.269Z"
        fill="#161637"></path>
    <path
        d="M500.304 138.325C507.679 121.348 521.53 112.86 541.857 112.86V144.897C530.704 144.167 520.991 146.905 512.716 153.112C504.442 159.136 500.304 169.176 500.304 183.232V252.236H471.164V115.324H500.304V138.325Z"
        fill="#161637"></path>
    <path
        d="M569.206 196.376C571.365 206.781 576.311 214.813 584.046 220.472C591.781 225.949 601.225 228.687 612.378 228.687C627.847 228.687 639.45 223.028 647.185 211.71L671.199 225.949C657.888 245.846 638.191 255.795 612.108 255.795C590.162 255.795 572.444 249.041 558.953 235.532C545.462 221.841 538.716 204.59 538.716 183.78C538.716 163.334 545.372 146.266 558.683 132.575C571.994 118.701 589.083 111.765 609.949 111.765C629.736 111.765 645.925 118.793 658.517 132.849C671.289 146.905 677.675 163.973 677.675 184.054C677.675 187.157 677.315 191.264 676.595 196.376H569.206ZM568.936 172.279H648.264C646.285 161.144 641.698 152.747 634.503 147.088C627.488 141.429 619.213 138.599 609.679 138.599C598.886 138.599 589.892 141.611 582.697 147.635C575.502 153.659 570.915 161.874 568.936 172.279Z"
        fill="#161637"></path>
    <path d="M778.723 115.324H810.562L757.947 252.236H724.219L671.604 115.324H703.443L741.218 219.377L778.723 115.324Z"
        fill="#161637"></path>
    <path
        d="M845.744 89.3111C842.147 92.962 837.83 94.7875 832.793 94.7875C827.756 94.7875 823.349 92.962 819.572 89.3111C815.974 85.4775 814.175 81.0051 814.175 75.8938C814.175 70.7824 815.974 66.4012 819.572 62.7503C823.169 58.9168 827.576 57 832.793 57C838.009 57 842.417 58.9168 846.014 62.7503C849.612 66.4012 851.411 70.7824 851.411 75.8938C851.411 81.0051 849.522 85.4775 845.744 89.3111ZM818.222 252.236V115.324H847.363V252.236H818.222Z"
        fill="#161637"></path>
    <path
        d="M893.341 196.376C895.499 206.781 900.446 214.813 908.181 220.472C915.916 225.949 925.359 228.687 936.512 228.687C951.982 228.687 963.584 223.028 971.319 211.71L995.333 225.949C982.022 245.846 962.325 255.795 936.242 255.795C914.297 255.795 896.578 249.041 883.087 235.532C869.596 221.841 862.851 204.59 862.851 183.78C862.851 163.334 869.506 146.266 882.818 132.575C896.129 118.701 913.217 111.765 934.084 111.765C953.871 111.765 970.06 118.793 982.652 132.849C995.423 146.905 1001.81 163.973 1001.81 184.054C1001.81 187.157 1001.45 191.264 1000.73 196.376H893.341ZM893.071 172.279H972.398C970.42 161.144 965.833 152.747 958.638 147.088C951.622 141.429 943.348 138.599 933.814 138.599C923.021 138.599 914.027 141.611 906.832 147.635C899.636 153.659 895.049 161.874 893.071 172.279Z"
        fill="#161637"></path>
    <path
        d="M1166.81 115.324H1197.57L1155.2 252.236H1126.6L1098.54 159.957L1070.21 252.236H1041.61L999.246 115.324H1030.01L1056.18 209.793L1084.51 115.324H1112.3L1140.36 209.793L1166.81 115.324Z"
        fill="#161637"></path>
    <path
        d="M1225.9 196.376C1228.06 206.781 1233 214.813 1240.74 220.472C1248.47 225.949 1257.92 228.687 1269.07 228.687C1284.54 228.687 1296.14 223.028 1303.88 211.71L1327.89 225.949C1314.58 245.846 1294.88 255.795 1268.8 255.795C1246.85 255.795 1229.13 249.041 1215.64 235.532C1202.15 221.841 1195.41 204.59 1195.41 183.78C1195.41 163.334 1202.06 146.266 1215.37 132.575C1228.68 118.701 1245.77 111.765 1266.64 111.765C1286.43 111.765 1302.62 118.793 1315.21 132.849C1327.98 146.905 1334.37 163.973 1334.37 184.054C1334.37 187.157 1334.01 191.264 1333.29 196.376H1225.9ZM1225.63 172.279H1304.95C1302.98 161.144 1298.39 152.747 1291.19 147.088C1284.18 141.429 1275.9 138.599 1266.37 138.599C1255.58 138.599 1246.58 141.611 1239.39 147.635C1232.19 153.659 1227.61 161.874 1225.63 172.279Z"
        fill="#161637"></path>
    <path
        d="M1455.27 60.5597H1484.41V252.236H1455.27V232.52C1444.3 248.037 1428.56 255.795 1408.05 255.795C1389.53 255.795 1373.7 248.858 1360.57 234.985C1347.43 220.928 1340.87 203.86 1340.87 183.78C1340.87 163.517 1347.43 146.449 1360.57 132.575C1373.7 118.701 1389.53 111.765 1408.05 111.765C1428.56 111.765 1444.3 119.432 1455.27 134.766V60.5597ZM1382.15 215.269C1390.25 223.484 1400.41 227.591 1412.64 227.591C1424.87 227.591 1435.04 223.484 1443.13 215.269C1451.23 206.872 1455.27 196.376 1455.27 183.78C1455.27 171.184 1451.23 160.779 1443.13 152.564C1435.04 144.167 1424.87 139.968 1412.64 139.968C1400.41 139.968 1390.25 144.167 1382.15 152.564C1374.06 160.779 1370.01 171.184 1370.01 183.78C1370.01 196.376 1374.06 206.872 1382.15 215.269Z"
        fill="#161637"></path>
    <defs>
        <filter id="filter0_d" x="0" y="24" width="231.487" height="324.83" filterUnits="userSpaceOnUse"
            color-interpolation-filters="sRGB">
            <feFlood flood-opacity="0" result="BackgroundImageFix"></feFlood>
            <feColorMatrix in="SourceAlpha" type="matrix" values="0 0 0 0 0 0 0 0 0 0 0 0 0 0 0 0 0 0 127 0">
            </feColorMatrix>
            <feOffset dy="4"></feOffset>
            <feGaussianBlur stdDeviation="2"></feGaussianBlur>
            <feColorMatrix type="matrix" values="0 0 0 0 0 0 0 0 0 0 0 0 0 0 0 0 0 0 0.25 0"></feColorMatrix>
            <feBlend mode="normal" in2="BackgroundImageFix" result="effect1_dropShadow"></feBlend>
            <feBlend mode="normal" in="SourceGraphic" in2="effect1_dropShadow" result="shape"></feBlend>
        </filter>
        <filter id="filter1_d" x="32" y="0" width="221.487" height="314.83" filterUnits="userSpaceOnUse"
            color-interpolation-filters="sRGB">
            <feFlood flood-opacity="0" result="BackgroundImageFix"></feFlood>
            <feColorMatrix in="SourceAlpha" type="matrix" values="0 0 0 0 0 0 0 0 0 0 0 0 0 0 0 0 0 0 127 0">
            </feColorMatrix>
            <feOffset dy="4"></feOffset>
            <feGaussianBlur stdDeviation="2"></feGaussianBlur>
            <feColorMatrix type="matrix" values="0 0 0 0 0 0 0 0 0 0 0 0 0 0 0 0 0 0 0.25 0"></feColorMatrix>
            <feBlend mode="normal" in2="BackgroundImageFix" result="effect1_dropShadow"></feBlend>
            <feBlend mode="normal" in="SourceGraphic" in2="effect1_dropShadow" result="shape"></feBlend>
        </filter>
        <linearGradient id="paint0_linear" x1="318.744" y1="64.8917" x2="318.744" y2="371.722"
            gradientUnits="userSpaceOnUse">
            <stop stop-color="#5AD7FF"></stop>
            <stop offset="0.498209" stop-color="#A4FF5C" stop-opacity="0.800716"></stop>
            <stop offset="1" stop-color="#FF8946" stop-opacity="0.6"></stop>
        </linearGradient>
        <linearGradient id="paint1_linear" x1="345.744" y1="35.8917" x2="345.744" y2="342.722"
            gradientUnits="userSpaceOnUse">
            <stop stop-color="#2645FF" stop-opacity="0.9"></stop>
            <stop offset="0.498209" stop-color="#9A00F9" stop-opacity="0.85"></stop>
            <stop offset="1" stop-color="#CE207E" stop-opacity="0.8"></stop>
        </linearGradient>
    </defs>
</svg>