<svg width="99" height="29" viewBox="0 0 99 29" fill="none" xmlns="http://www.w3.org/2000/svg">
<path d="M88.918 10.9991C88.918 10.848 89.0226 10.7171 89.1699 10.6838L97.6327 8.76885C97.8349 8.72309 98.0273 8.87683 98.0273 9.08415V12.1571C98.0273 12.3082 97.9227 12.4391 97.7754 12.4724L89.3126 14.3873C89.1104 14.4331 88.918 14.2794 88.918 14.072V10.9991Z" fill="#FF5466"/>
<path d="M79.8086 7.68922C79.8086 7.53817 79.9132 7.40725 80.0605 7.37392L97.6326 3.39775C97.8348 3.352 98.0272 3.50573 98.0272 3.71306V6.78601C98.0272 6.93706 97.9226 7.06798 97.7753 7.10131L80.2032 11.0775C80.001 11.1232 79.8086 10.9695 79.8086 10.7622V7.68922Z" fill="#FF5466"/>
<path d="M79.8086 2.31939C79.8086 2.16834 79.9132 2.03743 80.0605 2.00409L88.5233 0.0891611C88.7255 0.043405 88.9179 0.197138 88.9179 0.404462V3.47742C88.9179 3.62847 88.8133 3.75938 88.666 3.79272L80.2032 5.70765C80.001 5.75341 79.8086 5.59967 79.8086 5.39235V2.31939Z" fill="#FF5466"/>
<path d="M0.980469 26.0926C0.980469 26.1969 1.03048 26.2949 1.11613 26.3543C2.81618 27.5328 4.97991 28.2942 7.66028 28.2942C12.3906 28.2942 14.8561 25.714 14.8561 22.6178C14.8561 19.4069 12.9927 17.8301 9.40907 16.2533C7.17291 15.2499 5.10876 14.5619 5.10876 12.9564C5.10876 11.7523 6.25551 10.8923 8.31966 10.8923C10.0452 10.8923 11.368 11.3586 12.525 12.2C12.7491 12.363 13.0787 12.2101 13.0787 11.9331V9.17111C13.0787 9.06414 13.026 8.96367 12.9362 8.90554C11.6166 8.0512 10.0319 7.62402 8.23365 7.62402C4.39205 7.62402 1.52517 9.6595 1.52517 12.9564C1.52517 16.0813 3.84734 17.6007 6.82889 18.8622C9.95378 20.1809 11.3012 20.8403 11.3012 22.6178C11.3012 23.8792 10.0111 25.0833 7.4596 25.0833C5.02106 25.0833 3.07766 24.228 1.54964 22.9363C1.33077 22.7513 0.980469 22.9011 0.980469 23.1877V26.0926Z" fill="#231842"/>
<path d="M16.7639 20.697C16.7639 25.1119 20.1755 28.3515 24.6478 28.3515C26.3664 28.3515 27.9777 27.8959 29.1709 26.9847C29.2485 26.9255 29.2922 26.8327 29.2922 26.7352V24.2176C29.2922 23.9313 28.9399 23.7793 28.7137 23.9548C27.5366 24.8688 26.2241 25.2266 24.8485 25.2266C22.1537 25.2266 20.1755 23.3058 20.1755 20.697C20.1755 18.0881 22.1537 16.1673 24.8485 16.1673C26.226 16.1673 27.5401 16.5472 28.7185 17.4518C28.9442 17.625 29.2922 17.4728 29.2922 17.1882V14.6616C29.2922 14.5624 29.247 14.4683 29.1673 14.4092C27.9745 13.5238 26.3646 13.0424 24.6478 13.0424C20.1755 13.0424 16.7639 16.282 16.7639 20.697Z" fill="#231842"/>
<path d="M31.841 27.6269C31.841 27.8054 31.9857 27.9501 32.1643 27.9501H34.9293C35.1078 27.9501 35.2526 27.8054 35.2526 27.6269V20.3529C35.2526 17.9734 36.772 16.4827 39.1515 16.4827C39.5288 16.4827 39.8786 16.5102 40.1914 16.5557C40.3951 16.5853 40.585 16.4319 40.585 16.2261V13.5655C40.585 13.4114 40.4757 13.281 40.3226 13.2638C40.1007 13.2389 39.7962 13.2144 39.5529 13.2144C37.4887 13.2144 35.9406 14.1605 35.2526 15.6513V13.8244C35.2526 13.6458 35.1078 13.5011 34.9293 13.5011H32.1643C31.9857 13.5011 31.841 13.6458 31.841 13.8244V27.6269Z" fill="#231842"/>
<path d="M44.7318 11.8097C45.8213 11.8097 46.7673 10.9209 46.7673 9.77418C46.7673 8.62743 45.8213 7.7387 44.7318 7.7387C43.6138 7.7387 42.6677 8.62743 42.6677 9.77418C42.6677 10.9209 43.6138 11.8097 44.7318 11.8097ZM43.0117 27.6269C43.0117 27.8054 43.1564 27.9501 43.335 27.9501H46.1287C46.3072 27.9501 46.452 27.8054 46.452 27.6269V13.8244C46.452 13.6458 46.3072 13.5011 46.1287 13.5011H43.335C43.1564 13.5011 43.0117 13.6458 43.0117 13.8244V27.6269Z" fill="#231842"/>
<path d="M49.479 27.6269C49.479 27.8054 49.6237 27.9501 49.8022 27.9501H52.5959C52.7745 27.9501 52.9192 27.8054 52.9192 27.6269V25.8573C53.4066 27.2048 55.098 28.2655 57.5349 28.2655C61.6058 28.2655 64.7594 24.9973 64.7594 20.7256C64.7594 16.454 61.6058 13.1858 57.5349 13.1858C55.098 13.1858 53.4066 14.2465 52.9192 15.5939V8.54159C52.9192 8.33427 52.7268 8.18054 52.5246 8.22629L49.7309 8.85845C49.5836 8.89178 49.479 9.0227 49.479 9.17375V27.6269ZM52.6612 20.7256C52.6612 18.2028 54.582 16.3106 57.0762 16.3106C59.513 16.3106 61.3478 18.2028 61.3478 20.7256C61.3478 23.2485 59.513 25.1406 57.0762 25.1406C54.582 25.1406 52.6612 23.2485 52.6612 20.7256Z" fill="#231842"/>
<path d="M66.5142 20.869C66.5142 25.4273 69.6105 28.3802 74.1401 28.3802C76.5769 28.3802 78.024 27.8988 79.3341 27.0134C79.4214 26.9544 79.4725 26.8554 79.4725 26.75V24.4471C79.4725 24.165 79.126 24.0064 78.8922 24.1642C77.9937 24.7703 76.5202 25.37 74.2835 25.37C71.7033 25.37 70.0405 23.9079 69.9258 21.6144H80.6994C80.8655 21.6144 81.0048 21.4885 81.0162 21.3228C81.0493 20.8388 81.0493 20.3816 81.0493 20.3816C81.0493 16.368 78.2397 13.1571 73.9968 13.1571C69.6965 13.1571 66.5142 16.11 66.5142 20.7256V20.869ZM70.0118 19.1775C70.1265 17.4574 71.8753 16.0813 73.9968 16.0813C75.9749 16.0813 77.5517 17.4861 77.5517 19.1775H70.0118Z" fill="#231842"/>
</svg>
