<svg class="svg-logo" version="1.1" xmlns:xlink="http://www.w3.org/1999/xlink" xml:space="preserve" x="0" y="0"
    viewBox="0 0 121 25" enable-background="new 0 0 121 25"  xmlns="http://www.w3.org/2000/svg">
    <g class="logo-text">
        <path fill="#555555"
            d="M36.471,7.719c-1.526,0-2.289,0.504-2.289,1.512c0,0.448,0.189,0.791,0.567,1.029 c0.378,0.238,1.263,0.582,2.656,1.029c1.393,0.448,2.37,0.956,2.93,1.522c0.56,0.567,0.84,1.438,0.84,2.615 c0,1.498-0.455,2.632-1.365,3.401c-0.911,0.771-2.1,1.155-3.57,1.155c-1.092,0-2.429-0.168-4.011-0.504l-0.756-0.147l0.294-2.247 c1.876,0.253,3.311,0.379,4.305,0.379c1.484,0,2.226-0.616,2.226-1.849c0-0.447-0.171-0.798-0.515-1.05s-1.025-0.525-2.047-0.819 c-1.624-0.462-2.769-1.011-3.434-1.648s-0.998-1.522-0.998-2.657c0-1.428,0.434-2.492,1.302-3.192c0.868-0.7,2.058-1.05,3.57-1.05 c1.036,0,2.352,0.14,3.948,0.42l0.756,0.147L40.65,8.056C38.676,7.832,37.283,7.719,36.471,7.719z">
        </path>
        <path fill="#555555"
            d="M46.068,19.731h-2.814v-14.7h2.814v8.358l1.071-0.189l2.079-3.969h3.15l-2.73,4.977l2.877,5.523h-3.171 l-2.121-4.095l-1.155,0.188V19.731z">
        </path>
        <path fill="#555555"
            d="M56.705,17.075c0.329,0.287,0.801,0.431,1.417,0.431c1.302,0,2.464-0.042,3.486-0.126l0.589-0.063 l0.041,2.079c-1.61,0.392-3.066,0.588-4.368,0.588c-1.582,0-2.73-0.42-3.444-1.26c-0.714-0.84-1.071-2.205-1.071-4.095 c0-3.766,1.547-5.649,4.641-5.649c3.052,0,4.578,1.582,4.578,4.746l-0.209,1.953H56.19C56.204,16.322,56.375,16.788,56.705,17.075z M59.802,13.536c0-0.84-0.133-1.424-0.399-1.753c-0.266-0.329-0.732-0.493-1.396-0.493c-0.666,0-1.134,0.171-1.407,0.514 c-0.273,0.343-0.417,0.921-0.431,1.732H59.802z">
        </path>
        <path fill="#555555"
            d="M70.407,11.625h-2.583v4.305c0,0.42,0.011,0.718,0.031,0.893c0.021,0.175,0.098,0.325,0.231,0.451 c0.133,0.126,0.339,0.189,0.619,0.189l1.596-0.042l0.126,2.246c-0.938,0.211-1.651,0.315-2.142,0.315 c-1.26,0-2.121-0.283-2.583-0.851c-0.462-0.566-0.693-1.613-0.693-3.14v-4.368h-1.238V9.231h1.238V6.312h2.814v2.919h2.583V11.625z">
        </path>
        <path fill="#555555"
            d="M76.161,8.979c0.729,0,1.659,0.112,2.794,0.336l0.566,0.126l-0.084,2.226 c-1.106-0.112-1.925-0.168-2.457-0.168c-0.966,0-1.606,0.207-1.921,0.62c-0.315,0.413-0.473,1.193-0.473,2.341 c0,1.148,0.157,1.937,0.473,2.363c0.314,0.427,0.962,0.641,1.942,0.641l2.436-0.168l0.084,2.246 c-1.498,0.295-2.639,0.441-3.423,0.441c-1.554,0-2.671-0.438-3.35-1.312s-1.019-2.278-1.019-4.211c0-1.932,0.35-3.328,1.05-4.189 S74.607,8.979,76.161,8.979z">
        </path>
        <path fill="#555555"
            d="M84.414,19.731H81.6v-14.7h2.814v4.704c0.966-0.504,1.834-0.756,2.604-0.756c1.4,0,2.366,0.413,2.898,1.239 c0.531,0.826,0.798,2.1,0.798,3.822v5.691h-2.814v-5.628c0-0.882-0.104-1.536-0.314-1.963s-0.63-0.641-1.26-0.641 c-0.546,0-1.093,0.084-1.639,0.252l-0.272,0.084V19.731z">
        </path>
        <path fill="#555555"
            d="M96.531,11.625v8.106h-2.814v-8.106h-1.134V9.231h1.134V8.77c0-1.512,0.224-2.555,0.672-3.129 s1.246-0.861,2.395-0.861c0.504,0,1.155,0.07,1.953,0.21l0.44,0.063l-0.042,2.289c-0.616-0.028-1.134-0.042-1.554-0.042 s-0.7,0.112-0.84,0.336c-0.141,0.224-0.21,0.609-0.21,1.155v0.441h2.541v2.394H96.531z">
        </path>
        <path fill="#555555"
            d="M108.753,12.507v4.368c0.028,0.337,0.084,0.571,0.168,0.704s0.259,0.228,0.525,0.283l-0.084,2.121 c-0.714,0-1.285-0.049-1.712-0.146c-0.427-0.099-0.857-0.295-1.291-0.589c-1.008,0.49-2.037,0.735-3.087,0.735 c-2.171,0-3.255-1.147-3.255-3.444c0-1.119,0.301-1.914,0.902-2.383c0.603-0.469,1.526-0.746,2.772-0.83l2.247-0.168v-0.651 c0-0.434-0.099-0.731-0.294-0.893c-0.196-0.161-0.512-0.241-0.945-0.241l-3.948,0.168l-0.084-1.953 c1.498-0.406,2.923-0.609,4.273-0.609c1.352,0,2.324,0.28,2.919,0.84C108.456,10.379,108.753,11.276,108.753,12.507z M104.028,15.279c-0.784,0.07-1.176,0.49-1.176,1.26c0,0.771,0.343,1.155,1.028,1.155c0.532,0,1.113-0.084,1.743-0.252l0.315-0.084 v-2.247L104.028,15.279z">
        </path>
        <path fill="#555555"
            d="M116.522,8.979c1.47,0,2.545,0.402,3.224,1.208s1.019,2.244,1.019,4.316c0,2.071-0.392,3.503-1.176,4.294 s-2.136,1.187-4.053,1.187c-0.603,0-1.701-0.07-3.298-0.21l-0.798-0.084V5.031h2.814v4.515 C115.15,9.168,115.906,8.979,116.522,8.979z M115.536,17.464c0.938,0,1.567-0.228,1.89-0.683s0.482-1.271,0.482-2.447 c0-1.89-0.588-2.834-1.764-2.834c-0.56,0-1.092,0.07-1.596,0.21l-0.294,0.063v5.607C114.898,17.436,115.325,17.464,115.536,17.464z">
        </path>
    </g>
    <g class="logo">
        <path fill="transparent"
            d="M12.5,0.833C6.056,0.833,0.834,6.057,0.834,12.5S6.056,24.167,12.5,24.167S24.167,18.943,24.167,12.5 S18.944,0.833,12.5,0.833z">
        </path>
    </g>
    <g class="logo-circle">
        <path fill="#1caad9"
            d="M12.5-0.029C5.596-0.029,0,5.568,0,12.472c0,6.904,5.596,12.501,12.5,12.501s12.5-5.597,12.5-12.501 C25.001,5.568,19.405-0.029,12.5-0.029z M11.414,19.911L6.025,16.8v-6.276l5.389,2.911V19.911z M12.374,11.958l-6.376-3.38 l6.376-3.682l6.377,3.682L12.374,11.958z M18.755,16.812l-5.369,3.1v-6.452l5.369-2.901V16.812z">
        </path>
    </g>
</svg>