<svg viewBox="0 0 136 32" xmlns="http://www.w3.org/2000/svg" class="w-[90px] md:w-[130px]" width="130" aria-label="TEDEd"><path fill="#2D2A2B" d="M90 31h23v-4.689H95.518v-9.074h15.892v-4.429H95.518V4.689h17.172V0H90zm39.908-8.077a8.463 8.463 0 0 1-1.118 2.572 5.877 5.877 0 0 1-1.933 1.845c-.788.47-1.725.704-2.814.704-1.06 0-1.977-.22-2.75-.66a5.696 5.696 0 0 1-1.912-1.758 7.898 7.898 0 0 1-1.118-2.505 11.297 11.297 0 0 1-.365-2.857c0-1.026.107-2.029.323-3.012a7.951 7.951 0 0 1 1.074-2.637 6.018 6.018 0 0 1 1.933-1.89c.788-.483 1.754-.725 2.9-.725 1.892 0 3.388.703 4.49 2.109 1.103 1.407 1.656 3.371 1.656 5.891a11.8 11.8 0 0 1-.366 2.923zM130.101 0v11.604h-.085A6.178 6.178 0 0 0 128.618 10a8.123 8.123 0 0 0-1.825-1.12 9.163 9.163 0 0 0-2.063-.638 11.592 11.592 0 0 0-2.106-.197 9.644 9.644 0 0 0-3.544.68c-1.16.456-2.192 1.166-3.094 2.133-.902.967-1.626 2.198-2.17 3.692-.544 1.495-.816 3.268-.816 5.319 0 1.7.215 3.29.644 4.77.43 1.48 1.075 2.762 1.934 3.845.86 1.085 1.94 1.941 3.244 2.571 1.303.63 2.83.946 4.577.946a9.563 9.563 0 0 0 3.996-.858c1.26-.57 2.22-1.516 2.879-2.834h.085v3.077H135V0h-4.899z"></path><path fill="#EA0028" d="M56 0h15.857C82.307 0 86 7.648 86 15.457 86 24.97 80.907 31 69.969 31H56V0zm9.658 23.05h3.782c6.02 0 6.898-4.816 6.898-7.724 0-1.95-.62-7.38-7.599-7.38h-3.081V23.05zM29 0v31h26v-7.952H38.502v-3.862h16.492v-7.374H38.502V7.947h16.492V0zM0 0v7.947h8.707V31h9.576V7.947H27V0z"></path></svg>