<svg xmlns="http://www.w3.org/2000/svg" width="331.588" height="84.741" viewBox="0 0 87.733 22.421"><path d="M45.014 16.584q.757 0 1.322.308.577.308.885.808v-1.014h2.195v7.149q0 .988-.398 1.784-.385.808-1.193 1.283-.796.475-1.99.475-1.591 0-2.58-.757-.987-.745-1.129-2.028h2.17q.102.41.487.642.385.243.95.243.68 0 1.078-.397.41-.385.41-1.245V22.82q-.32.5-.885.821-.565.308-1.322.308-.886 0-1.604-.449-.719-.462-1.142-1.296-.411-.847-.411-1.951t.41-1.938q.424-.834 1.143-1.283.718-.45 1.604-.45zm2.207 3.683q0-.821-.462-1.296-.449-.475-1.103-.475-.655 0-1.117.475-.449.462-.449 1.283t.45 1.31q.461.474 1.116.474.654 0 1.103-.475.462-.475.462-1.296m3.35-.013q0-1.104.41-1.938.424-.834 1.143-1.283.719-.45 1.604-.45.757 0 1.322.309.577.308.886.808v-1.014h2.194v7.161h-2.194v-1.013q-.321.5-.899.808-.565.308-1.322.308-.872 0-1.591-.449-.719-.462-1.142-1.296-.411-.847-.411-1.951m5.365.013q0-.821-.463-1.296-.449-.475-1.103-.475-.655 0-1.117.475-.449.462-.449 1.283t.45 1.31q.461.474 1.116.474.654 0 1.103-.475.463-.475.463-1.296m5.98-2.387q.385-.59.963-.924.577-.347 1.283-.347v2.323h-.603q-.822 0-1.232.36-.411.346-.411 1.232v3.323h-2.195v-7.16h2.195zm2.862 2.374q0-1.104.41-1.938.424-.834 1.143-1.283.718-.45 1.604-.45.706 0 1.283.296.59.295.924.795v-3.323h2.195v9.496h-2.195v-1.026q-.308.513-.885.821-.565.308-1.322.308-.886 0-1.604-.449-.719-.462-1.142-1.296-.411-.847-.411-1.951m5.364.013q0-.821-.462-1.296-.449-.475-1.103-.475-.655 0-1.117.475-.449.462-.449 1.283t.45 1.31q.461.474 1.116.474.654 0 1.103-.475.462-.475.462-1.296m10.537-.116q0 .308-.039.642h-4.966q.051.667.423 1.027.385.346.937.346.821 0 1.142-.693h2.336q-.18.706-.654 1.27-.462.565-1.168.886t-1.579.321q-1.052 0-1.874-.449-.82-.45-1.283-1.283-.462-.835-.462-1.951t.45-1.95q.461-.835 1.283-1.284.82-.45 1.886-.45 1.04 0 1.848.437.809.436 1.258 1.245.462.808.462 1.886m-2.246-.577q0-.565-.385-.899-.385-.333-.963-.333-.551 0-.936.32-.373.322-.462.912zm7.764-2.965q1.258 0 2.002.822.758.808.758 2.233v4.183h-2.182V19.96q0-.719-.372-1.117t-1.001-.398-1.001.398q-.373.398-.373 1.117v3.888h-2.194v-7.16h2.194v.949q.334-.475.899-.744.565-.283 1.27-.283z" style="fill:#fff;fill-opacity:1" transform="translate(-1.224 -8.595)"></path><path d="M7.433 8.595c-3.44 0-6.21 2.77-6.21 6.21v10.002c0 3.44 2.77 6.209 6.21 6.209H32.84c3.44 0 6.21-2.77 6.21-6.21V14.805c0-3.44-2.77-6.21-6.21-6.21zm.336 4.262h9.778l.962 2.712h-3.673v11.185H11.45V15.569H7.769Zm10.64 0h3.602l3.445 10.492 3.464-10.492h3.583l-4.929 13.897h-4.236z" style="fill:#79c447;fill-opacity:1" transform="translate(-1.224 -8.595)"></path></svg>