<svg viewBox="0 0 30 11.833" width="130" xmlns="http://www.w3.org/2000/svg">
    <circle cx="5.917" cy="5.917" fill="#1c4980" r="5.917" />
    <path
        d="m4.2754 8.4964v-.5626c-.353.5362-.7854.7647-1.4296.7647-1.0237 0-1.5973-.589-1.5973-1.6438v-3.3051h1.2354v3.0503c0 .5714.2648.8527.7942.8527.6089 0 .9971-.3691.9971-.9317v-2.9713h1.2354v4.7468h-1.2354z"
        fill="#fff" />
    <path
        d="m7.9198 3.7496v.6857c.353-.5362.7854-.7648 1.4296-.7648 1.0237 0 1.5973.589 1.5973 1.6438v3.1821h-1.2354v-2.9272c0-.5626-.2648-.8527-.7942-.8527-.6089 0-.9971.3692-.9971.9318v2.8481h-1.2354v-4.7468h1.2354z"
        fill="#fff" />
    <g fill="#1c4980">
        <path
            d="m15.06 5.2791c-.0088-.4307-.3001-.6417-.8913-.6417-.4324 0-.7148.1758-.7148.4396 0 .1934.0882.2637.4324.3692l1.562.4483c.6266.1846.9354.5802.9354 1.1955 0 .4658-.2118.9054-.5648 1.1867s-.856.4219-1.5178.4219c-1.4472 0-2.215-.5362-2.2503-1.5822h1.209c.053.2549.1059.3516.2383.4483.1588.1143.4059.1671.7324.1671.5736 0 .9177-.1759.9177-.4659 0-.1934-.1059-.2901-.4147-.3868l-1.4737-.4571c-.4589-.1495-.6089-.2285-.7766-.3956-.1677-.1846-.2648-.4571-.2648-.7735 0-.9757.7501-1.5822 1.9591-1.5822 1.2796 0 2.0561.6065 2.0738 1.6086h-1.1913z" />
        <path
            d="m19.3489 4.6637h-.6883v2.5844c0 .4219.0795.5186.406.5186.0971 0 .1588-.0088.2824-.0264v.8614c-.2294.0703-.4324.0967-.7148.0967-.8119 0-1.209-.3691-1.209-1.1163v-2.9183h-.6089v-.8175h.6089v-1.2746h1.2354v1.2746h.6883v.8175z" />
        <path
            d="m24.5642 6.2196c0 1.5295-.9002 2.4789-2.3562 2.4789-1.4649 0-2.3561-.9493-2.3561-2.514 0-1.5559.8913-2.514 2.3474-2.514 1.4913 0 2.365.9405 2.365 2.5492zm-3.4769-.0352c0 .9142.45 1.5207 1.1207 1.5207.6619 0 1.1208-.6153 1.1208-1.5032 0-.9318-.4413-1.5383-1.1208-1.5383-.6706 0-1.1207.6065-1.1207 1.5207z" />
        <path
            d="m26.6819 4.4528c.3001-.5274.7236-.7824 1.3237-.7824.5736 0 1.1648.2989 1.4825.7472.3177.4395.5119 1.1075.5119 1.7756 0 1.4416-.8472 2.514-1.9944 2.514-.6001 0-1.0237-.2461-1.3237-.7735v2.4789h-1.2355v-6.663h1.2355zm0 1.7405c0 .8878.4147 1.4856 1.0413 1.4856.6177 0 1.0413-.5978 1.0413-1.468 0-.9142-.4147-1.5119-1.0413-1.5119s-1.0413.5977-1.0413 1.4944z" />
    </g>
</svg>