<svg xmlns="http://www.w3.org/2000/svg" viewBox="0 0 524.9 86.49">
    <defs>
        <style>
            .cls-1 {
                fill: #ff4406;
            }

            .cls-2 {
                fill: #fff;
            }

            .cls-3 {
                fill: #292929;
            }
        </style>
    </defs>
    <title>Asset 3</title>
    <g id="Layer_2" data-name="Layer 2">
        <g id="Layer_1-2" data-name="Layer 1">
            <rect class="cls-1" x="0.11" y="7.11" width="78.98" height="79.27" rx="8.4" ry="8.4"
                transform="translate(-0.17 0.14) rotate(-0.21)" />
            <path class="cls-2"
                d="M7.55,27.25s.87-4,4.37-4.12c2.93-.11,13.92,0,17.46,0a4.15,4.15,0,0,1,2.68,1,4.73,4.73,0,0,1,1.68,3.65A4.24,4.24,0,0,1,32.33,31a4.56,4.56,0,0,1-3.1,1.14H15.55l7.56,11.18s2.38,3.13.06,5-4.5,2.44-6.43.63c-1.58-1.48-7.31-11.41-9.37-15a5.56,5.56,0,0,1-.7-3.63A13.16,13.16,0,0,1,7.55,27.25Z" />
            <path class="cls-2"
                d="M35.61,44.79,45.78,27s3.08-3.5,6.42-.66a4.67,4.67,0,0,1,1.16,6.16L32.78,68s-1.58,2.67-6.08.34S25.78,61,25.78,61Z" />
            <path class="cls-2"
                d="M45.61,64.21S44.49,60,49.11,60s15.13,0,15.13,0L56,47.59s-1.17-2.38,1.66-4.42A4.5,4.5,0,0,1,62.7,43a2,2,0,0,1,.68.65L72.74,58A6.5,6.5,0,0,1,73,64.21a14.63,14.63,0,0,1-1.23,1.86,6.64,6.64,0,0,1-5.25,2.52H48.11S45.32,68.29,45.61,64.21Z" />
            <path class="cls-3"
                d="M135.41,47.89q-1.93,7.68-4.11,15.26t-4.6,15.26H115.47q-1.74-4.25-3.78-10.11t-4.23-12.78Q105.29,48.6,103,40.87T98.58,25.26h15.2q.78,3.64,1.7,7.93c.62,2.87,1.27,5.81,2,8.84s1.4,6.08,2.14,9.15,1.51,6,2.29,8.84c.84-3,1.66-6,2.47-9.1s1.58-6.14,2.32-9.14,1.46-5.89,2.13-8.69,1.28-5.4,1.79-7.83H141c.51,2.43,1.1,5,1.74,7.83s1.32,5.69,2,8.69,1.46,6,2.23,9.14,1.58,6.14,2.42,9.1q1.17-4.25,2.34-8.84T154,42c.68-3,1.33-6,2-8.84s1.18-5.5,1.7-7.93h15q-2.14,7.88-4.42,15.61t-4.47,14.65q-2.17,6.93-4.27,12.78t-3.83,10.11H144.42q-2.43-7.68-4.75-15.26T135.41,47.89Z" />
            <path class="cls-3"
                d="M180.28,78.41v-76L194.71,0V25.46a31.08,31.08,0,0,1,3.72-1,22.76,22.76,0,0,1,4.41-.45,26.2,26.2,0,0,1,10.31,1.77,16.07,16.07,0,0,1,6.58,5,19.6,19.6,0,0,1,3.48,7.68,44.3,44.3,0,0,1,1,9.9v30H209.81V50.22q0-7.28-1.79-10.31t-6.63-3a18.21,18.21,0,0,0-3.64.35c-1.13.24-2.14.49-3,.76V78.41Z" />
            <path class="cls-3"
                d="M255.59,23.85a32.14,32.14,0,0,1,10.65,1.51,16.42,16.42,0,0,1,6.83,4.35,16.11,16.11,0,0,1,3.63,6.87,35.25,35.25,0,0,1,1.06,9V76.89q-3.09.7-8.61,1.67a79.46,79.46,0,0,1-13.36,1,40.49,40.49,0,0,1-9-.91,19.09,19.09,0,0,1-6.92-3,13.47,13.47,0,0,1-4.45-5.41A19.38,19.38,0,0,1,233.91,62a16.08,16.08,0,0,1,1.79-7.88A14.08,14.08,0,0,1,240.49,49a21.23,21.23,0,0,1,6.88-2.77,36.46,36.46,0,0,1,8-.86,43.6,43.6,0,0,1,5,.25,21.55,21.55,0,0,1,3.53.66V44.86a8.51,8.51,0,0,0-2.23-6.16q-2.22-2.33-7.74-2.32a47.38,47.38,0,0,0-7.26.55,29.76,29.76,0,0,0-6.2,1.57l-1.84-12.13c.84-.27,1.89-.55,3.15-.86s2.63-.57,4.11-.81,3.05-.43,4.7-.6A48.27,48.27,0,0,1,255.59,23.85Zm1.17,44.05c1.41,0,2.77,0,4.06-.1a29.29,29.29,0,0,0,3.1-.3V56.08a25.18,25.18,0,0,0-2.61-.41,29.17,29.17,0,0,0-3.2-.2,28.72,28.72,0,0,0-3.82.25,9.7,9.7,0,0,0-3.15,1A5.66,5.66,0,0,0,249,58.6a5.51,5.51,0,0,0-.77,3c0,2.35.76,4,2.27,4.9A12.25,12.25,0,0,0,256.76,67.9Z" />
            <path class="cls-3"
                d="M290.35,12,304.77,9.6V25.26H322.1V37.79H304.77V56.48a15.35,15.35,0,0,0,1.6,7.58c1.06,1.89,3.21,2.83,6.43,2.83a26,26,0,0,0,4.8-.46,23.77,23.77,0,0,0,4.5-1.26l2,11.72a40,40,0,0,1-5.81,1.92,32.39,32.39,0,0,1-7.84.81A24.86,24.86,0,0,1,300.7,78a15.42,15.42,0,0,1-6.19-4.64,17.62,17.62,0,0,1-3.24-7.23,44,44,0,0,1-.92-9.4Z" />
            <path class="cls-3"
                d="M364.5,38.6c-1.3-.34-2.81-.69-4.55-1.06a27.11,27.11,0,0,0-5.62-.56,26.53,26.53,0,0,0-3.24.25,18.88,18.88,0,0,0-2.86.56V78.41H333.81V28.09A83.8,83.8,0,0,1,343,25.41a50.61,50.61,0,0,1,11.76-1.26c.77,0,1.71.05,2.81.15s2.19.24,3.29.4,2.19.38,3.29.61a15,15,0,0,1,2.8.86Z" />
            <path class="cls-3"
                d="M418.12,76.59a77.54,77.54,0,0,1-9.48,2.07,74.84,74.84,0,0,1-12.2,1,27.9,27.9,0,0,1-10.79-1.82,16.38,16.38,0,0,1-6.83-5.1,20.28,20.28,0,0,1-3.58-7.83,43.9,43.9,0,0,1-1.07-10V25.26H388.6V53.05q0,7.28,1.84,10.5t6.87,3.24c1,0,2.13-.05,3.29-.15s2.2-.22,3.1-.36v-41h14.42Z" />
            <path class="cls-3"
                d="M431.67,27.08A78.19,78.19,0,0,1,441.16,25a74.76,74.76,0,0,1,12.2-1,28.54,28.54,0,0,1,10.79,1.77,16.25,16.25,0,0,1,6.83,5,19.88,19.88,0,0,1,3.58,7.68,42.51,42.51,0,0,1,1.06,9.9v30H461.2V50.22q0-7.28-1.84-10.31t-6.87-3c-1,0-2.13,0-3.29.15s-2.2.22-3.1.36v41H431.67Z" />
            <path class="cls-3"
                d="M503.31,67.6a13.83,13.83,0,0,0,5.61-.81,3.15,3.15,0,0,0,1.65-3.13,3.84,3.84,0,0,0-2.13-3.19A39.91,39.91,0,0,0,502,57.39a61.7,61.7,0,0,1-6.14-2.73,18.08,18.08,0,0,1-4.7-3.38,13.81,13.81,0,0,1-3-4.7A18.09,18.09,0,0,1,487,40a14.46,14.46,0,0,1,5.33-11.82q5.33-4.35,14.62-4.34a45.17,45.17,0,0,1,8.9.85,41.23,41.23,0,0,1,6.78,1.87l-2.52,11.72a52.44,52.44,0,0,0-5.47-1.61,28.62,28.62,0,0,0-6.63-.71c-4.52,0-6.77,1.31-6.77,3.94a4.11,4.11,0,0,0,.29,1.62,3.4,3.4,0,0,0,1.16,1.36,16.17,16.17,0,0,0,2.37,1.42c1,.51,2.27,1.07,3.82,1.68a58.14,58.14,0,0,1,7.84,3.62,18.66,18.66,0,0,1,4.89,3.85,11.93,11.93,0,0,1,2.52,4.59,21.33,21.33,0,0,1,.73,5.84q0,7.88-5.67,11.9t-16,4a43.5,43.5,0,0,1-17.52-3.23l2.42-12.23a45.62,45.62,0,0,0,7.55,2.38A35.39,35.39,0,0,0,503.31,67.6Z" />
        </g>
    </g>
</svg>