<svg xmlns="http://www.w3.org/2000/svg" xmlns:xlink="http://www.w3.org/1999/xlink" viewBox="0 0 300 300"><defs><style>.cls-1{fill:none;}.cls-2{fill:url(#linear-gradient);}.cls-3{fill:url(#linear-gradient-2);}.cls-4{fill:url(#linear-gradient-3);}.cls-5{fill:#cecece;}</style><linearGradient id="linear-gradient" x1="265.67" y1="168.45" x2="35.67" y2="168.45" gradientUnits="userSpaceOnUse"><stop offset="0" stop-opacity="0"/><stop offset="0.16" stop-color="#030000" stop-opacity="0.01"/><stop offset="0.29" stop-color="#0d0202" stop-opacity="0.05"/><stop offset="0.41" stop-color="#1e0304" stop-opacity="0.12"/><stop offset="0.52" stop-color="#360608" stop-opacity="0.21"/><stop offset="0.63" stop-color="#550a0c" stop-opacity="0.33"/><stop offset="0.74" stop-color="#7b0e12" stop-opacity="0.48"/><stop offset="0.84" stop-color="#a71318" stop-opacity="0.66"/><stop offset="0.94" stop-color="#da1920" stop-opacity="0.86"/><stop offset="1" stop-color="#ff1d25"/></linearGradient><linearGradient id="linear-gradient-2" x1="79.99" y1="64.51" x2="23.22" y2="64.51" xlink:href="#linear-gradient"/><linearGradient id="linear-gradient-3" x1="280.88" y1="64.51" x2="224.11" y2="64.51" xlink:href="#linear-gradient"/></defs><g id="Layer_2" data-name="Layer 2"><rect class="cls-1" width="300" height="300"/></g><g id="Layer_1" data-name="Layer 1"><circle class="cls-2" cx="150.67" cy="168.45" r="115"/><path class="cls-3" d="M42,94.71,23.22,34.31,80,55.27S54.71,68.1,42,94.71Z"/><path class="cls-4" d="M262.13,94.71l18.75-60.4-56.77,21S249.39,68.1,262.13,94.71Z"/><path class="cls-5" d="M70.49,150.9l40.18,17.82a6.45,6.45,0,0,1,3.83,5.89v4.61a6.45,6.45,0,0,1-7.15,6.41l-33.79-3.76a6.41,6.41,0,0,1-5.38-4.31l-6.4-18.68A6.45,6.45,0,0,1,70.49,150.9Z"/><path class="cls-5" d="M229.51,150.9l-40.18,17.82a6.45,6.45,0,0,0-3.83,5.89v4.61a6.45,6.45,0,0,0,7.15,6.41l33.79-3.76a6.41,6.41,0,0,0,5.38-4.31l6.4-18.68A6.45,6.45,0,0,0,229.51,150.9Z"/><path class="cls-5" d="M100.77,225h97a6.13,6.13,0,0,1,4.64,10.13C193,246.08,174.92,262,150,262s-43.67-15.78-53.75-26.73A6.12,6.12,0,0,1,100.77,225Z"/></g></svg>