<svg data-v-73ae21c6="" xmlns="http://www.w3.org/2000/svg" width="200" height="200" viewBox="0 0 264 280" aria-labelledby="avatar" role="avatar"><title data-v-73ae21c6="" id="avatar" lang="en"> avatar </title><g data-v-0ba2a0ae="" data-v-73ae21c6="" id="background" fill="#65C9FF" data-darkreader-inline-fill="" style="--darkreader-inline-fill:#79e7ff;"><!----></g><g data-v-ec281f06="" data-v-73ae21c6="" id="body" transform="translate(32.000000, 36.000000)"><path data-v-ec281f06="" d="M124,144.610951 L124,163 L128,163 L128,163 C167.764502,163 200,195.235498 200,235 L200,244 L0,244 L0,235 C-4.86974701e-15,195.235498 32.235498,163 72,163 L72,163 L76,163 L76,144.610951 C58.7626345,136.422372 46.3722246,119.687011 44.3051388,99.8812385 C38.4803105,99.0577866 34,94.0521096 34,88 L34,74 C34,68.0540074 38.3245733,63.1180731 44,62.1659169 L44,56 L44,56 C44,25.072054 69.072054,5.68137151e-15 100,0 L100,0 L100,0 C130.927946,-5.68137151e-15 156,25.072054 156,56 L156,62.1659169 C161.675427,63.1180731 166,68.0540074 166,74 L166,88 C166,94.0521096 161.51969,99.0577866 155.694861,99.8812385 C153.627775,119.687011 141.237365,136.422372 124,144.610951 Z" fill="#FD9841" data-darkreader-inline-fill="" style="--darkreader-inline-fill:#8c5726;"/><g data-v-ec281f06="" id="neck-shadow"><mask data-v-ec281f06="" id="neck-shadow-mask"><path data-v-ec281f06="" d="M124,144.610951 L124,163 L128,163 L128,163 C167.764502,163 200,195.235498 200,235 L200,244 L0,244 L0,235 C-4.86974701e-15,195.235498 32.235498,163 72,163 L72,163 L76,163 L76,144.610951 C58.7626345,136.422372 46.3722246,119.687011 44.3051388,99.8812385 C38.4803105,99.0577866 34,94.0521096 34,88 L34,74 C34,68.0540074 38.3245733,63.1180731 44,62.1659169 L44,56 L44,56 C44,25.072054 69.072054,5.68137151e-15 100,0 L100,0 L100,0 C130.927946,-5.68137151e-15 156,25.072054 156,56 L156,62.1659169 C161.675427,63.1180731 166,68.0540074 166,74 L166,88 C166,94.0521096 161.51969,99.0577866 155.694861,99.8812385 C153.627775,119.687011 141.237365,136.422372 124,144.610951 Z" fill="white" data-darkreader-inline-fill="" style="--darkreader-inline-fill:#2d2f30;"/></mask><path data-v-ec281f06="" mask="url(#neck-shadow-mask)" d="M156,79 L156,102 C156,132.927946 130.927946,158 100,158 C69.072054,158 44,132.927946 44,102 L44,79 L44,94 C44,124.927946 69.072054,150 100,150 C130.927946,150 156,124.927946 156,94 L156,79 Z" fill="#000000" fill-opacity="0.100000001" data-darkreader-inline-fill="" style="--darkreader-inline-fill:#131313;"/></g></g><g data-v-cf7ca7ae="" data-v-73ae21c6="" id="clothes" transform="translate(0.000000, 170.000000)"><mask data-v-cf7ca7ae="" id="shadowy-mask"><path data-v-cf7ca7ae="" d="M108,13.0708856 C90.0813006,15.075938 76.2798424,20.5518341 76.004203,34.6449676 C50.1464329,45.5680933 32,71.1646257 32,100.999485 L32,100.999485 L32,110 L232,110 L232,100.999485 C232,71.1646257 213.853567,45.5680933 187.995797,34.6449832 C187.720158,20.5518341 173.918699,15.075938 156,13.0708856 L156,32 L156,32 C156,45.254834 145.254834,56 132,56 L132,56 C118.745166,56 108,45.254834 108,32 L108,13.0708856 Z" transform="translate(0, 0)" fill="white"/></mask><g data-v-cf7ca7ae="" id="hoodie"><path data-v-cf7ca7ae="" transform="translate(0, 0)" fill="#929598" d="M108,13.0708856 C90.0813006,15.075938 76.2798424,20.5518341 76.004203,34.6449676 C50.1464329,45.5680933 32,71.1646257 32,100.999485 L32,100.999485 L32,110 L232,110 L232,100.999485 C232,71.1646257 213.853567,45.5680933 187.995797,34.6449832 C187.720158,20.5518341 173.918699,15.075938 156,13.0708856 L156,32 L156,32 C156,45.254834 145.254834,56 132,56 L132,56 C118.745166,56 108,45.254834 108,32 L108,13.0708856 Z"/></g><g data-v-cf7ca7ae="" id="straps"><path data-v-cf7ca7ae="" transform="translate(0, 0)" fill="#F4F4F4" fill-rule="evenodd" mask="url(#shadowy-mask)" d="M102,61.7390531 L102,110 L95,110 L95,58.1502625 C97.2037542,59.4600576 99.5467694,60.6607878 102,61.7390531 Z M169,58.1502625 L169,98.5 C169,100.432997 167.432997,102 165.5,102 C163.567003,102 162,100.432997 162,98.5 L162,61.7390531 C164.453231,60.6607878 166.796246,59.4600576 169,58.1502625 Z"/></g><g data-v-cf7ca7ae="" id="hoodie-shadow"><path data-v-cf7ca7ae="" transform="translate(263, 0) scale(-1, 1)" fill-opacity="0.16" fill="#000000" fill-rule="evenodd" mask="url(#shadowy-mask)" d="M90.9601329,12.7243537 C75.9093095,15.5711782 65.5,21.2428847 65.5,32.3076923 C65.5,52.0200095 98.5376807,68 132,68 C165.462319,68 198.5,52.0200095 198.5,32.3076923 C198.5,21.2428847 188.09069,15.5711782 173.039867,12.7243537 C182.124921,16.0744598 188,21.7060546 188,31.0769231 C188,51.4689754 160.178795,68 132,68 C103.821205,68 76,51.4689754 76,31.0769231 C76,21.7060546 81.8750795,16.0744598 90.9601329,12.7243537 Z"/></g></g><g data-v-3394ada4="" data-v-73ae21c6="" id="face" transform="translate(76.000000, 82.000000)"><g data-v-7e537661="" data-v-3394ada4="" id="eyes" transform="translate(0.000000, 8.000000)"><g data-v-7e537661="" id="eye-a"><circle data-v-7e537661="" transform="translate(16, 13)" fill-opacity="0.699999988" fill="#000000" cx="14" cy="10" r="6"/></g><g data-v-7e537661="" id="eye-b"><circle data-v-7e537661="" transform="translate(68, 13)" fill-opacity="0.699999988" fill="#000000" cx="14" cy="10" r="6"/></g></g><g data-v-af3ff330="" data-v-3394ada4="" id="eyebrow" transform="translate(0.000000, 0.000000)"><g data-v-af3ff330="" id="eyebrow-a"><path data-v-af3ff330="" transform="translate(0, 0)" fill-opacity="0.599999964" fill="#000000" fill-rule="nonzero" d="M26.0390934,6.21012364 C20.2775554,6.98346216 11.2929313,12.0052479 12.04426,17.8178111 C12.0689481,18.0080543 12.3567302,18.0673468 12.4809077,17.9084937 C14.9674041,14.7203351 34.1927973,10.0365481 41.1942673,11.0147151 C41.8350523,11.1044465 42.2580662,10.4430343 41.8210501,10.0302067 C38.0765663,6.49485426 31.2003792,5.51224825 26.0390934,6.21012364" data-darkreader-inline-fill="" style="--darkreader-inline-fill:#ffffff;"/></g><g data-v-af3ff330="" id="eyebrow-b"><path data-v-af3ff330="" transform="translate(171, 0) scale(-1, 1)" fill-opacity="0.599999964" fill="#000000" fill-rule="nonzero" d="M85.0390934,6.21012364 C79.2775554,6.98346216 70.2929313,12.0052479 71.04426,17.8178111 C71.0689481,18.0080543 71.3567302,18.0673468 71.4809077,17.9084937 C73.9674041,14.7203351 93.1927973,10.0365481 100.194267,11.0147151 C100.835052,11.1044465 101.258066,10.4430343 100.82105,10.0302067 C97.0765663,6.49485426 90.2003792,5.51224825 85.0390934,6.21012364" data-darkreader-inline-fill="" style="--darkreader-inline-fill:#ffffff;"/></g></g><g data-v-1eabde56="" data-v-3394ada4="" id="nose" transform="translate(28.000000, 40.000000)" fill="#00000" fill-opacity="0.16"><path data-v-1eabde56="" d="M16,8 C16,12.418278 21.372583,16 28,16 L28,16 C34.627417,16 40,12.418278 40,8"/></g><g data-v-22322966="" data-v-3394ada4="" id="mouth" transform="translate(2.000000, 52.000000)"><g data-v-22322966="" id="mouth"><path data-v-22322966="" transform="translate(0, 0)" fill-opacity="0.699999988" fill="#000000" fill-rule="evenodd" d="M40,16 C40,21.371763 46.1581544,25 54,25 C61.8418456,25 68,21.371763 68,16 C68,14.8954305 67.050301,14 66,14 C64.7072748,14 64.1302316,14.9051755 64,16 C62.7575758,18.9378973 59.6832595,20.7163149 54,21 C48.3167405,20.7163149 45.2424242,18.9378973 44,16 C43.8697684,14.9051755 43.2927252,14 42,14 C40.949699,14 40,14.8954305 40,16 Z"/></g></g><g data-v-df1a35de="" data-v-3394ada4="" id="top" transform="translate(-76.000000, -82.000000)"/><g data-v-4c8a78be="" data-v-3394ada4="" id="facialHair" transform="translate(-27.000000, -10.000000)"/></g><g data-v-66637556="" data-v-73ae21c6="" id="accessories" transform="translate(62.000000, 85.000000)"/></svg>