<svg id="Layer_1" data-name="Layer 1" xmlns="http://www.w3.org/2000/svg" width='25' height='25'
    viewBox="0 0 23.49 23.49">
    <defs>
        <style>
            .cls-1 {
                fill: cyan;
            }

            .cls-2 {
                fill: cyan;
            }

            .cls-3 {
                fill: blue;
            }
        </style>
    </defs>
    <path class="cls-1" d="M5.27,5.36l7.94,17.48a1.26,1.26,0,0,0,2,.37l3.94-3.93,3.93-3.93a1.27,1.27,0,0,0-.37-2Z"
        transform="translate(0 -0.09)" />
    <path d="M0,.09l10.6,22.5a1.23,1.23,0,0,0,2,.35L17.7,17.8l5.14-5.14a1.22,1.22,0,0,0-.34-2Z"
        transform="translate(0 -0.09)" />
    <path class="cls-2"
        d="M5.94,5.68,5.59,6a1,1,0,0,0-.12,1.21l1,1.59A1,1,0,0,0,8,9l.89-.89A1,1,0,0,0,8.74,6.6l-1.59-1A1,1,0,0,0,5.94,5.68Z"
        transform="translate(0 -0.09)" />
    <path class="cls-2" d="M1.58,1.67,4,5.38a.52.52,0,0,0,.81.08l.54-.54a.53.53,0,0,0-.08-.81Z"
        transform="translate(0 -0.09)" />
    <path class="cls-3"
        d="M9.78,8.54,8.45,9.87a1.07,1.07,0,0,0-.14,1.35l.92,1.39a1.07,1.07,0,0,0,1.66.17l1.8-1.8a1.08,1.08,0,0,0-.17-1.66L11.13,8.4A1.07,1.07,0,0,0,9.78,8.54Z"
        transform="translate(0 -0.09)" />
    <path class="cls-2"
        d="M13.54,11.48l-2.16,2.15a1.32,1.32,0,0,0-.17,1.65l1.94,3a1.32,1.32,0,0,0,2,.2l1.58-1.58,1.58-1.58a1.31,1.31,0,0,0-.21-2l-2.94-1.93A1.29,1.29,0,0,0,13.54,11.48Z"
        transform="translate(0 -0.09)" />
</svg>