<svg xmlns="http://www.w3.org/2000/svg" viewBox="0 0 1440 320">
    <path fill="#0099ff" fill-opacity="0.4"
        d="M0,128L34.3,122.7C68.6,117,137,107,206,133.3C274.3,160,343,224,411,218.7C480,213,549,139,617,133.3C685.7,128,754,192,823,181.3C891.4,171,960,85,1029,96C1097.1,107,1166,213,1234,229.3C1302.9,245,1371,171,1406,133.3L1440,96L1440,320L1405.7,320C1371.4,320,1303,320,1234,320C1165.7,320,1097,320,1029,320C960,320,891,320,823,320C754.3,320,686,320,617,320C548.6,320,480,320,411,320C342.9,320,274,320,206,320C137.1,320,69,320,34,320L0,320Z">
    </path>
    <path fill="#0099ff" fill-opacity="0.4"
        d="M0,32L34.3,69.3C68.6,107,137,181,206,202.7C274.3,224,343,192,411,154.7C480,117,549,75,617,90.7C685.7,107,754,181,823,208C891.4,235,960,213,1029,186.7C1097.1,160,1166,128,1234,138.7C1302.9,149,1371,203,1406,229.3L1440,256L1440,320L1405.7,320C1371.4,320,1303,320,1234,320C1165.7,320,1097,320,1029,320C960,320,891,320,823,320C754.3,320,686,320,617,320C548.6,320,480,320,411,320C342.9,320,274,320,206,320C137.1,320,69,320,34,320L0,320Z">
    </path>
    <path fill="#0099ff" fill-opacity="0.4"
        d="M0,288L34.3,266.7C68.6,245,137,203,206,181.3C274.3,160,343,160,411,154.7C480,149,549,139,617,149.3C685.7,160,754,192,823,181.3C891.4,171,960,117,1029,101.3C1097.1,85,1166,107,1234,133.3C1302.9,160,1371,192,1406,208L1440,224L1440,320L1405.7,320C1371.4,320,1303,320,1234,320C1165.7,320,1097,320,1029,320C960,320,891,320,823,320C754.3,320,686,320,617,320C548.6,320,480,320,411,320C342.9,320,274,320,206,320C137.1,320,69,320,34,320L0,320Z">
    </path>
    <path fill="#0099ff" fill-opacity="0.4"
        d="M0,32L24,80C48,128,96,224,144,256C192,288,240,256,288,224C336,192,384,160,432,165.3C480,171,528,213,576,240C624,267,672,277,720,256C768,235,816,181,864,154.7C912,128,960,128,1008,117.3C1056,107,1104,85,1152,96C1200,107,1248,149,1296,170.7C1344,192,1392,192,1416,192L1440,192L1440,320L1416,320C1392,320,1344,320,1296,320C1248,320,1200,320,1152,320C1104,320,1056,320,1008,320C960,320,912,320,864,320C816,320,768,320,720,320C672,320,624,320,576,320C528,320,480,320,432,320C384,320,336,320,288,320C240,320,192,320,144,320C96,320,48,320,24,320L0,320Z">
    </path>
</svg>