<?xml version="1.0" encoding="utf-8"?>
<!-- Generator: Adobe Illustrator 24.1.2, SVG Export Plug-In . SVG Version: 6.00 Build 0)  -->
<svg version="1.1" id="Layer_4"
	xmlns="http://www.w3.org/2000/svg"
	xmlns:xlink="http://www.w3.org/1999/xlink" x="0px" y="0px" viewBox="0 0 960 340.25" style="enable-background:new 0 0 960 340.25;" xml:space="preserve">
	<style type="text/css">
	.st0{fill:#657C71;}
	.st1{fill:#979FA3;}
	.st2{fill:#C8CFC5;}
	.st3{fill:#FCF9F9;}
	.st4{fill:#B5815E;}
	.st5{fill:#834F27;}
	.st6{fill:#B6C94D;}
	.st7{fill:#728337;}
	.st8{fill:#BCE63B;}
	.st9{fill:#99BC32;}
	.st10{fill:#FFF13E;}
	.st11{fill:#FFFFFF;}
	.st12{fill:#C8F3FD;}
	.st13{fill:#97BB3C;}
	.st14{fill:#D2F64C;}
	</style>
	<g id="Cloud">
		<g id="XMLID_37_">
			<path id="XMLID_399_" class="st11" d="M568.43,76.25h104.94c2.93,0,3.63-1.09,3.63-4.02v-9.54c0-2.93-0.7-5.44-3.63-5.44h-14.84
			c-2.93,0-6.53-2.23-6.53-5.16v-6.36c0-2.93-1.14-5.48-4.07-5.48h-12.72c-2.93,0-4.21-2.19-4.21-5.12v-5.3
			c0-2.93-3.46-5.58-6.39-5.58h-15.9c-2.93,0-5.71,2.65-5.71,5.58v0.15c0,2.93-1.96,5.27-4.89,5.27h-8.48
			c-2.93,0-4.63,2.25-4.63,5.18v7.42c0,2.93-3.04,5.4-5.97,5.4h-10.6c-2.93,0-5.43,2.27-5.43,5.2v13.78
			C563,75.16,565.5,76.25,568.43,76.25z"/>
			<path id="XMLID_400_" class="st12" d="M576.74,75.25h85.05c2.37,0,5.21-1.8,5.21-4.22v-7.89c0-2.42-2.84-4.89-5.21-4.89h-12.03
			c-2.37,0-5.76-1.45-5.76-3.87v-5.26c0-2.42-0.46-4.87-2.83-4.87h-10.31c-2.37,0-4.86-1.47-4.86-3.89v-4.38
			c0-2.42-1.36-3.73-3.73-3.73h-12.89c-2.37,0-4.38,1.41-4.38,3.83v0.21c0,2.42-1.84,3.96-4.21,3.96h-6.87
			c-2.37,0-5.92,2.07-5.92,4.49v6.13c0,2.42-0.3,4.37-2.67,4.37h-8.59c-2.37,0-4.74,1.97-4.74,4.39v11.39
			C572,73.45,574.36,75.25,576.74,75.25z"/>
		</g>
		<g id="XMLID_38_">
			<path id="XMLID_401_" class="st11" d="M800.08,160.25h83.23c2.32,0,3.69-2.16,3.69-4.58v-7.9c0-2.43-1.37-5.51-3.69-5.51h-11.77
			c-2.32,0-4.54-0.84-4.54-3.27v-5.27c0-2.43-1.54-4.46-3.86-4.46h-10.09c-2.32,0-4.05-1.9-4.05-4.32v-4.39
			c0-2.43-2.04-5.29-4.36-5.29h-12.61c-2.32,0-3.03,2.48-3.03,4.91v-0.04c0,2.43-3.06,4.13-5.38,4.13h-6.73
			c-2.32,0-4.89,2.64-4.89,5.07v6.15c0,2.43-1.19,3.78-3.51,3.78h-8.41c-2.32,0-4.08,2.58-4.08,5v11.42
			C796,158.09,797.76,160.25,800.08,160.25z"/>
			<path id="XMLID_402_" class="st12" d="M806.67,159.25h67.46c1.88,0,2.87-2.57,2.87-4.58v-6.53c0-2-0.99-3.89-2.87-3.89h-9.54
			c-1.88,0-3.59-1.37-3.59-3.37v-4.36c0-2-1.35-3.27-3.23-3.27h-8.18c-1.88,0-2.6-1.98-2.6-3.99v-3.63c0-2-2.34-3.38-4.22-3.38
			h-10.22c-1.88,0-3.56,1.7-3.56,3.71v0.17c0,2-1.37,3.12-3.25,3.12h-5.45c-1.88,0-2.3,1.64-2.3,3.64v5.08c0,2-2.64,3.28-4.52,3.28
			h-6.81c-1.88,0-3.67,1.98-3.67,3.98v9.44C803,156.68,804.79,159.25,806.67,159.25z"/>
		</g>
		<g id="XMLID_36_">
			<path id="XMLID_21_" class="st11" d="M362.15,122.25h83.23c2.32,0,3.62-2.32,3.62-4.74v-7.9c0-2.43-1.3-5.35-3.62-5.35h-11.77
			c-2.32,0-4.61-1-4.61-3.43v-5.27c0-2.43-1.47-4.3-3.8-4.3h-10.09c-2.32,0-4.12-2.06-4.12-4.48v-4.39c0-2.43-1.97-6.13-4.29-6.13
			H394.1c-2.32,0-4.1,3.32-4.1,5.75v-0.04c0,2.43-1.99,4.29-4.31,4.29h-6.73c-2.32,0-3.96,2.48-3.96,4.91v6.15
			c0,2.43-2.12,3.94-4.44,3.94h-8.41c-2.32,0-4.15,2.42-4.15,4.84v11.42C358,119.93,359.83,122.25,362.15,122.25z"/>
			<path id="XMLID_20_" class="st12" d="M368.74,121.25h67.46c1.88,0,2.8-2.73,2.8-4.74v-6.53c0-2-0.92-3.73-2.8-3.73h-9.54
			c-1.88,0-3.66-1.53-3.66-3.53v-4.36c0-2-1.28-3.11-3.16-3.11h-8.18c-1.88,0-3.67-2.14-3.67-4.15v-3.63c0-2-1.27-3.22-3.15-3.22
			h-10.22c-1.88,0-4.63,1.54-4.63,3.55v0.17c0,2-0.3,3.28-2.18,3.28h-5.45c-1.88,0-2.37,1.48-2.37,3.48v5.08
			c0,2-2.57,2.44-4.45,2.44h-6.81c-1.88,0-3.74,2.82-3.74,4.82v9.44C365,118.52,366.86,121.25,368.74,121.25z"/>
		</g>
	</g>
</svg>
