<?xml version="1.0" encoding="utf-8"?>
<!-- Generator: Adobe Illustrator 24.1.2, SVG Export Plug-In . SVG Version: 6.00 Build 0)  -->
<svg version="1.1" id="Layer_4"
	xmlns="http://www.w3.org/2000/svg"
	xmlns:xlink="http://www.w3.org/1999/xlink" x="0px" y="0px" viewBox="0 0 960 340.25" style="enable-background:new 0 0 960 340.25;" xml:space="preserve">
	<style type="text/css">
	.st0{fill:#657C71;}
	.st1{fill:#979FA3;}
	.st2{fill:#C8CFC5;}
	.st3{fill:#FCF9F9;}
	.st4{fill:#B5815E;}
	.st5{fill:#834F27;}
	.st6{fill:#B6C94D;}
	.st7{fill:#728337;}
	.st8{fill:#BCE63B;}
	.st9{fill:#99BC32;}
	.st10{fill:#FFF13E;}
	.st11{fill:#FFFFFF;}
	.st12{fill:#C8F3FD;}
	.st13{fill:#97BB3C;}
	.st14{fill:#D2F64C;}
	</style>
	<g id="Mountains">
		<g id="XMLID_25_">
			<polygon id="XMLID_26_" class="st0" points="456.58,340.25 243.27,339.46 243.27,110.03"/>
			<polygon id="XMLID_22_" class="st1" points="242.54,109.24 243.27,110.03 243.27,339.46 29.96,338.67"/>
			<path id="XMLID_24_" class="st2" d="M287.25,193.1c-11.58,4.17-31.63-8.12-43.98-17.01v-66.06l60.33,65.11
			C303.6,175.15,304.84,186.77,287.25,193.1z"/>
			<path id="XMLID_23_" class="st3" d="M243.27,110.03v66.06c-6.41-4.61-10.75-8.31-10.75-8.31s-5.86,14.77-18.57,17.93
			s-9.45-10.57-9.45-10.57s-12.91-10.92-24.76,1.87l62.79-67.77L243.27,110.03z"/>
		</g>
		<g id="XMLID_27_">
			<polygon id="XMLID_35_" class="st0" points="720.56,340.25 527.39,339.66 527.39,167.59"/>
			<polygon id="XMLID_34_" class="st1" points="526.73,166.99 527.39,167.59 527.39,339.66 334.23,339.06"/>
			<path id="XMLID_31_" class="st2" d="M567.22,229.89c-10.49,3.12-28.64-6.09-39.83-12.76v-49.55l54.63,48.84
			C582.03,216.42,583.15,225.14,567.22,229.89z"/>
			<path id="XMLID_28_" class="st3" d="M527.39,167.59v49.55c-5.81-3.46-9.74-6.23-9.74-6.23s-5.31,11.08-16.82,13.45
			c-11.51,2.37-8.56-7.93-8.56-7.93s-11.69-8.19-22.42,1.4l56.87-50.83L527.39,167.59z"/>
		</g>
	</g>
</svg>
