<?xml version="1.0" encoding="utf-8"?>
<!-- Generator: Adobe Illustrator 24.1.2, SVG Export Plug-In . SVG Version: 6.00 Build 0)  -->
<svg version="1.1" id="Layer_4"
	xmlns="http://www.w3.org/2000/svg"
	xmlns:xlink="http://www.w3.org/1999/xlink" x="0px" y="0px" viewBox="0 0 960 340.25" style="enable-background:new 0 0 960 340.25;" xml:space="preserve">
	<style type="text/css">
	.st0{fill:#657C71;}
	.st1{fill:#979FA3;}
	.st2{fill:#C8CFC5;}
	.st3{fill:#FCF9F9;}
	.st4{fill:#B5815E;}
	.st5{fill:#834F27;}
	.st6{fill:#B6C94D;}
	.st7{fill:#728337;}
	.st8{fill:#BCE63B;}
	.st9{fill:#99BC32;}
	.st10{fill:#FFF13E;}
	.st11{fill:#FFFFFF;}
	.st12{fill:#C8F3FD;}
	.st13{fill:#97BB3C;}
	.st14{fill:#D2F64C;}
	</style>
	<g id="TREES">
		<g id="Tree_10_">
			<rect id="XMLID_66_" x="865.64" y="212.51" class="st4" width="9.27" height="127.19"/>
			<rect id="XMLID_65_" x="874.91" y="216.07" class="st5" width="0" height="124.18"/>
			<polygon id="XMLID_64_" class="st6" points="847.51,271.57 874.91,271.57 874.91,92.63"/>
			<polygon id="XMLID_51_" class="st7" points="874.91,92.63 874.91,271.57 901.18,271.57"/>
		</g>
		<g id="Tree_3_">
			<rect id="XMLID_42_" x="21.7" y="198.11" class="st4" width="0" height="142.14"/>
			<rect id="XMLID_41_" x="21.7" y="193.28" class="st5" width="4.87" height="145.27"/>
			<polygon id="XMLID_40_" class="st6" points="1.45,265.92 21.7,265.92 21.7,63.05"/>
			<polygon id="XMLID_39_" class="st7" points="21.7,63.05 21.7,265.92 45.97,265.92"/>
		</g>
		<g id="Tree_2_">
			<rect id="XMLID_302_" x="828.54" y="222.15" class="st4" width="6.18" height="118.1"/>
			<rect id="XMLID_303_" x="834.72" y="226.28" class="st5" width="0" height="111.64"/>
			<polygon id="XMLID_304_" class="st6" points="808.19,285.74 834.72,285.74 834.72,125.16"/>
			<polygon id="XMLID_305_" class="st7" points="834.72,125.16 834.72,285.74 861.55,285.74"/>
		</g>
		<g id="Tree_11_">
			<rect id="XMLID_70_" x="912" y="222.15" class="st4" width="6.18" height="118.1"/>
			<rect id="XMLID_69_" x="918.19" y="226.28" class="st5" width="0" height="111.64"/>
			<polygon id="XMLID_68_" class="st6" points="892.45,285.74 918.19,285.74 918.19,125.16"/>
			<polygon id="XMLID_67_" class="st7" points="918.19,125.16 918.19,285.74 945.81,285.74"/>
		</g>
		<g>
			<rect id="XMLID_306_" x="483.17" y="237.26" class="st4" width="4.55" height="102.99"/>
			<g>
				<rect id="XMLID_307_" x="485.45" y="240.81" class="st5" width="0" height="97.32"/>
				<polygon id="XMLID_308_" class="st6" points="467.77,290.81 485.45,290.81 485.45,150.25	"/>
				<polygon id="XMLID_309_" class="st7" points="485.45,150.25 485.45,290.81 506.04,290.81	"/>
			</g>
		</g>
	</g>
</svg>
