<?xml version="1.0" encoding="utf-8"?>
<!-- Generator: Adobe Illustrator 19.0.0, SVG Export Plug-In . SVG Version: 6.00 Build 0)  -->
<svg version="1.1" id="Layer_1" xmlns="http://www.w3.org/2000/svg" xmlns:xlink="http://www.w3.org/1999/xlink" x="0px" y="0px"
	 viewBox="11 -350.8 1021.4 794.2" style="enable-background:new 11 -350.8 1021.4 794.2;" xml:space="preserve">
<style type="text/css">
	.st0{fill:#6B6B6B;}
	.st1{fill:#3A3A3A;}
	.st2{fill:#29E8ED;}
	.st3{fill:#E5E5E5;}
	.st4{fill:#009191;}
</style>
<g>
	<rect x="475.7" y="147.8" width="92" height="38.4"/>
	<g>
		<g>
			
				<rect id="XMLID_105_" x="382.1" y="-177.3" transform="matrix(0.866 -0.5 0.5 0.866 82.8859 190.1167)" width="28.2" height="235.4"/>
			<polygon id="XMLID_103_" points="620,49.3 737.7,-154.5 719.2,-179.8 595.6,35.2 			"/>
			<g>
				<path id="XMLID_97_" class="st0" d="M747.6-113.2h133.4l66.7-115.6l-66.7-115.6H747.6l-66.7,115.6L747.6-113.2z M757.2-327.8
					h114.3l57.2,99l-57.2,99H757.2l-57.2-99L757.2-327.8z"/>
				<polygon id="XMLID_96_" points="767.9,-309.2 721.5,-228.8 767.9,-148.4 860.8,-148.4 907.2,-228.8 860.8,-309.2 				"/>
				<path id="XMLID_93_" class="st0" d="M754.9-125.8h118.9l59.5-103l-59.5-103H754.9l-59.5,103L754.9-125.8z M763.4-317h101.9
					l50.9,88.2l-50.9,88.2H763.4l-50.9-88.2L763.4-317z"/>
				<path id="XMLID_90_" class="st1" d="M750.9-118.8h127l63.5-110l-63.5-110h-127l-63.5,110L750.9-118.8z M760-323h108.8l54.4,94.2
					l-54.4,94.2H760l-54.4-94.2L760-323z"/>
				<polygon id="XMLID_89_" class="st2" points="856,-300.9 897.6,-228.8 856,-156.7 772.7,-156.7 731.1,-228.8 772.7,-300.9 				
					"/>
			</g>
			<g>
				<path id="XMLID_86_" class="st0" d="M185.2-113.2h133.4l66.7-115.6l-66.7-115.6H185.2l-66.7,115.6L185.2-113.2z M194.8-327.8
					h114.3l57.2,99l-57.2,99H194.8l-57.2-99L194.8-327.8z"/>
				<polygon id="XMLID_85_" points="205.5,-309.2 159.1,-228.8 205.5,-148.4 298.4,-148.4 344.8,-228.8 298.4,-309.2 				"/>
				<path id="XMLID_82_" class="st0" d="M192.5-125.8h118.9l59.5-103l-59.5-103H192.5l-59.5,103L192.5-125.8z M201-317h101.9
					l50.9,88.2l-50.9,88.2H201L150-228.8L201-317z"/>
				<polygon id="XMLID_81_" class="st2" points="210.3,-300.9 168.7,-228.8 210.3,-156.7 293.5,-156.7 335.2,-228.8 293.5,-300.9 
									"/>
				<path id="XMLID_78_" class="st1" d="M188.4-118.8h127l63.5-110l-63.5-110h-127l-63.5,110L188.4-118.8z M197.5-323h108.8
					l54.4,94.2l-54.4,94.2H197.5l-54.4-94.2L197.5-323z"/>
			</g>
		</g>
		<g>
			<g id="XMLID_52_">
				
					<rect id="XMLID_53_" x="644.6" y="-135.1" transform="matrix(-0.866 0.5 -0.5 -0.866 1220.3707 -361.8563)" width="28.2" height="235.4"/>
				<polygon id="XMLID_54_" points="464.6,106.9 346.9,106.9 346.9,135.1 464.6,135.1 582.3,135.1 700,135.1 700,106.9 582.3,106.9 
									"/>
				
					<rect id="XMLID_55_" x="270.5" y="-31.5" transform="matrix(-0.5 0.866 -0.866 -0.5 567.1931 -362.2855)" width="235.4" height="28.2"/>
			</g>
			<g>
				<path id="XMLID_41_" class="st0" d="M309.4,10.1l-191.8,0L21.7,176.2l95.9,166.1h191.8l95.9-166.1L309.4,10.1z M295.6,318.4
					H131.3L49.2,176.2l82.1-142.3h164.3l82.1,142.3L295.6,318.4z"/>
				<polygon id="XMLID_32_" points="280.2,291.7 346.9,176.2 280.2,60.6 146.8,60.6 80,176.2 146.8,291.7 				"/>
				<path id="XMLID_21_" class="st0" d="M298.9,28.1H128l-85.5,148l85.5,148h170.9l85.5-148L298.9,28.1z M286.7,303H140.3
					L67.1,176.2l73.2-126.8h146.4l73.2,126.8L286.7,303z"/>
				<path id="XMLID_28_" class="st3" d="M304.7,18.1H122.2L31,176.2l91.3,158h182.5l91.3-158L304.7,18.1z M291.6,311.5H135.3
					L57.1,176.2l78.2-135.4h156.3l78.2,135.4L291.6,311.5z"/>
				<polygon id="XMLID_25_" class="st2" points="153.7,279.7 93.9,176.2 153.7,72.6 273.3,72.6 333.1,176.2 273.3,279.7 				"/>
				<path id="XMLID_74_" class="st0" d="M309.4,10.1l-191.8,0L21.7,176.2l95.9,166.1h191.8l95.9-166.1L309.4,10.1z M295.6,318.4
					H131.3L49.2,176.2l82.1-142.3h164.3l82.1,142.3L295.6,318.4z"/>
				<polygon id="XMLID_73_" points="280.2,291.7 346.9,176.2 280.2,60.6 146.8,60.6 80,176.2 146.8,291.7 				"/>
				<path id="XMLID_70_" class="st0" d="M298.9,28.1H128l-85.5,148l85.5,148h170.9l85.5-148L298.9,28.1z M286.7,303H140.3
					L67.1,176.2l73.2-126.8h146.4l73.2,126.8L286.7,303z"/>
				<path id="XMLID_67_" class="st1" d="M304.7,18.1H122.2L31,176.2l91.3,158h182.5l91.3-158L304.7,18.1z M291.6,311.5H135.3
					L57.1,176.2l78.2-135.4h156.3l78.2,135.4L291.6,311.5z"/>
				<polygon id="XMLID_66_" class="st2" points="153.7,279.7 93.9,176.2 153.7,72.6 273.3,72.6 333.1,176.2 273.3,279.7 				"/>
			</g>
			<g>
				<path id="XMLID_33_" class="st0" d="M925.8,10.1H734.1l-95.9,166.1l95.9,166.1h191.8l95.9-166.1L925.8,10.1z M912.1,318.4H747.8
					l-82.1-142.3l82.1-142.3h164.3l82.1,142.3L912.1,318.4z"/>
				<polygon id="XMLID_31_" points="896.7,291.7 963.4,176.2 896.7,60.6 763.3,60.6 696.5,176.2 763.3,291.7 				"/>
				<path id="XMLID_14_" class="st0" d="M915.4,28.1H744.5l-85.5,148l85.5,148h170.9l85.5-148L915.4,28.1z M903.2,303H756.8
					l-73.2-126.8l73.2-126.8h146.4l73.2,126.8L903.2,303z"/>
				<polygon id="XMLID_23_" class="st2" points="889.8,279.7 949.6,176.2 889.8,72.6 770.2,72.6 710.3,176.2 770.2,279.7 				"/>
				<path id="XMLID_29_" class="st3" d="M921.2,18.1H738.7l-91.3,158l91.3,158h182.5l91.3-158L921.2,18.1z M908.1,311.5H751.8
					l-78.2-135.4l78.2-135.4h156.3l78.2,135.4L908.1,311.5z"/>
				<path id="XMLID_63_" class="st0" d="M925.8,10.1H734.1l-95.9,166.1l95.9,166.1h191.8l95.9-166.1L925.8,10.1z M912.1,318.4H747.8
					l-82.1-142.3l82.1-142.3h164.3l82.1,142.3L912.1,318.4z"/>
				<polygon id="XMLID_62_" points="896.7,291.7 963.4,176.2 896.7,60.6 763.3,60.6 696.5,176.2 763.3,291.7 				"/>
				<path id="XMLID_59_" class="st0" d="M915.4,28.1H744.5l-85.5,148l85.5,148h170.9l85.5-148L915.4,28.1z M903.2,303H756.8
					l-73.2-126.8l73.2-126.8h146.4l73.2,126.8L903.2,303z"/>
				<polygon id="XMLID_58_" class="st2" points="889.8,279.7 949.6,176.2 889.8,72.6 770.2,72.6 710.3,176.2 770.2,279.7 				"/>
				<path id="XMLID_47_" class="st1" d="M921.2,18.1H738.7l-91.3,158l91.3,158h182.5l91.3-158L921.2,18.1z M908.1,311.5H751.8
					l-78.2-135.4l78.2-135.4h156.3l78.2,135.4L908.1,311.5z"/>
			</g>
		</g>
		<g>
			<polyline id="XMLID_4_" class="st0" points="613,154.8 704.2,-3.2 613,-161.2 430.5,-161.2 339.2,-3.2 430.5,154.8 			"/>
			<polyline id="XMLID_3_" class="st1" points="606.3,147.8 695.1,-1.2 606.3,-136.4 434.3,-136.4 351.1,-1.2 434.3,147.8 			"/>
			<polygon id="XMLID_108_" class="st4" points="453.2,115.4 384.8,-3.2 453.2,-121.8 590.2,-121.8 658.7,-3.2 590.2,115.4 			"/>
			<polygon id="XMLID_107_" class="st2" points="458.1,106.9 394.6,-3.2 458.1,-113.3 585.3,-113.3 648.9,-3.2 585.3,106.9 			"/>
			<path id="XMLID_119_" class="st1" d="M528.7,45.1l78.4-135.7h0.4v-0.6l2.1-3.6l-2.1-1.2v-3H436v3l-2.1,1.2l2.1,3.6v0.6h0.4
				l78.4,135.7H396v8.5h251.5v-8.5H528.7z M597.3-90.6L521.7,40.2L446.2-90.6H597.3z"/>
		</g>
	</g>
	<polygon class="st1" points="624.1,240.4 589,176.2 521.7,176.2 454.5,176.2 419.3,240.4 475.7,443.4 475.7,257.4 521.7,257.4 
		567.7,257.4 567.7,443.4 	"/>
</g>
</svg>
