<?xml version="1.0" encoding="utf-8"?>
<!-- Generator: Adobe Illustrator 19.0.0, SVG Export Plug-In . SVG Version: 6.00 Build 0)  -->
<svg version="1.1" id="Layer_1" xmlns="http://www.w3.org/2000/svg" xmlns:xlink="http://www.w3.org/1999/xlink" x="0px" y="0px"
	 viewBox="0 0 230 70" style="enable-background:new 0 0 230 70;" xml:space="preserve">
<style type="text/css">
	.st0{fill:#FFA500;}
</style>
<g id="XMLID_2_">
	<g id="XMLID_1_">
		<path id="XMLID_4_" d="M86.9,63.4V37.8h8.5c2,0,3.8,0.3,5.3,1c1.5,0.7,2.8,1.6,3.8,2.7c1,1.2,1.8,2.5,2.3,4c0.5,1.5,0.8,3.2,0.8,5
			c0,1.9-0.3,3.7-0.8,5.3c-0.6,1.6-1.4,2.9-2.4,4c-1.1,1.1-2.3,2-3.8,2.6c-1.5,0.6-3.2,0.9-5,0.9H86.9z M105.7,50.6
			c0-1.6-0.2-3.1-0.7-4.4c-0.5-1.4-1.1-2.5-2-3.5c-0.9-1-2-1.8-3.2-2.3c-1.3-0.6-2.7-0.8-4.4-0.8h-6.7v22.2h6.7
			c1.7,0,3.2-0.3,4.4-0.8c1.3-0.6,2.4-1.3,3.2-2.4c0.9-1,1.5-2.2,2-3.5C105.5,53.6,105.7,52.2,105.7,50.6z"/>
		<path id="XMLID_7_" d="M133.2,61.7v1.7h-17V37.8h16.7v1.7H118v10h13v1.6h-13v10.6H133.2z"/>
		<path id="XMLID_15_" d="M156.2,42.1c-1.7-1.8-4-2.8-7-2.8c-2.5,0-4.3,0.5-5.5,1.4c-1.1,0.9-1.7,2.2-1.7,3.8c0,0.8,0.1,1.5,0.4,2
			s0.7,1,1.4,1.4s1.4,0.7,2.3,1c0.9,0.3,2.1,0.5,3.4,0.8c1.4,0.3,2.6,0.6,3.7,1c1.1,0.3,2.1,0.8,2.8,1.3s1.4,1.2,1.8,1.9
			c0.4,0.8,0.6,1.7,0.6,2.8s-0.2,2.1-0.7,3c-0.4,0.8-1.1,1.5-1.9,2.1c-0.8,0.6-1.8,1-2.9,1.3c-1.1,0.3-2.4,0.4-3.7,0.4
			c-4,0-7.4-1.3-10.1-3.8l1-1.5c1.1,1.1,2.4,2,4,2.7s3.3,1,5.3,1c2.2,0,4-0.4,5.2-1.2c1.3-0.8,1.9-2.1,1.9-3.7
			c0-0.8-0.2-1.6-0.5-2.1s-0.8-1.1-1.5-1.5c-0.7-0.4-1.5-0.8-2.5-1.1c-1-0.3-2.2-0.6-3.5-0.9c-1.4-0.3-2.6-0.6-3.6-0.9
			s-1.9-0.7-2.6-1.2s-1.2-1.1-1.6-1.8c-0.4-0.7-0.5-1.6-0.5-2.6c0-1.2,0.2-2.2,0.7-3.1c0.4-0.9,1.1-1.6,1.9-2.3
			c0.8-0.6,1.7-1.1,2.8-1.4c1.1-0.3,2.3-0.5,3.7-0.5c1.7,0,3.1,0.2,4.4,0.7c1.3,0.5,2.5,1.2,3.5,2.3L156.2,42.1z"/>
		<path id="XMLID_17_" d="M166.7,63.4V37.8h1.8v25.6H166.7z"/>
		<path id="XMLID_19_" d="M197.6,59.4c-2.5,2.8-5.3,4.2-8.6,4.2c-1.7,0-3.3-0.4-4.8-1.1c-1.5-0.7-2.7-1.7-3.8-3
			c-1.1-1.2-1.9-2.6-2.5-4.2c-0.6-1.6-0.9-3.1-0.9-4.8c0-1.7,0.3-3.3,0.9-4.9c0.6-1.6,1.4-2.9,2.4-4.1c1-1.2,2.3-2.2,3.7-2.9
			c1.4-0.7,3-1.1,4.7-1.1c1.3,0,2.4,0.1,3.4,0.4c1,0.3,1.9,0.7,2.7,1.2c0.8,0.5,1.5,1.1,2.1,1.8c0.6,0.7,1.1,1.4,1.5,2.3l-1.5,0.9
			c-0.9-1.7-2-2.9-3.4-3.7c-1.4-0.8-3-1.1-4.8-1.1c-1.5,0-2.9,0.3-4.1,1c-1.2,0.6-2.3,1.5-3.1,2.6c-0.9,1.1-1.5,2.3-2,3.6
			s-0.7,2.7-0.7,4.1c0,1.5,0.3,2.9,0.8,4.3c0.5,1.4,1.3,2.5,2.2,3.6c0.9,1,2,1.9,3.3,2.5c1.2,0.6,2.6,0.9,4,0.9c1.6,0,3-0.4,4.4-1.1
			s2.8-1.9,4-3.4v-4.9h-5.8V51h7.4v12.4h-1.6V59.4z"/>
		<path id="XMLID_21_" d="M210.1,41.3v22.1h-1.8V37.8h1.4l17.9,22.5V37.8h1.8v25.6h-1.7L210.1,41.3z"/>
	</g>
	<g id="XMLID_3_">
		<polygon id="XMLID_11_" class="st0" points="37.6,57.8 32.9,69 58.7,69 53.9,57.8 		"/>
		<polygon id="XMLID_12_" class="st0" points="0.6,1 0.6,69 30.2,69 44.7,34.9 46.9,34.9 61.3,69 61.9,69 61.9,1 		"/>
		<polygon id="XMLID_13_" class="st0" points="38.2,55.8 53.2,55.8 45.8,37.9 		"/>
	</g>
</g>
</svg>
