<?xml version="1.0" encoding="UTF-8" standalone="no"?>
<!DOCTYPE svg PUBLIC "-//W3C//DTD SVG 1.1//EN" "http://www.w3.org/Graphics/SVG/1.1/DTD/svg11.dtd">
<svg version="1.1" xmlns="http://www.w3.org/2000/svg" xmlns:xlink="http://www.w3.org/1999/xlink" preserveAspectRatio="xMidYMid meet" viewBox="20.955204216074264 67.14174229349157 821.7417654808955 512.0000000000001" width="821.74" height="512"><defs><path d="M20.96 472.14L20.96 174.14L292.52 174.14L292.52 472.14L20.96 472.14Z" id="cjhNIvOD4"></path><clipPath id="clipcqijq2H47"><use xlink:href="#cjhNIvOD4" opacity="1"></use></clipPath><path d="M20.96 108.29C20.96 85.56 39.38 67.14 62.1 67.14C108.19 67.14 205.29 67.14 251.38 67.14C274.1 67.14 292.52 85.56 292.52 108.29C292.52 202.46 292.52 443.82 292.52 538C292.52 560.72 274.1 579.14 251.38 579.14C205.29 579.14 108.19 579.14 62.1 579.14C39.38 579.14 20.96 560.72 20.96 538C20.96 443.82 20.96 202.46 20.96 108.29Z" id="a1zjqRPzFe"></path><clipPath id="clipe1DL5Au2l1"><use xlink:href="#a1zjqRPzFe" opacity="1"></use></clipPath><path d="M437.7 307.57L735.7 307.57L735.7 579.14L437.7 579.14L437.7 307.57Z" id="dnNVdraA"></path><clipPath id="clipdkVXBGSy"><use xlink:href="#dnNVdraA" opacity="1"></use></clipPath><path d="M801.55 307.57C824.28 307.57 842.7 326 842.7 348.72C842.7 394.81 842.7 491.91 842.7 538C842.7 560.72 824.28 579.14 801.55 579.14C707.38 579.14 466.01 579.14 371.84 579.14C349.12 579.14 330.7 560.72 330.7 538C330.7 491.91 330.7 394.81 330.7 348.72C330.7 326 349.12 307.57 371.84 307.57C466.01 307.57 707.38 307.57 801.55 307.57Z" id="b1H1h1Scsb"></path><clipPath id="clipaKebWuKx4"><use xlink:href="#b1H1h1Scsb" opacity="1"></use></clipPath><path d="M375.67 135.25L342.59 114.8L375.67 94.34L375.67 107.31L410.77 107.31L410.77 122.32L375.67 122.32L375.67 135.25Z" id="a4tk7PvJZa"></path><path d="M586.7 251.92C586.81 154.95 526.17 109.24 404.77 114.8" id="k3Hql1GKo2"></path><path d="M249.24 313.74C249.24 364.52 207.79 405.74 156.74 405.74C105.69 405.74 64.24 364.52 64.24 313.74C64.24 262.96 105.69 221.74 156.74 221.74C207.79 221.74 249.24 262.96 249.24 313.74Z" id="a17aHH8yw"></path><path d="M141.24 294.74C141.24 305.23 132.95 313.74 122.74 313.74C112.53 313.74 104.24 305.23 104.24 294.74C104.24 284.25 112.53 275.74 122.74 275.74C132.95 275.74 141.24 284.25 141.24 294.74Z" id="h4ppTUnmkh"></path><path d="M209.24 294.74C209.24 305.23 200.95 313.74 190.74 313.74C180.53 313.74 172.24 305.23 172.24 294.74C172.24 284.25 180.53 275.74 190.74 275.74C200.95 275.74 209.24 284.25 209.24 294.74Z" id="c4t0F27tlX"></path><path d="M190.74 355.74C169.57 377.74 146.9 377.74 122.74 355.74" id="f2ixD2d78z"></path><path d="M679.2 443.36C679.2 494.13 637.75 535.36 586.7 535.36C535.64 535.36 494.2 494.13 494.2 443.36C494.2 392.58 535.64 351.36 586.7 351.36C637.75 351.36 679.2 392.58 679.2 443.36Z" id="a9BbCNRGD"></path><path d="M552.7 501.24C573.86 479.24 596.53 479.24 620.7 501.24" id="b2YdPmeaah"></path><path d="M570.7 453.74L531.7 413.74" id="cTHXrZilg"></path><path d="M570.7 413.74L531.7 453.74" id="aEUtN1cJe"></path><path d="M641.7 453.74L602.7 413.74" id="flPBhdf03"></path><path d="M641.7 413.74L602.7 453.74" id="c6v0wjjvAA"></path></defs><g><g><g><g clip-path="url(#clipcqijq2H47)"><use xlink:href="#cjhNIvOD4" opacity="1" fill-opacity="0" stroke="#000000" stroke-width="30" stroke-opacity="1"></use></g></g><g><g clip-path="url(#clipe1DL5Au2l1)"><use xlink:href="#a1zjqRPzFe" opacity="1" fill-opacity="0" stroke="#000000" stroke-width="30" stroke-opacity="1"></use></g></g></g><g><g><g clip-path="url(#clipdkVXBGSy)"><use xlink:href="#dnNVdraA" opacity="1" fill-opacity="0" stroke="#000000" stroke-width="30" stroke-opacity="1"></use></g></g><g><g clip-path="url(#clipaKebWuKx4)"><use xlink:href="#b1H1h1Scsb" opacity="1" fill-opacity="0" stroke="#000000" stroke-width="30" stroke-opacity="1"></use></g></g></g><g><g><use xlink:href="#a4tk7PvJZa" opacity="1" fill="#000000" fill-opacity="1"></use></g><g><g><use xlink:href="#k3Hql1GKo2" opacity="1" fill-opacity="0" stroke="#000000" stroke-width="15" stroke-opacity="1"></use></g></g></g><g><g><use xlink:href="#a17aHH8yw" opacity="1" fill-opacity="0" stroke="#000000" stroke-width="15" stroke-opacity="1"></use></g></g><g><use xlink:href="#h4ppTUnmkh" opacity="1" fill="#000000" fill-opacity="1"></use></g><g><use xlink:href="#c4t0F27tlX" opacity="1" fill="#000000" fill-opacity="1"></use></g><g><g><use xlink:href="#f2ixD2d78z" opacity="1" fill-opacity="0" stroke="#000000" stroke-width="15" stroke-opacity="1"></use></g></g><g><g><use xlink:href="#a9BbCNRGD" opacity="1" fill-opacity="0" stroke="#000000" stroke-width="15" stroke-opacity="1"></use></g></g><g><g><use xlink:href="#b2YdPmeaah" opacity="1" fill-opacity="0" stroke="#000000" stroke-width="15" stroke-opacity="1"></use></g></g><g><g><g><g><use xlink:href="#cTHXrZilg" opacity="1" fill-opacity="0" stroke="#000000" stroke-width="15" stroke-opacity="1"></use></g></g><g><g><use xlink:href="#aEUtN1cJe" opacity="1" fill-opacity="0" stroke="#000000" stroke-width="15" stroke-opacity="1"></use></g></g></g><g><g><g><use xlink:href="#flPBhdf03" opacity="1" fill-opacity="0" stroke="#000000" stroke-width="15" stroke-opacity="1"></use></g></g><g><g><use xlink:href="#c6v0wjjvAA" opacity="1" fill-opacity="0" stroke="#000000" stroke-width="15" stroke-opacity="1"></use></g></g></g></g></g></svg>