<svg width="64" height="30" viewBox="0 0 96.18 46" style="fill:rgb(255,255,255);">
    <path class="cls-1"
        d="M69.52,14.12h0a5.34,5.34,0,0,0-7.57,0l-3.8,3.79a5.35,5.35,0,0,1-7.57,0l-3.79-3.79a5.35,5.35,0,0,0-7.58,0h0a5.35,5.35,0,0,0,0,7.57L43,25.48a5.37,5.37,0,0,1,0,7.58l-3.79,3.79a5.37,5.37,0,0,0,0,7.58h0a5.37,5.37,0,0,0,7.58,0l3.79-3.79a5.37,5.37,0,0,1,7.57,0L62,44.43a5.35,5.35,0,0,0,7.57,0h0a5.35,5.35,0,0,0,0-7.58l-3.79-3.79a5.37,5.37,0,0,1,0-7.58l3.79-3.79A5.34,5.34,0,0,0,69.52,14.12Z">
    </path>
    <path class="cls-1"
        d="M33.45,16.74h0a4.18,4.18,0,0,0-4.18-4.18H9.69A9.69,9.69,0,0,0,0,22.26v14A9.69,9.69,0,0,0,9.72,46l19.57-.06a4.17,4.17,0,0,0,4.16-4.18h0a4.18,4.18,0,0,0-4.18-4.18H12.54a4.18,4.18,0,0,1-4.18-4.18V25.1a4.18,4.18,0,0,1,4.18-4.18H29.27A4.18,4.18,0,0,0,33.45,16.74Z">
    </path>
    <path id="svgcid-bxxo2vynnbmj" data-name="Rectangle 5" class="cls-1"
        d="M79.46,0H92a4.18,4.18,0,0,1,4.18,4.18h0A4.18,4.18,0,0,1,92,8.36H79.46a4.19,4.19,0,0,1-4.19-4.18h0A4.19,4.19,0,0,1,79.46,0Z">
    </path>
</svg>