<svg id="Layer_1" data-name="Layer 1" xmlns="http://www.w3.org/2000/svg" viewBox="0 0 300 300"><defs><style>.cls-1{fill:orange;}.cls-2{fill:#d8d8d8;}</style></defs><rect class="cls-1" x="145" width="10" height="10"/><rect class="cls-1" x="129.84" y="0.79" width="10" height="10" transform="translate(0.13 14.13) rotate(-6)"/><rect class="cls-1" x="114.85" y="3.17" width="10" height="10" transform="translate(0.92 25.1) rotate(-12)"/><rect class="cls-1" x="100.19" y="7.1" width="10" height="10" transform="translate(1.41 33.1) rotate(-18)"/><rect class="cls-1" x="86.02" y="12.54" width="10" height="10" transform="translate(0.74 38.54) rotate(-24)"/><rect class="cls-1" x="72.5" y="19.43" width="10" height="10" transform="translate(-1.83 42.02) rotate(-30)"/><rect class="cls-1" x="59.77" y="27.69" width="10" height="10" transform="translate(-6.85 44.32) rotate(-36)"/><rect class="cls-1" x="47.98" y="37.24" width="10" height="10" transform="translate(-14.66 46.3) rotate(-42)"/><rect class="cls-1" x="37.24" y="47.98" width="10" height="10" transform="translate(-25.39 48.92) rotate(-48)"/><rect class="cls-1" x="27.69" y="59.77" width="10" height="10" transform="matrix(0.59, -0.81, 0.81, 0.59, -38.92, 53.15)"/><rect class="cls-1" x="19.43" y="72.5" width="10" height="10" transform="translate(-54.9 59.9) rotate(-60)"/><rect class="cls-1" x="12.54" y="86.02" width="10" height="10" transform="translate(-72.75 70.02) rotate(-66)"/><rect class="cls-1" x="7.1" y="100.19" width="10" height="10" transform="translate(-91.69 84.19) rotate(-72)"/><rect class="cls-1" x="3.17" y="114.85" width="10" height="10" transform="translate(-110.76 102.92) rotate(-78)"/><rect class="cls-1" x="0.79" y="129.84" width="10" height="10" transform="translate(-128.92 126.51) rotate(-84)"/><rect class="cls-1" y="145" width="10" height="10" transform="translate(-145 155) rotate(-90)"/><rect class="cls-1" x="0.79" y="160.16" width="10" height="10" transform="translate(-157.85 188.18) rotate(-96)"/><rect class="cls-1" x="3.17" y="175.15" width="10" height="10" transform="translate(-166.34 225.59) rotate(-102)"/><rect class="cls-1" x="7.1" y="189.81" width="10" height="10" transform="translate(-169.44 266.51) rotate(-108)"/><rect class="cls-1" x="12.54" y="203.98" width="10" height="10" transform="translate(-166.24 310) rotate(-114)"/><rect class="cls-1" x="19.43" y="217.5" width="10" height="10" transform="translate(-156.05 354.9) rotate(-120)"/><rect class="cls-1" x="27.69" y="230.23" width="10" height="10" transform="translate(-138.4 399.94) rotate(-126)"/><rect class="cls-1" x="37.24" y="242.02" width="10" height="10" transform="translate(-113.06 443.71) rotate(-132)"/><rect class="cls-1" x="47.98" y="252.76" width="10" height="10" transform="translate(-80.13 484.75) rotate(-138)"/><rect class="cls-1" x="59.77" y="262.31" width="10" height="10" transform="translate(-39.95 521.64) rotate(-144)"/><rect class="cls-1" x="72.5" y="270.57" width="10" height="10" transform="translate(6.83 552.98) rotate(-150)"/><rect class="cls-1" x="86.02" y="277.46" width="10" height="10" transform="translate(59.29 577.53) rotate(-156)"/><rect class="cls-1" x="100.19" y="282.9" width="10" height="10" transform="translate(116.27 594.22) rotate(-162)"/><rect class="cls-1" x="114.85" y="286.83" width="10" height="10" transform="translate(176.41 602.2) rotate(-168)"/><rect class="cls-1" x="129.84" y="289.21" width="10" height="10" transform="translate(238.2 600.89) rotate(-174)"/><rect class="cls-1" x="145" y="290" width="10" height="10" transform="translate(300 590) rotate(-180)"/><rect class="cls-1" x="160.16" y="289.21" width="10" height="10" transform="translate(360.16 569.54) rotate(174)"/><rect class="cls-1" x="175.15" y="286.83" width="10" height="10" transform="translate(417.03 539.83) rotate(168)"/><rect class="cls-1" x="189.81" y="282.9" width="10" height="10" transform="matrix(-0.95, 0.31, -0.31, -0.95, 469.05, 501.52)"/><rect class="cls-1" x="203.98" y="277.46" width="10" height="10" transform="translate(514.78 455.51) rotate(156)"/><rect class="cls-1" x="217.5" y="270.57" width="10" height="10" transform="translate(552.98 402.98) rotate(150)"/><rect class="cls-1" x="230.23" y="262.31" width="10" height="10" transform="translate(582.65 345.3) rotate(144)"/><rect class="cls-1" x="242.02" y="252.76" width="10" height="10" transform="translate(603.07 284.01) rotate(138)"/><rect class="cls-1" x="252.76" y="242.02" width="10" height="10" transform="translate(613.8 220.77) rotate(132)"/><rect class="cls-1" x="262.31" y="230.23" width="10" height="10" transform="matrix(-0.59, 0.81, -0.81, -0.59, 614.73, 157.24)"/><rect class="cls-1" x="270.57" y="217.5" width="10" height="10" transform="translate(606.05 95.1) rotate(120)"/><rect class="cls-1" x="277.46" y="203.98" width="10" height="10" transform="translate(588.26 35.93) rotate(114)"/><rect class="cls-1" x="282.9" y="189.81" width="10" height="10" transform="translate(562.14 -18.81) rotate(108)"/><rect class="cls-1" x="286.83" y="175.15" width="10" height="10" transform="translate(528.72 -67.85) rotate(102)"/><rect class="cls-1" x="289.21" y="160.16" width="10" height="10" transform="translate(489.21 -110.17) rotate(96)"/><rect class="cls-1" x="290" y="145" width="10" height="10" transform="translate(445 -145) rotate(90)"/><rect class="cls-1" x="289.21" y="129.84" width="10" height="10" transform="translate(397.56 -171.85) rotate(84)"/><rect class="cls-1" x="286.83" y="114.85" width="10" height="10" transform="translate(348.39 -190.52) rotate(78)"/><rect class="cls-1" x="282.9" y="100.19" width="10" height="10" transform="translate(298.98 -201.13) rotate(72)"/><rect class="cls-1" x="277.46" y="86.02" width="10" height="10" transform="translate(250.73 -204.04) rotate(66)"/><rect class="cls-1" x="270.57" y="72.5" width="10" height="10" transform="translate(204.9 -199.9) rotate(60)"/><rect class="cls-1" x="262.31" y="59.77" width="10" height="10" transform="translate(162.59 -189.56) rotate(54)"/><rect class="cls-1" x="252.76" y="47.98" width="10" height="10" transform="translate(124.65 -174.02) rotate(48)"/><rect class="cls-1" x="242.02" y="37.24" width="10" height="10" transform="translate(91.72 -154.44) rotate(42)"/><rect class="cls-1" x="230.23" y="27.69" width="10" height="10" transform="translate(64.14 -132.02) rotate(36)"/><rect class="cls-1" x="217.5" y="19.43" width="10" height="10" transform="translate(42.02 -107.98) rotate(30)"/><rect class="cls-1" x="203.98" y="12.54" width="10" height="10" transform="translate(25.2 -83.48) rotate(24)"/><rect class="cls-1" x="189.81" y="7.1" width="10" height="10" transform="translate(13.27 -59.61) rotate(18)"/><rect class="cls-1" x="175.15" y="3.17" width="10" height="10" transform="translate(5.63 -37.28) rotate(12)"/><rect class="cls-1" x="160.16" y="0.79" width="10" height="10" transform="translate(1.51 -17.23) rotate(6)"/><path class="cls-2" d="M212.36,85.78c-.77-.83-1.56-1.64-2.37-2.45l-2.42,2.42-19.16,19.16H111.25l-19-19L89.84,83.5c-.8.81-1.6,1.62-2.36,2.45A85.1,85.1,0,0,0,65,136h3.41A81.7,81.7,0,0,1,89.89,88.37l20,19.94h80L210,88.19A81.7,81.7,0,0,1,231.59,136H235A85,85,0,0,0,212.36,85.78Z" transform="translate(0)"/><path class="cls-2" d="M212.36,214.22c-.77.83-1.56,1.64-2.37,2.45l-2.42-2.42-19.16-19.16H111.25l-19,19-2.41,2.41c-.8-.81-1.6-1.62-2.36-2.45A85.1,85.1,0,0,1,65,164h3.41a81.7,81.7,0,0,0,21.48,47.66l20-19.94h80L210,211.81A81.7,81.7,0,0,0,231.59,164H235A85,85,0,0,1,212.36,214.22Z" transform="translate(0)"/></svg>