<?xml version="1.0" encoding="utf-8"?>
<!-- Generator: Adobe Illustrator 19.0.0, SVG Export Plug-In . SVG Version: 6.00 Build 0)  -->
<svg version="1.0" id="Layer_1" xmlns="http://www.w3.org/2000/svg" xmlns:xlink="http://www.w3.org/1999/xlink" x="0px" y="0px"
	 viewBox="0 0 1350 700" style="enable-background:new 0 0 1350 700;" xml:space="preserve">
<style type="text/css">
	.st0{fill:#212121;}
	.st1{fill:#FFA500;}
</style>
<g id="XMLID_97_">
	<g id="SVR_3_">
		<path id="XMLID_1532_" class="st0" d="M951.627,239.213c36.557-13.247,68.879-46.096,68.879-99.08
			c0-63.048-45.565-115.503-122.391-115.503h-74.178L802.16,90.329h91.184c32.321,0,53.516,20.666,53.516,49.804
			c0,29.142-21.194,49.804-53.516,49.804h-124.2L748.77,251.4h128.15l73.646,150.473h85.305L951.627,239.213z"/>
		<path id="XMLID_1529_" d="M575.467,193.649l21.859,66.227H445.185c-77.886,0-124.51-53.512-124.51-117.623
			c0-64.107,46.625-117.623,124.51-117.623h74.495l21.685,65.699h-92.472c-33.381,0-54.572,21.194-54.572,51.924
			c0,30.733,21.191,51.396,54.572,51.396H575.467z M348.333,335.646l-21.859,66.227h317.679l-21.859-66.227H348.333z"/>
		<path id="XMLID_1527_" class="st1" d="M699.228,401.873h-55.1L519.614,24.63h76.298l75.766,245.845L747.444,24.63h76.826
			L699.228,401.873z"/>
	</g>
	<g id="XMLID_1016_">
		<path id="XMLID_1525_" class="st0" d="M431.752,588.538h-5.113l-11.377-41.043l-11.377,41.043h-5.112l-13.105-51.269h5.832
			l10.009,41.332l11.305-41.332h4.896l11.305,41.332l10.009-41.332h5.833L431.752,588.538z"/>
		<path id="XMLID_1523_" class="st0" d="M453.42,588.538V537.27h31.827v4.896h-26.354v18.074h22.466v4.896h-22.466v18.505h26.354
			v4.896H453.42z"/>
		<path id="XMLID_1521_" class="st0" d="M496.619,588.538V537.27h5.473v46.372h26.21v4.896H496.619z"/>
		<path id="XMLID_1519_" class="st0" d="M551.269,588.97c-5.04,0-9.648-1.872-13.105-5.329c-4.824-4.824-4.824-9.865-4.824-20.738
			s0-15.913,4.824-20.738c3.457-3.456,8.065-5.329,13.105-5.329c9.217,0,16.058,5.617,17.786,15.266h-5.616
			c-1.368-6.265-5.761-10.369-12.169-10.369c-3.384,0-6.625,1.296-8.856,3.601c-3.24,3.312-3.601,6.84-3.601,17.569
			s0.36,14.257,3.601,17.57c2.232,2.304,5.472,3.6,8.856,3.6c6.409,0,10.945-4.104,12.313-10.369h5.473
			C567.398,583.354,560.414,588.97,551.269,588.97z"/>
		<path id="XMLID_1516_" class="st0" d="M610.238,583.642c-3.457,3.457-7.993,5.329-13.105,5.329c-5.112,0-9.648-1.872-13.105-5.329
			c-4.824-4.824-4.824-9.865-4.824-20.738s0-15.913,4.824-20.738c3.457-3.456,7.993-5.329,13.105-5.329
			c5.113,0,9.649,1.873,13.105,5.329c4.824,4.825,4.824,9.865,4.824,20.738S615.062,578.817,610.238,583.642z M605.989,545.406
			c-2.232-2.304-5.473-3.672-8.857-3.672s-6.625,1.368-8.856,3.672c-3.24,3.313-3.601,6.769-3.601,17.498s0.36,14.185,3.601,17.498
			c2.232,2.304,5.472,3.672,8.856,3.672s6.625-1.368,8.857-3.672c3.24-3.313,3.6-6.769,3.6-17.498S609.229,548.719,605.989,545.406z
			"/>
		<path id="XMLID_1514_" class="st0" d="M666.398,588.538v-38.956l-14.042,30.891h-4.68l-14.257-30.891v38.956h-5.473V537.27h5.473
			l16.706,36.363l16.273-36.363h5.472v51.269H666.398z"/>
		<path id="XMLID_1512_" class="st0" d="M686.698,588.538V537.27h31.827v4.896h-26.354v18.074h22.466v4.896h-22.466v18.505h26.354
			v4.896H686.698z"/>
		<path id="XMLID_1510_" class="st0" d="M762.874,542.166v46.372h-5.472v-46.372h-14.834v-4.896h35.14v4.896H762.874z"/>
		<path id="XMLID_1507_" class="st0" d="M814.932,583.642c-3.456,3.457-7.992,5.329-13.105,5.329c-5.112,0-9.648-1.872-13.104-5.329
			c-4.824-4.824-4.824-9.865-4.824-20.738s0-15.913,4.824-20.738c3.456-3.456,7.992-5.329,13.104-5.329
			c5.113,0,9.649,1.873,13.105,5.329c4.824,4.825,4.824,9.865,4.824,20.738S819.756,578.817,814.932,583.642z M810.684,545.406
			c-2.232-2.304-5.473-3.672-8.857-3.672c-3.384,0-6.624,1.368-8.856,3.672c-3.24,3.313-3.601,6.769-3.601,17.498
			s0.36,14.185,3.601,17.498c2.232,2.304,5.473,3.672,8.856,3.672c3.385,0,6.625-1.368,8.857-3.672c3.24-3.313,3.6-6.769,3.6-17.498
			S813.924,548.719,810.684,545.406z"/>
		<path id="XMLID_1505_" class="st0" d="M863.745,588.97c-7.704,0-12.745-1.944-17.569-6.769l3.744-3.745
			c4.249,4.249,8.209,5.617,13.97,5.617c7.488,0,12.097-3.528,12.097-9.505c0-2.664-0.792-4.968-2.448-6.409
			c-1.656-1.44-2.952-1.872-6.696-2.448l-5.977-0.936c-4.032-0.648-7.201-1.944-9.433-3.888c-2.593-2.304-3.889-5.473-3.889-9.577
			c0-8.713,6.265-14.474,16.417-14.474c6.553,0,10.873,1.656,15.266,5.617l-3.528,3.528c-3.168-2.88-6.553-4.393-11.953-4.393
			c-6.84,0-10.801,3.816-10.801,9.505c0,2.521,0.72,4.537,2.305,5.905c1.584,1.368,4.248,2.376,6.912,2.808l5.616,0.864
			c4.825,0.72,7.201,1.728,9.361,3.6c2.809,2.376,4.32,5.904,4.32,10.153C881.459,583.426,874.402,588.97,863.745,588.97z"/>
		<path id="XMLID_1503_" class="st1" d="M907.378,588.538h-4.465l-16.85-51.269h5.761l13.321,41.476l13.321-41.476h5.761
			L907.378,588.538z"/>
		<path id="XMLID_1500_" class="st0" d="M961.666,588.538l-11.665-22.754h-12.313v22.754h-5.472V537.27h19.657
			c8.929,0,15.193,5.4,15.193,14.257c0,7.489-4.536,12.385-11.161,13.753l12.169,23.258H961.666z M951.369,542.166h-13.682v18.793
			h13.682c5.977,0,10.225-3.096,10.225-9.36C961.594,545.335,957.346,542.166,951.369,542.166z"/>
		<path id="XMLID_1497_" class="st0" d="M57.86,674.938l-4.104-11.593H31.361l-4.104,11.593h-5.833l18.865-51.269h4.608
			l18.794,51.269H57.86z M42.667,631.518l-9.649,27.075h19.154L42.667,631.518z"/>
		<path id="XMLID_1495_" class="st0" d="M104.37,674.938h-4.465l-16.849-51.269h5.76l13.321,41.476l13.321-41.476h5.76
			L104.37,674.938z"/>
		<path id="XMLID_1493_" class="st0" d="M129.207,674.938v-51.269h5.473v51.269H129.207z"/>
		<path id="XMLID_1490_" class="st0" d="M178.962,674.938l-11.665-22.754h-12.313v22.754h-5.473v-51.269h19.658
			c8.929,0,15.193,5.4,15.193,14.257c0,7.489-4.536,12.385-11.161,13.753l12.169,23.258H178.962z M168.665,628.566h-13.681v18.793
			h13.681c5.977,0,10.225-3.096,10.225-9.36C178.89,631.734,174.642,628.566,168.665,628.566z"/>
		<path id="XMLID_1420_" class="st0" d="M211.792,628.566v46.372h-5.472v-46.372h-14.833v-4.896h35.139v4.896H211.792z"/>
		<path id="XMLID_1418_" class="st0" d="M253.335,675.37c-10.369,0-17.857-7.129-17.857-17.354v-34.347h5.472v33.915
			c0,7.777,4.896,12.889,12.385,12.889s12.457-5.112,12.457-12.889v-33.915h5.473v34.347
			C271.265,668.241,263.704,675.37,253.335,675.37z"/>
		<path id="XMLID_1415_" class="st0" d="M315.256,674.938l-4.104-11.593h-22.394l-4.104,11.593h-5.833l18.865-51.269h4.608
			l18.794,51.269H315.256z M300.063,631.518l-9.649,27.075h19.154L300.063,631.518z"/>
		<path id="XMLID_1413_" class="st0" d="M329.365,674.938v-51.269h5.473v46.372h26.21v4.896H329.365z"/>
		<path id="XMLID_1410_" class="st0" d="M417.999,674.938l-11.665-22.754h-12.313v22.754h-5.473v-51.269h19.658
			c8.929,0,15.193,5.4,15.193,14.257c0,7.489-4.536,12.385-11.161,13.753l12.169,23.258H417.999z M407.702,628.566h-13.681v18.793
			h13.681c5.977,0,10.225-3.096,10.225-9.36C417.927,631.734,413.679,628.566,407.702,628.566z"/>
		<path id="XMLID_1408_" class="st0" d="M435.78,674.938v-51.269h31.827v4.896h-26.354v18.074h22.466v4.896h-22.466v18.505h26.354
			v4.896H435.78z"/>
		<path id="XMLID_1405_" class="st0" d="M508.862,674.938l-4.104-11.593h-22.394l-4.104,11.593h-5.833l18.865-51.269h4.608
			l18.794,51.269H508.862z M493.668,631.518l-9.649,27.075h19.154L493.668,631.518z"/>
		<path id="XMLID_1403_" class="st0" d="M522.971,674.938v-51.269h5.473v46.372h26.21v4.896H522.971z"/>
		<path id="XMLID_1401_" class="st0" d="M564.227,674.938v-51.269h5.473v51.269H564.227z"/>
		<path id="XMLID_1399_" class="st0" d="M599.58,628.566v46.372h-5.472v-46.372h-14.833v-4.896h35.139v4.896H599.58z"/>
		<path id="XMLID_1397_" class="st0" d="M637.883,653.768v21.17h-5.473v-21.17l-15.265-30.099h5.904l12.097,24.554l11.953-24.554
			h5.904L637.883,653.768z"/>
		<path id="XMLID_1376_" class="st0" d="M678.92,674.938v-51.269h31.827v4.896h-26.354v18.074h22.466v4.896h-22.466v18.505h26.354
			v4.896H678.92z"/>
		<path id="XMLID_1360_" class="st0" d="M752.65,670.186c-3.096,3.096-7.633,4.752-12.961,4.752H722.12v-51.269h17.569
			c5.328,0,9.865,1.656,12.961,4.752c5.329,5.329,5.041,13.177,5.041,20.306C757.691,655.857,757.979,664.857,752.65,670.186z
			 M748.834,632.311c-2.664-2.736-6.12-3.745-10.08-3.745h-11.161v41.476h11.161c3.96,0,7.416-1.008,10.08-3.744
			c3.528-3.672,3.385-11.305,3.385-17.57C752.219,642.463,752.362,635.982,748.834,632.311z"/>
		<path id="XMLID_1358_" class="st0" d="M787.713,675.37c-10.369,0-17.857-7.129-17.857-17.354v-34.347h5.472v33.915
			c0,7.777,4.896,12.889,12.386,12.889c7.488,0,12.457-5.112,12.457-12.889v-33.915h5.473v34.347
			C805.643,668.241,798.081,675.37,787.713,675.37z"/>
		<path id="XMLID_1356_" class="st0" d="M835.736,675.37c-5.04,0-9.648-1.872-13.104-5.329c-4.824-4.824-4.824-9.865-4.824-20.738
			s0-15.913,4.824-20.738c3.456-3.456,8.064-5.329,13.104-5.329c9.217,0,16.058,5.617,17.786,15.266h-5.616
			c-1.368-6.265-5.761-10.369-12.17-10.369c-3.384,0-6.624,1.296-8.856,3.601c-3.24,3.312-3.601,6.84-3.601,17.569
			s0.36,14.257,3.601,17.569c2.232,2.305,5.473,3.601,8.856,3.601c6.409,0,10.945-4.104,12.313-10.369h5.473
			C851.866,669.753,844.882,675.37,835.736,675.37z"/>
		<path id="XMLID_1353_" class="st0" d="M894.777,674.938l-4.104-11.593h-22.394l-4.104,11.593h-5.832l18.865-51.269h4.608
			l18.794,51.269H894.777z M879.584,631.518l-9.648,27.075h19.153L879.584,631.518z"/>
		<path id="XMLID_1351_" class="st0" d="M919.616,628.566v46.372h-5.473v-46.372h-14.833v-4.896h35.139v4.896H919.616z"/>
		<path id="XMLID_1349_" class="st0" d="M944.022,674.938v-51.269h5.472v51.269H944.022z"/>
		<path id="XMLID_1346_" class="st0" d="M993.416,670.042c-3.456,3.457-7.992,5.329-13.104,5.329s-9.649-1.872-13.105-5.329
			c-4.824-4.824-4.824-9.865-4.824-20.738s0-15.913,4.824-20.738c3.456-3.456,7.993-5.329,13.105-5.329s9.648,1.873,13.104,5.329
			c4.825,4.825,4.825,9.865,4.825,20.738S998.241,665.217,993.416,670.042z M989.168,631.806c-2.232-2.304-5.473-3.672-8.856-3.672
			c-3.385,0-6.625,1.368-8.857,3.672c-3.24,3.313-3.6,6.769-3.6,17.498s0.359,14.185,3.6,17.498
			c2.232,2.304,5.473,3.672,8.857,3.672c3.384,0,6.624-1.368,8.856-3.672c3.24-3.313,3.601-6.769,3.601-17.498
			S992.408,635.119,989.168,631.806z"/>
		<path id="XMLID_1337_" class="st0" d="M1043.816,674.938l-27.219-41.116v41.116h-5.472v-51.269h5.185l27.218,40.972v-40.972h5.473
			v51.269H1043.816z"/>
		<path id="XMLID_1325_" class="st0" d="M1094.934,675.37c-7.705,0-12.745-1.944-17.569-6.769l3.744-3.745
			c4.248,4.249,8.209,5.617,13.97,5.617c7.488,0,12.097-3.528,12.097-9.505c0-2.664-0.792-4.968-2.448-6.409
			c-1.656-1.44-2.952-1.872-6.696-2.448l-5.977-0.936c-4.032-0.648-7.201-1.944-9.434-3.888c-2.592-2.304-3.888-5.473-3.888-9.577
			c0-8.713,6.265-14.474,16.417-14.474c6.553,0,10.873,1.656,15.266,5.617l-3.528,3.528c-3.168-2.88-6.553-4.393-11.953-4.393
			c-6.841,0-10.801,3.816-10.801,9.505c0,2.521,0.72,4.537,2.304,5.905c1.585,1.368,4.249,2.376,6.913,2.808l5.616,0.864
			c4.824,0.72,7.201,1.728,9.361,3.6c2.808,2.376,4.32,5.904,4.32,10.153C1112.647,669.826,1105.591,675.37,1094.934,675.37z"/>
		<path id="XMLID_1323_" class="st0" d="M1136.55,653.768v21.17h-5.472v-21.17l-15.266-30.099h5.904l12.097,24.554l11.953-24.554
			h5.905L1136.55,653.768z"/>
		<path id="XMLID_1300_" class="st0" d="M1172.838,675.37c-7.705,0-12.745-1.944-17.569-6.769l3.744-3.745
			c4.248,4.249,8.209,5.617,13.97,5.617c7.488,0,12.097-3.528,12.097-9.505c0-2.664-0.792-4.968-2.448-6.409
			c-1.656-1.44-2.952-1.872-6.696-2.448l-5.977-0.936c-4.032-0.648-7.201-1.944-9.434-3.888c-2.592-2.304-3.888-5.473-3.888-9.577
			c0-8.713,6.265-14.474,16.417-14.474c6.553,0,10.873,1.656,15.266,5.617l-3.528,3.528c-3.168-2.88-6.553-4.393-11.953-4.393
			c-6.841,0-10.801,3.816-10.801,9.505c0,2.521,0.72,4.537,2.304,5.905c1.585,1.368,4.249,2.376,6.913,2.808l5.616,0.864
			c4.824,0.72,7.201,1.728,9.361,3.6c2.808,2.376,4.32,5.904,4.32,10.153C1190.552,669.826,1183.495,675.37,1172.838,675.37z"/>
		<path id="XMLID_1112_" class="st0" d="M1217.046,628.566v46.372h-5.473v-46.372h-14.833v-4.896h35.139v4.896H1217.046z"/>
		<path id="XMLID_1019_" class="st0" d="M1241.452,674.938v-51.269h31.826v4.896h-26.354v18.074h22.467v4.896h-22.467v18.505h26.354
			v4.896H1241.452z"/>
		<path id="XMLID_1017_" class="st0" d="M1323.103,674.938v-38.956l-14.041,30.891h-4.681l-14.258-30.891v38.956h-5.472v-51.269
			h5.472l16.706,36.363l16.273-36.363h5.473v51.269H1323.103z"/>
	</g>
</g>
</svg>
