<?xml version="1.0"?>
<svg xmlns:rdf="http://www.w3.org/1999/02/22-rdf-syntax-ns#" xmlns="http://www.w3.org/2000/svg" xmlns:cc="http://creativecommons.org/ns#" xmlns:xlink="http://www.w3.org/1999/xlink" xmlns:dc="http://purl.org/dc/elements/1.1/" id="svg171" viewBox="0 0 358.85 789.36" version="1.0">
 <defs id="defs173">
  <linearGradient id="linearGradient239">
   <stop id="stop240" stop-color="#f8ce00" offset="0"/>
   <stop id="stop241" stop-color="#b79700" offset="1"/>
  </linearGradient>
  <radialGradient id="radialGradient3189" xlink:href="#linearGradient239" gradientUnits="userSpaceOnUse" cy="819.9" cx="378.79" gradientTransform="matrix(1.1693 0 0 .93776 -273.1 -147.55)" r="115.39"/>
  <radialGradient id="radialGradient3193" xlink:href="#linearGradient239" gradientUnits="userSpaceOnUse" cy="598.63" cx="294.43" gradientTransform="matrix(1.5041 0 0 .74199 -264.04 -146.71)" r="91.234"/>
  <radialGradient id="radialGradient3197" xlink:href="#linearGradient239" gradientUnits="userSpaceOnUse" cy="153.65" cx="897.24" gradientTransform="matrix(-.39086 0 0 3.6334 703.38 -167.47)" r="15.849"/>
  <radialGradient id="radialGradient3200" xlink:href="#linearGradient239" gradientUnits="userSpaceOnUse" cy="153.65" cx="897.24" gradientTransform="matrix(.39086 0 0 3.6334 -343 -162.47)" r="15.849"/>
  <radialGradient id="radialGradient3205" xlink:href="#linearGradient239" gradientUnits="userSpaceOnUse" cy="319.37" cx="657.76" gradientTransform="matrix(.65803 0 0 1.5197 -252.14 -111.82)" r="1269.3"/>
 </defs>
 <rect id="rect959" fill-rule="evenodd" rx="8.5849" ry="8.5849" height="78.696" width="27.775" y="623.04" x="16.287" stroke-width="1pt" fill="#60585a"/>
 <rect id="rect958" fill-rule="evenodd" rx="8.5849" ry="8.5849" height="78.696" width="27.775" y="613.04" x="311.29" stroke-width="1pt" fill="#60585a"/>
 <g id="g786" fill="#4a00ad" transform="matrix(-1 0 0 -1 282.65 766.12)">
  <path id="path787" d="m76.616 699.19c-5.4727-0.321-11.137-0.388-16.567 0.34-3.5734 0.712-11.473 3.767-7.655 8.677 5.2454 5.042 14.531 4.269 21.161 3.703l0.5137 5.994c-9.1289 0.75-20.165 0.992-26.841-6.329-5.9809-9.521 3.3763-16.399 12.025-18.017 5.7819-0.733 11.564-0.349 17.362-0.688v6.32z"/>
  <path id="path788" d="m76.616 699.19c-5.4727-0.321-11.137-0.388-16.567 0.34-3.5734 0.712-11.473 3.767-7.655 8.677 5.2454 5.042 14.531 4.269 21.161 3.703l0.5137 5.994c-9.1289 0.75-20.165 0.992-26.841-6.329-5.9809-9.521 3.3763-16.399 12.025-18.017 5.7819-0.733 11.564-0.349 17.362-0.688v6.32z" transform="matrix(1 0 0 -1 0 1430)"/>
  <path id="path789" d="m97.472 715.31c-1.4986-0.143-3.0393-0.081-4.5417-0.089-1.2715-0.004-5.5397-0.655-6.3316 0.724-0.2793 0.983 0.196 2.108 1.022 2.657 2.002 1.029 4.7046 0.505 6.8526 0.402 2.6281-0.126 6.1922-0.416 6.9952 2.782 0.249 2.611-1.378 5.115-3.4074 6.63-2.6849 1.651-5.7413 1.346-8.7364 0.969-1.7834-0.237-3.5619-0.51-5.3498-0.711l0.3288-2.76c1.7937 0.214 3.576 0.511 5.3666 0.748 2.19 0.268 4.7033 0.675 6.7086-0.491 1.154-0.815 2.2671-2.318 2.2757-3.791 0.0105-1.097-3.415-0.664-4.039-0.633-2.8978 0.155-6.0482 0.623-8.678-0.876-2.1183-1.588-3.0545-4.623-1.4109-6.885 2.1458-2.038 5.6768-1.512 8.4036-1.521 1.5024-0.007 3.0431 0.055 4.5417-0.088v2.933z" transform="matrix(1.3776 0 0 1.3776 -36.308 -268.33)"/>
  <g id="g790" transform="matrix(1.166 0 0 1.0624 -26.21 -45.238)">
   <path id="path791" d="m109.26 713.84c2.054 0.228 4.181 0.138 6.242 0.15 3.888 0.015 7.776-0.017 11.665-0.034 0.779-0.005 1.559-0.011 2.338-0.036v3.227c-0.779-0.026-1.559-0.032-2.338-0.037-3.889-0.017-7.777-0.049-11.665-0.034-2.061 0.012-4.188-0.078-6.242 0.15v-3.386z"/>
   <path id="path792" d="m119.37 715.87c-0.159 1.242-0.079 2.551-0.087 3.798-0.011 2.488-0.012 4.976 0.006 7.465 0.012 1.648 0.028 3.296 0.032 4.944 0.001 0.986-0.002 1.973-0.004 2.959h-3.321c-0.002-0.986-0.005-1.973-0.003-2.959 0.003-1.648 0.019-3.296 0.031-4.944 0.018-2.489 0.018-4.977 0.007-7.465-0.009-1.247 0.072-2.556-0.088-3.798h3.427z" transform="translate(1.3446 .33612)"/>
  </g>
  <g id="g793">
   <path id="path794" d="m129.46 713.86c-0.219 1.706-0.114 3.502-0.134 5.217-0.046 4.31-0.051 8.621-0.008 12.932 0.017 1.411 0.038 2.823 0.066 4.234h-3.275c0.027-1.411 0.049-2.823 0.066-4.234 0.043-4.311 0.037-8.622-0.008-12.932-0.021-1.715 0.085-3.511-0.134-5.217h3.427z"/>
   <path id="path795" d="m127.41 712.83c1.41 0.156 2.863 0.074 4.28 0.113 3.027 0.138 5.689 1.021 6.086 4.411 0.091 3.395-1.772 5.431-5.069 6.06-1.547 0.195-3.059 0.136-4.605-0.029l0.353-3.167c1.221 0.137 2.422 0.2 3.645 0.051 1.605-0.296 2.418-0.88 2.405-2.576-0.124-1.535-1.597-1.488-2.895-1.55-1.383-0.028-2.821-0.081-4.2 0.073v-3.386z"/>
   <path id="path796" d="m128.76 721.9c1.223 0.136 2.492 0.072 3.72 0.082 2.638 0.021 5.597-0.184 7.788 1.535 1.853 1.96 1.215 4.372 0.521 6.696-0.472 1.573-0.874 3.118-0.925 4.767-0.003 0.322 0 0.641 0.008 0.962l-3.305 0.084c-0.01-0.383-0.013-0.765-0.009-1.148 0.062-1.931 0.526-3.743 1.082-5.583 0.252-0.844 0.953-2.406 0.486-3.29-1.116-1.268-4.173-0.813-5.646-0.801-1.228 0.01-2.497-0.054-3.72 0.082v-3.386z"/>
   <rect id="rect797" fill-rule="evenodd" height="3.0254" width="2.3531" y="712.84" x="126.06" stroke-width="1pt"/>
  </g>
  <path id="path798" d="m165.39 724.77c0 6.958-5.196 12.606-11.598 12.606s-11.597-5.648-11.597-12.606c0-6.959 5.195-12.606 11.597-12.606s11.598 5.647 11.598 12.606zm-3.698-0.322c0 4.739-3.54 8.586-7.9 8.586-4.361 0-7.9-3.847-7.9-8.586 0-4.741 3.539-8.587 7.9-8.587 4.36 0 7.9 3.846 7.9 8.587z" fill-rule="evenodd" stroke-width="1pt"/>
 </g>
 <rect id="rect317" fill-rule="evenodd" rx="8.5849" ry="8.5849" height="78.696" width="27.775" y="98.038" x="318.79" stroke-width="1pt" fill="#60585a"/>
 <rect id="rect316" fill-rule="evenodd" rx="8.5849" ry="8.5849" height="78.696" width="27.775" y="101.12" x="8.6333" stroke-width="1pt" fill="#60585a"/>
 <path id="path184" d="m178.73 782.98c-113.07 2.362-130.4-17.92-147.11-21.261-16.705-38.776-19.877-365.73-9.855-392.46 7.493-60.54-4.936-70.565-8.687-143.53-7.14-85.213 9.815-37.829-4.439-124.48 21.658-90.216-19.136-92.053 168.52-100.63 172.21 2.401 147.96 10.415 169.61 100.63-14.254 86.652 2.701 39.268-4.439 124.48-3.751 72.961-16.18 82.986-8.687 143.53 10.022 26.727 6.85 353.68-9.855 392.46-26.153 15.153-95.459 21.261-145.07 21.261z" fill-rule="evenodd" stroke="#000" stroke-width="1pt" fill="url(#radialGradient3205)"/>
 <path id="path272" d="m41.537 281.88s21.534 82.442 21.534 82.442 0 154.58-3.0758 157.15c-3.0771 2.5759-27.686 46.372-27.686 46.372s6.1517-280.81 9.2288-285.97z" fill-rule="evenodd" fill="url(#radialGradient3200)"/>
 <path id="path274" d="m318.84 276.88s-21.534 82.442-21.534 82.442 0 154.58 3.0758 157.15c3.0771 2.5759 27.686 46.372 27.686 46.372s-6.1517-280.81-9.2288-285.97z" fill-rule="evenodd" fill="url(#radialGradient3197)"/>
 <path id="path230" d="m37.198 44.521c-11.667 18.667-10.816 196.22 7.851 210.22 18.03-14.851 122.48-28.646 142.34-27.364 20.288-1.492 99.694 8.055 124.09 22.697 6.577 2.13 19.727-205.55 1.059-219.55-58.34-16.344-252.01-16.344-275.34 13.99z" stroke-opacity=".45912" fill-rule="evenodd" stroke="#000" stroke-width="1pt" fill="#f7ce00"/>
 <path id="path275" d="m41.764 257.39s65.53-26.897 138.64-27.585c65.833-0.64088 95.565 9.623 135.61 25.019-4.8534 48.756-9.7078 94.943-21.843 110.34-111.64-28.23-118.92-28.23-230.56 0-2.43-15.39-24.273-105.21-21.846-107.77z" fill-rule="evenodd" fill="url(#radialGradient3193)"/>
 <path id="path185" d="m45.51 260.2s63.783-24.762 134.95-25.395c64.078-0.59 93.017 8.859 132 23.033-4.724 44.885-9.449 87.405-21.261 101.58-108.67-25.986-115.75-25.985-224.42 0.001-2.362-14.174-23.623-96.856-21.261-99.218z" fill-rule="evenodd" fill-opacity=".70440" stroke="#000" stroke-width="1pt"/>
 <path id="path270" d="m75.697 531.43c-12.369 59.368-22.263 173.16-22.263 173.16 19.79 17.316 121.21 24.737 123.69 24.737 7.4212 0 108.84-7.4212 126.16-32.158 0-14.842-9.8956-121.21-19.79-168.21-86.579 12.368-202.84 7.4212-207.79 2.4734z" fill-rule="evenodd" fill="url(#radialGradient3189)"/>
 <path id="path188" d="m80.945 536.59c-11.812 56.695-21.261 165.36-21.261 165.36 18.899 16.536 115.75 23.623 118.12 23.623 7.087 0 103.94-7.087 120.48-30.71 0-14.174-9.45-115.75-18.899-160.64-82.681 11.811-193.71 7.087-198.44 2.362z" fill-rule="evenodd" fill-opacity=".78616" stroke="#000" stroke-width="1pt"/>
 <path id="path189" d="m321.9 279.09l28.348 2.362s14.174 14.174 4.725 21.261c-9.45 7.087-33.073-2.362-33.073-2.362v-21.261z" stroke-opacity=".55346" fill-rule="evenodd" stroke="#000" stroke-width="1.25" fill="#f7ce00"/>
 <path id="path190" d="m36.946 283.82l-28.348 2.362s-14.174 14.174-4.725 21.261c9.45 7.087 33.073-2.362 33.073-2.362v-21.261z" stroke-opacity=".54717" fill-rule="evenodd" stroke="#000" stroke-width="1pt" fill="#f7ce00"/>
 <path id="path304" d="m52.582 17.025c-9.023 1.573-19.32 18.998-14.584 21.902 11.281-5.689 33.327-13.506 54.984-15.684 4.286-2.3 10.138-9.356 10.358-10.929-14.886-0.847-40.915 2.775-50.758 4.711z" stroke-opacity=".25157" fill-rule="evenodd" fill-opacity=".56604" stroke="#000" stroke-width="1.082pt" fill="#2e87cf"/>
 <path id="path306" d="m298.7 12.115c9.0231 1.5731 19.32 14.633 14.584 17.537-11.28-5.6886-33.327-7.5051-54.984-9.6837-4.2855-2.2999-10.134-10.992-10.36-12.565 14.888-0.84719 40.917 2.7754 50.76 4.7115z" stroke-opacity=".25157" fill-rule="evenodd" fill-opacity=".56604" stroke="#000" stroke-width="1.082pt" fill="#2e87cf"/>
 <path id="path307" d="m112.29 10.38c37.098-6.547 99.837-6.002 126.57-2.729" stroke-opacity=".37107" stroke="#000" stroke-width="1pt" fill="none"/>
 <path id="path308" d="m112.29 13.108c37.098-6.547 99.837-6.002 126.57-2.729" stroke-opacity=".37107" stroke="#000" stroke-width="1pt" fill="none"/>
 <path id="path309" d="m112.29 16.381c37.098-6.547 99.837-6.002 126.57-2.729" stroke-opacity=".37107" stroke="#000" stroke-width="1pt" fill="none"/>
 <path id="path310" d="m112.29 20.2c37.098-6.001 98.2-4.911 124.39-3.275" stroke-opacity=".37107" stroke="#000" stroke-width="1pt" fill="none"/>
 <path id="path186" d="m43.148 295.63s16.536 75.595 16.536 75.595 0 141.74-2.362 144.1c-2.363 2.362-21.261 42.521-21.261 42.521s4.724-257.49 7.087-262.22z" fill-rule="evenodd" fill-opacity=".68554" stroke="#000" stroke-width="1pt"/>
 <path id="path211" d="m36.35 310.53c-2.333 25.667-14.991 443.45 4.666 443.34 69.856 26.467 221.62 23.584 278.52-7.0003 17.53-0.0711 6.999-417.68 4.666-443.34" stroke="#000" stroke-width="1pt" fill="none"/>
 <path id="path187" d="m317.18 290.91s-16.536 75.595-16.536 75.595 0 141.74 2.362 144.1c2.363 2.362 21.261 42.521 21.261 42.521s-4.724-257.49-7.087-262.22z" fill-rule="evenodd" fill-opacity=".74843" stroke="#000" stroke-width="1pt"/>
 <metadata>
  <rdf:RDF>
   <cc:Work>
    <dc:format>image/svg+xml</dc:format>
    <dc:type rdf:resource="http://purl.org/dc/dcmitype/StillImage"/>
    <cc:license rdf:resource="http://creativecommons.org/licenses/publicdomain/"/>
    <dc:publisher>
     <cc:Agent rdf:about="http://openclipart.org/">
      <dc:title>Openclipart</dc:title>
     </cc:Agent>
    </dc:publisher>
   </cc:Work>
   <cc:License rdf:about="http://creativecommons.org/licenses/publicdomain/">
    <cc:permits rdf:resource="http://creativecommons.org/ns#Reproduction"/>
    <cc:permits rdf:resource="http://creativecommons.org/ns#Distribution"/>
    <cc:permits rdf:resource="http://creativecommons.org/ns#DerivativeWorks"/>
   </cc:License>
  </rdf:RDF>
 </metadata>
</svg>
