<?xml version="1.0" encoding="UTF-8" standalone="no"?>
<!DOCTYPE svg PUBLIC "-//W3C//DTD SVG 1.1//EN" "http://www.w3.org/Graphics/SVG/1.1/DTD/svg11.dtd">
<svg version="1.1" xmlns="http://www.w3.org/2000/svg" xmlns:xlink="http://www.w3.org/1999/xlink" preserveAspectRatio="xMidYMid meet" viewBox="0 0 640 640" width="640" height="640"><defs><path d="M458.34 69.71L458.87 69.78L459.39 69.88L459.91 70.01L460.42 70.16L460.92 70.35L461.41 70.56L461.89 70.8L462.35 71.07L462.8 71.36L463.23 71.68L463.64 72.02L464.03 72.38L464.4 72.76L464.75 73.17L465.07 73.6L465.37 74.05L465.65 74.52L465.9 75L466.11 75.51L466.3 76.03L466.46 76.57L466.58 77.12L466.67 77.7L466.72 78.28L466.74 78.88L466.72 79.49L466.65 80.11L461.86 116.79L461.48 119.56L461.06 122.33L460.61 125.09L460.12 127.84L459.59 130.58L459.02 133.32L458.42 136.04L457.78 138.76L457.11 141.46L456.4 144.15L455.65 146.83L454.87 149.51L454.05 152.16L453.2 154.81L452.32 157.45L451.39 160.07L450.44 162.68L449.44 165.27L448.42 167.86L447.36 170.42L446.26 172.98L445.13 175.52L443.97 178.04L442.77 180.55L441.54 183.04L440.28 185.52L438.98 187.98L437.65 190.42L436.29 192.84L434.89 195.25L433.46 197.64L432 200.01L430.5 202.37L428.98 204.7L427.42 207.02L425.83 209.31L424.2 211.59L422.55 213.84L420.86 216.08L419.14 218.29L400.7 241.72L400.12 242.47L399.58 243.24L399.05 244.01L398.56 244.8L398.08 245.6L397.64 246.41L397.22 247.24L396.82 248.07L396.45 248.91L396.11 249.76L395.79 250.62L395.49 251.48L395.23 252.36L394.99 253.23L394.77 254.12L394.58 255.01L394.42 255.9L394.28 256.8L394.17 257.7L394.08 258.6L394.02 259.51L393.99 260.42L393.98 261.32L394 262.23L394.05 263.14L394.12 264.05L394.22 264.95L394.34 265.86L394.49 266.76L394.67 267.66L394.88 268.55L395.11 269.44L395.37 270.32L395.65 271.2L395.96 272.08L396.3 272.94L396.67 273.8L397.06 274.65L397.48 275.49L397.93 276.33L418.55 313.46L418.8 313.91L419.03 314.36L419.25 314.82L419.46 315.29L419.66 315.75L419.85 316.22L420.02 316.7L420.19 317.18L420.34 317.66L420.48 318.14L420.61 318.63L420.73 319.11L420.84 319.6L420.94 320.1L421.02 320.59L421.09 321.09L421.15 321.58L421.21 322.08L421.24 322.58L421.27 323.08L421.29 323.58L421.29 324.08L421.29 324.58L421.27 325.08L421.24 325.58L421.2 326.08L421.14 326.58L421.08 327.07L421 327.57L420.91 328.06L420.81 328.56L420.7 329.05L420.58 329.54L420.45 330.03L420.3 330.51L420.14 331L419.98 331.48L419.8 331.95L419.6 332.43L419.4 332.9L408.65 356.97L408.47 357.37L408.3 357.78L408.13 358.19L407.98 358.61L407.83 359.02L407.68 359.44L407.55 359.86L407.42 360.28L407.3 360.7L407.18 361.13L407.07 361.56L406.97 361.98L406.88 362.41L406.79 362.84L406.71 363.28L406.64 363.71L406.58 364.14L406.52 364.58L406.47 365.01L406.42 365.45L406.38 365.88L406.35 366.32L406.33 366.76L406.32 367.2L406.31 367.64L406.31 368.08L406.31 368.52L406.33 368.95L406.35 369.39L406.37 369.83L406.41 370.27L406.45 370.71L406.5 371.15L406.55 371.58L406.62 372.02L406.69 372.46L406.77 372.89L406.85 373.33L406.94 373.76L407.04 374.19L410.8 389.91L410.99 390.73L411.17 391.55L411.33 392.38L411.48 393.2L411.61 394.03L411.73 394.86L411.84 395.69L411.94 396.52L412.02 397.35L412.08 398.18L412.14 399.02L412.18 399.85L412.21 400.68L412.22 401.51L412.22 402.35L412.21 403.18L412.18 404.01L412.14 404.84L412.09 405.67L412.02 406.5L411.94 407.33L411.85 408.16L411.74 408.98L411.63 409.81L411.49 410.63L411.35 411.45L411.19 412.27L411.02 413.08L410.83 413.9L410.63 414.71L410.42 415.51L410.19 416.32L409.96 417.12L409.71 417.92L409.44 418.71L409.16 419.51L408.87 420.29L408.57 421.08L408.25 421.86L407.92 422.63L387.8 468.91L387.8 499.92L387.79 501.07L387.74 502.22L387.67 503.37L387.56 504.5L387.43 505.64L387.27 506.76L387.07 507.88L386.85 508.99L386.61 510.09L386.33 511.19L386.03 512.27L385.7 513.35L385.34 514.41L384.96 515.47L384.54 516.51L384.11 517.54L383.65 518.56L383.16 519.57L382.64 520.56L382.1 521.54L381.54 522.51L380.95 523.46L380.34 524.4L379.7 525.32L379.04 526.22L378.36 527.11L377.65 527.98L376.93 528.84L376.17 529.68L375.4 530.49L374.6 531.29L373.79 532.07L372.95 532.83L372.09 533.57L371.2 534.29L370.3 534.99L369.38 535.66L368.44 536.32L367.48 536.95L366.49 537.55L338.69 554.23L338.08 554.58L337.46 554.89L336.83 555.15L336.2 555.38L335.56 555.57L334.93 555.73L334.29 555.85L333.65 555.93L333.01 555.98L332.38 555.99L331.75 555.97L331.12 555.92L330.5 555.83L329.89 555.72L329.28 555.57L328.68 555.39L328.1 555.18L327.52 554.95L326.96 554.68L326.42 554.39L325.88 554.07L325.37 553.73L324.87 553.35L324.39 552.96L323.93 552.54L323.49 552.1L323.08 551.63L322.69 551.14L322.32 550.63L321.98 550.1L321.66 549.55L321.37 548.98L321.12 548.39L320.89 547.78L320.69 547.15L320.53 546.51L320.4 545.85L320.31 545.18L320.25 544.49L320.23 543.79L320.23 258.1L320.15 256.36L320.1 254.61L320.08 252.87L320.09 251.13L320.13 249.39L320.2 247.66L320.3 245.93L320.43 244.2L320.59 242.48L320.78 240.76L321 239.05L321.25 237.34L321.53 235.63L321.84 233.94L322.18 232.25L322.54 230.56L322.94 228.89L323.37 227.22L323.82 225.56L324.3 223.9L324.82 222.26L325.36 220.62L325.92 219L326.52 217.38L327.15 215.77L327.8 214.18L328.48 212.59L329.19 211.02L329.93 209.46L330.69 207.91L331.48 206.37L332.3 204.85L333.15 203.34L334.02 201.84L334.92 200.36L335.85 198.89L336.8 197.43L337.78 195.99L338.79 194.57L339.82 193.16L373.3 148.38L374.25 147.12L375.21 145.86L376.18 144.6L377.15 143.36L378.12 142.11L379.11 140.88L380.1 139.64L381.1 138.42L382.1 137.2L383.11 135.98L384.13 134.77L385.15 133.57L386.18 132.37L387.22 131.18L388.26 129.99L389.31 128.81L390.36 127.63L391.42 126.46L392.49 125.3L393.57 124.14L394.65 122.99L395.73 121.84L396.83 120.7L397.93 119.57L399.03 118.44L400.14 117.32L401.26 116.2L402.39 115.09L403.52 113.99L404.65 112.89L405.79 111.79L406.94 110.71L408.1 109.63L409.26 108.55L410.42 107.49L411.59 106.43L412.77 105.37L413.95 104.32L415.14 103.28L416.34 102.24L451.49 71.94L451.98 71.54L452.47 71.19L452.98 70.87L453.5 70.59L454.03 70.35L454.56 70.15L455.09 69.99L455.63 69.86L456.18 69.76L456.72 69.7L457.26 69.67L457.8 69.68L458.34 69.71ZM183.82 69.76L184.37 69.86L184.91 69.99L185.44 70.15L185.97 70.35L186.5 70.59L187.02 70.87L187.53 71.19L188.02 71.54L188.51 71.94L223.66 102.24L224.86 103.28L226.05 104.32L227.23 105.37L228.41 106.43L229.58 107.49L230.74 108.55L231.9 109.63L233.06 110.71L234.21 111.79L235.35 112.89L236.48 113.99L237.61 115.09L238.74 116.2L239.86 117.32L240.97 118.44L242.07 119.57L243.17 120.7L244.27 121.84L245.35 122.99L246.43 124.14L247.51 125.3L248.58 126.46L249.64 127.63L250.69 128.81L251.74 129.99L252.78 131.18L253.82 132.37L254.85 133.57L255.87 134.77L256.89 135.98L257.9 137.2L258.9 138.42L259.9 139.64L260.89 140.88L261.88 142.11L262.85 143.36L263.82 144.6L264.79 145.86L265.75 147.12L266.7 148.38L300.18 193.16L301.21 194.57L302.22 195.99L303.2 197.43L304.15 198.89L305.08 200.35L305.98 201.84L306.85 203.34L307.7 204.85L308.52 206.37L309.31 207.91L310.07 209.46L310.81 211.02L311.52 212.59L312.2 214.18L312.85 215.77L313.48 217.38L314.08 219L314.64 220.62L315.18 222.26L315.7 223.9L316.18 225.56L316.63 227.22L317.06 228.89L317.46 230.56L317.82 232.25L318.16 233.94L318.47 235.63L318.75 237.34L319 239.05L319.22 240.76L319.41 242.48L319.57 244.2L319.7 245.93L319.8 247.66L319.87 249.39L319.91 251.13L319.92 252.87L319.9 254.61L319.85 256.36L319.77 258.1L319.77 543.78L319.75 544.49L319.69 545.18L319.6 545.85L319.47 546.51L319.31 547.15L319.11 547.78L318.88 548.39L318.63 548.98L318.34 549.55L318.02 550.1L317.68 550.63L317.31 551.14L316.92 551.63L316.51 552.1L316.07 552.54L315.61 552.96L315.13 553.35L314.63 553.73L314.12 554.07L313.58 554.39L313.04 554.68L312.48 554.95L311.9 555.18L311.32 555.39L310.72 555.57L310.11 555.71L309.5 555.83L308.88 555.92L308.25 555.97L307.62 555.99L306.99 555.98L306.35 555.93L305.71 555.85L305.07 555.73L304.44 555.57L303.8 555.38L303.17 555.15L302.54 554.89L301.92 554.58L301.31 554.23L273.51 537.55L272.52 536.95L271.56 536.32L270.62 535.66L269.7 534.99L268.8 534.29L267.91 533.57L267.05 532.83L266.21 532.07L265.4 531.29L264.6 530.49L263.83 529.68L263.07 528.84L262.35 527.98L261.64 527.11L260.96 526.22L260.3 525.32L259.66 524.4L259.05 523.46L258.46 522.51L257.9 521.54L257.36 520.56L256.84 519.57L256.35 518.56L255.89 517.54L255.46 516.51L255.04 515.47L254.66 514.41L254.3 513.35L253.97 512.27L253.67 511.19L253.39 510.09L253.15 508.99L252.93 507.88L252.73 506.76L252.57 505.64L252.44 504.5L252.33 503.37L252.26 502.22L252.21 501.07L252.2 499.92L252.2 468.91L232.08 422.63L231.75 421.86L231.43 421.08L231.13 420.29L230.84 419.5L230.56 418.71L230.29 417.92L230.04 417.12L229.81 416.32L229.58 415.51L229.37 414.71L229.17 413.9L228.98 413.08L228.81 412.27L228.65 411.45L228.51 410.63L228.37 409.81L228.26 408.98L228.15 408.16L228.06 407.33L227.98 406.5L227.91 405.67L227.86 404.84L227.82 404.01L227.79 403.18L227.78 402.35L227.78 401.51L227.79 400.68L227.82 399.85L227.86 399.01L227.92 398.18L227.98 397.35L228.06 396.52L228.16 395.69L228.27 394.86L228.39 394.03L228.52 393.2L228.67 392.37L228.83 391.55L229.01 390.73L229.2 389.91L232.96 374.19L233.06 373.76L233.15 373.33L233.23 372.89L233.31 372.46L233.38 372.02L233.45 371.58L233.5 371.15L233.55 370.71L233.59 370.27L233.63 369.83L233.65 369.39L233.67 368.95L233.69 368.52L233.69 368.08L233.69 367.64L233.68 367.2L233.67 366.76L233.65 366.32L233.62 365.88L233.58 365.45L233.53 365.01L233.48 364.58L233.42 364.14L233.36 363.71L233.29 363.27L233.21 362.84L233.12 362.41L233.03 361.98L232.93 361.56L232.82 361.13L232.7 360.7L232.58 360.28L232.45 359.86L232.32 359.44L232.17 359.02L232.02 358.61L231.87 358.19L231.7 357.78L231.53 357.37L231.35 356.97L220.6 332.9L220.4 332.43L220.2 331.95L220.02 331.48L219.86 331L219.7 330.51L219.55 330.03L219.42 329.54L219.3 329.05L219.19 328.56L219.09 328.06L219 327.57L218.92 327.07L218.86 326.58L218.8 326.08L218.76 325.58L218.73 325.08L218.71 324.58L218.71 324.08L218.71 323.58L218.73 323.08L218.76 322.58L218.79 322.08L218.85 321.58L218.91 321.08L218.98 320.59L219.06 320.1L219.16 319.6L219.27 319.11L219.39 318.63L219.52 318.14L219.66 317.66L219.81 317.18L219.98 316.7L220.15 316.22L220.34 315.75L220.54 315.29L220.75 314.82L220.97 314.36L221.2 313.91L221.45 313.46L242.07 276.33L242.52 275.49L242.94 274.65L243.33 273.8L243.7 272.94L244.04 272.08L244.35 271.2L244.63 270.32L244.89 269.44L245.12 268.55L245.33 267.66L245.51 266.76L245.66 265.86L245.78 264.95L245.88 264.05L245.95 263.14L246 262.23L246.02 261.32L246.01 260.42L245.98 259.51L245.92 258.6L245.83 257.7L245.72 256.8L245.58 255.9L245.42 255.01L245.23 254.12L245.01 253.23L244.77 252.36L244.51 251.48L244.21 250.62L243.89 249.76L243.55 248.91L243.18 248.07L242.78 247.24L242.36 246.41L241.92 245.6L241.44 244.8L240.95 244.01L240.42 243.24L239.88 242.47L239.3 241.72L220.86 218.29L219.14 216.08L217.45 213.84L215.8 211.59L214.17 209.31L212.58 207.02L211.02 204.7L209.5 202.37L208 200.01L206.54 197.64L205.11 195.25L203.71 192.84L202.35 190.42L201.02 187.98L199.72 185.52L198.46 183.04L197.23 180.55L196.03 178.04L194.87 175.52L193.74 172.98L192.64 170.42L191.58 167.86L190.56 165.27L189.56 162.68L188.61 160.07L187.68 157.45L186.8 154.81L185.95 152.16L185.13 149.51L184.35 146.83L183.6 144.15L182.89 141.46L182.22 138.76L181.58 136.04L180.98 133.32L180.41 130.58L179.88 127.84L179.39 125.09L178.94 122.33L178.52 119.56L178.14 116.79L173.35 80.11L173.28 79.49L173.26 78.88L173.28 78.28L173.33 77.69L173.42 77.12L173.54 76.57L173.7 76.03L173.89 75.51L174.1 75L174.35 74.52L174.63 74.05L174.93 73.6L175.25 73.17L175.6 72.76L175.97 72.38L176.36 72.02L176.77 71.68L177.2 71.36L177.65 71.07L178.11 70.8L178.59 70.56L179.08 70.35L179.58 70.16L180.09 70.01L180.61 69.88L181.13 69.78L181.66 69.71L182.2 69.68L182.74 69.67L183.28 69.7L183.82 69.76Z" id="a2mXsGA22Q"></path><path d="M385.2 467.3C375.49 466.27 369.43 465.62 367 465.36C353.65 463.94 341.19 457.97 331.72 448.44C329.4 446.1 334.04 450.77 330.96 447.67C324.85 441.52 315.01 441.2 308.51 446.94C304.84 450.19 310.83 444.9 308.51 446.94C296.57 457.5 281.64 464.07 265.8 465.76C263.87 465.96 259.04 466.48 251.32 467.3" id="asf3wgSW9"></path><path d="M296.77 335.66C296.77 348.26 286.59 358.49 274.04 358.49C261.5 358.49 251.32 348.26 251.32 335.66C251.32 323.06 261.5 312.83 274.04 312.83C286.59 312.83 296.77 323.06 296.77 335.66Z" id="a1qHYiqP5q"></path><path d="M388.68 335.66C388.68 348.26 378.5 358.49 365.96 358.49C353.41 358.49 343.23 348.26 343.23 335.66C343.23 323.06 353.41 312.83 365.96 312.83C378.5 312.83 388.68 323.06 388.68 335.66Z" id="naql2Yymp"></path><path d="M388.68 512.95L371.33 533.61L332.49 555.99L320 548.49L320 445.18L388.68 465.84L388.68 512.95Z" id="a51aFisNeV"></path><path d="M251.32 512.95L268.67 533.61L307.51 555.99L320 548.49L320 445.18L251.32 465.84L251.32 512.95Z" id="c1xML15Ub"></path><path d="M386.94 466.56C377.24 465.52 371.17 464.88 368.74 464.62C355.39 463.2 342.93 457.22 333.47 447.7C331.14 445.35 335.78 450.03 332.7 446.93C326.59 440.78 316.75 440.46 310.25 446.2C306.58 449.44 312.57 444.16 310.25 446.2C298.32 456.75 283.39 463.33 267.54 465.01C265.61 465.22 260.78 465.73 253.06 466.56" id="agtHlc0vs"></path><path d="M457.23 69.71L457.77 69.78L458.29 69.88L458.81 70.01L459.32 70.16L459.82 70.35L460.31 70.56L460.78 70.8L461.25 71.07L461.69 71.36L462.12 71.67L462.53 72.01L462.93 72.38L463.3 72.76L463.65 73.17L463.97 73.6L464.27 74.05L464.55 74.51L464.79 75L465.01 75.51L465.2 76.03L465.35 76.57L465.48 77.12L465.57 77.69L465.62 78.28L465.64 78.88L465.61 79.49L465.55 80.11L460.76 116.78L460.38 119.56L459.96 122.33L459.51 125.09L459.01 127.84L458.48 130.58L457.92 133.32L457.32 136.04L456.68 138.75L456.01 141.46L455.3 144.15L454.55 146.83L453.77 149.5L452.95 152.16L452.1 154.81L451.21 157.44L450.29 160.07L449.33 162.68L448.34 165.27L447.32 167.85L446.26 170.42L445.16 172.98L444.03 175.51L442.87 178.04L441.67 180.55L440.44 183.04L439.18 185.51L437.88 187.97L436.55 190.42L435.18 192.84L433.79 195.25L432.36 197.64L430.9 200.01L429.4 202.37L427.87 204.7L426.31 207.02L424.72 209.31L423.1 211.59L421.44 213.84L419.76 216.08L418.04 218.29L399.59 241.72L399.02 242.47L398.47 243.23L397.95 244.01L397.45 244.8L396.98 245.6L396.53 246.41L396.11 247.24L395.72 248.07L395.35 248.91L395 249.76L394.68 250.62L394.39 251.48L394.12 252.35L393.88 253.23L393.67 254.12L393.48 255.01L393.31 255.9L393.18 256.8L393.06 257.7L392.98 258.6L392.92 259.51L392.89 260.41L392.88 261.32L392.9 262.23L392.95 263.14L393.02 264.05L393.12 264.95L393.24 265.86L393.39 266.76L393.57 267.65L393.77 268.55L394.01 269.44L394.26 270.32L394.55 271.2L394.86 272.07L395.2 272.94L395.57 273.8L395.96 274.65L396.38 275.49L396.82 276.32L417.45 313.45L417.7 313.91L417.93 314.36L418.15 314.82L418.36 315.28L418.56 315.75L418.74 316.22L418.92 316.7L419.08 317.17L419.24 317.66L419.38 318.14L419.51 318.62L419.63 319.11L419.74 319.6L419.83 320.09L419.92 320.59L419.99 321.08L420.05 321.58L420.1 322.08L420.14 322.58L420.17 323.08L420.18 323.58L420.19 324.08L420.18 324.58L420.16 325.08L420.13 325.58L420.09 326.07L420.04 326.57L419.97 327.07L419.9 327.57L419.81 328.06L419.71 328.56L419.6 329.05L419.48 329.54L419.34 330.03L419.2 330.51L419.04 330.99L418.87 331.47L418.69 331.95L418.5 332.43L418.3 332.9L407.54 356.96L407.37 357.37L407.19 357.78L407.03 358.19L406.87 358.61L406.72 359.02L406.58 359.44L406.44 359.86L406.32 360.28L406.19 360.7L406.08 361.13L405.97 361.55L405.87 361.98L405.78 362.41L405.69 362.84L405.61 363.27L405.54 363.71L405.47 364.14L405.41 364.57L405.36 365.01L405.32 365.45L405.28 365.88L405.25 366.32L405.23 366.76L405.21 367.2L405.2 367.64L405.2 368.07L405.21 368.51L405.22 368.95L405.24 369.39L405.27 369.83L405.3 370.27L405.35 370.71L405.4 371.15L405.45 371.58L405.51 372.02L405.59 372.46L405.66 372.89L405.75 373.33L405.84 373.76L405.94 374.19L409.7 389.91L409.89 390.73L410.06 391.55L410.23 392.37L410.37 393.2L410.51 394.03L410.63 394.86L410.74 395.69L410.83 396.52L410.91 397.35L410.98 398.18L411.04 399.01L411.08 399.85L411.1 400.68L411.12 401.51L411.12 402.35L411.11 403.18L411.08 404.01L411.04 404.84L410.99 405.67L410.92 406.5L410.84 407.33L410.75 408.16L410.64 408.98L410.52 409.81L410.39 410.63L410.24 411.45L410.08 412.27L409.91 413.08L409.73 413.89L409.53 414.7L409.32 415.51L409.09 416.32L408.85 417.12L408.6 417.92L408.34 418.71L408.06 419.5L407.77 420.29L407.47 421.07L407.15 421.85L406.82 422.63L386.7 468.91L386.7 499.92L386.68 501.07L386.64 502.22L386.56 503.36L386.46 504.5L386.33 505.63L386.16 506.76L385.97 507.88L385.75 508.99L385.5 510.09L385.23 511.19L384.92 512.27L384.59 513.35L384.24 514.41L383.85 515.46L383.44 516.51L383.01 517.54L382.54 518.56L382.05 519.57L381.54 520.56L381 521.54L380.44 522.51L379.85 523.46L379.24 524.4L378.6 525.32L377.94 526.22L377.26 527.11L376.55 527.98L375.82 528.84L375.07 529.67L374.3 530.49L373.5 531.29L372.68 532.07L371.84 532.83L370.98 533.57L370.1 534.29L369.2 534.99L368.28 535.66L367.33 536.31L366.37 536.94L365.39 537.55L337.59 554.23L336.97 554.58L336.35 554.88L335.73 555.15L335.1 555.38L334.46 555.57L333.82 555.73L333.19 555.84L332.55 555.93L331.91 555.97L331.28 555.99L330.65 555.97L330.02 555.92L329.4 555.83L328.78 555.71L328.18 555.57L327.58 555.39L327 555.18L326.42 554.94L325.86 554.68L325.31 554.39L324.78 554.07L324.27 553.72L323.77 553.35L323.29 552.96L322.83 552.54L322.39 552.09L321.97 551.63L321.58 551.14L321.21 550.63L320.87 550.1L320.56 549.55L320.27 548.98L320.01 548.39L319.79 547.78L319.59 547.15L319.45 546.59L319.31 547.15L319.11 547.78L318.88 548.39L318.63 548.98L318.34 549.55L318.02 550.1L317.68 550.63L317.32 551.14L316.92 551.63L316.51 552.1L316.07 552.54L315.61 552.96L315.13 553.35L314.63 553.73L314.12 554.07L313.58 554.39L313.04 554.68L312.48 554.95L311.9 555.18L311.32 555.39L310.72 555.57L310.11 555.71L309.5 555.83L308.88 555.92L308.25 555.97L307.62 555.99L306.99 555.98L306.35 555.93L305.71 555.85L305.07 555.73L304.44 555.57L303.8 555.38L303.17 555.15L302.54 554.89L301.92 554.58L301.31 554.23L273.51 537.55L272.53 536.95L271.56 536.32L270.62 535.66L269.7 534.99L268.8 534.29L267.91 533.57L267.05 532.83L266.21 532.07L265.4 531.29L264.6 530.49L263.83 529.68L263.07 528.84L262.35 527.98L261.64 527.11L260.96 526.22L260.3 525.32L259.66 524.4L259.05 523.46L258.46 522.51L257.9 521.54L257.36 520.56L256.84 519.57L256.35 518.56L255.89 517.54L255.46 516.51L255.04 515.47L254.66 514.41L254.3 513.35L253.97 512.27L253.67 511.19L253.39 510.09L253.15 508.99L252.93 507.88L252.73 506.76L252.57 505.64L252.44 504.5L252.33 503.37L252.26 502.22L252.21 501.07L252.2 499.92L252.2 468.91L232.08 422.63L231.75 421.86L231.43 421.08L231.13 420.29L230.84 419.5L230.56 418.71L230.3 417.92L230.04 417.12L229.81 416.32L229.58 415.51L229.37 414.71L229.17 413.9L228.98 413.08L228.81 412.27L228.65 411.45L228.51 410.63L228.38 409.81L228.26 408.98L228.15 408.16L228.06 407.33L227.98 406.5L227.91 405.67L227.86 404.84L227.82 404.01L227.79 403.18L227.78 402.35L227.78 401.51L227.79 400.68L227.82 399.85L227.86 399.01L227.92 398.18L227.98 397.35L228.06 396.52L228.16 395.69L228.27 394.86L228.39 394.03L228.52 393.2L228.67 392.37L228.83 391.55L229.01 390.73L229.2 389.91L232.96 374.19L233.06 373.76L233.15 373.33L233.23 372.89L233.31 372.46L233.38 372.02L233.45 371.58L233.5 371.15L233.55 370.71L233.59 370.27L233.63 369.83L233.66 369.39L233.68 368.95L233.69 368.52L233.69 368.08L233.69 367.64L233.68 367.2L233.67 366.76L233.65 366.32L233.62 365.88L233.58 365.45L233.53 365.01L233.48 364.58L233.42 364.14L233.36 363.71L233.29 363.27L233.21 362.84L233.12 362.41L233.03 361.98L232.93 361.56L232.82 361.13L232.7 360.7L232.58 360.28L232.45 359.86L232.32 359.44L232.17 359.02L232.02 358.61L231.87 358.19L231.7 357.78L231.53 357.37L231.35 356.97L220.6 332.9L220.4 332.43L220.21 331.95L220.02 331.48L219.86 331L219.7 330.51L219.55 330.03L219.42 329.54L219.3 329.05L219.19 328.56L219.09 328.06L219 327.57L218.92 327.07L218.86 326.58L218.81 326.08L218.76 325.58L218.73 325.08L218.72 324.58L218.71 324.08L218.71 323.58L218.73 323.08L218.76 322.58L218.8 322.08L218.85 321.58L218.91 321.08L218.98 320.59L219.07 320.1L219.16 319.6L219.27 319.11L219.39 318.63L219.52 318.14L219.66 317.66L219.81 317.18L219.98 316.7L220.15 316.22L220.34 315.75L220.54 315.29L220.75 314.82L220.97 314.36L221.2 313.91L221.45 313.46L242.07 276.33L242.52 275.49L242.94 274.65L243.33 273.8L243.7 272.94L244.04 272.08L244.35 271.2L244.63 270.32L244.89 269.44L245.12 268.55L245.33 267.66L245.51 266.76L245.66 265.86L245.78 264.95L245.88 264.05L245.95 263.14L246 262.23L246.02 261.32L246.01 260.42L245.98 259.51L245.92 258.6L245.83 257.7L245.72 256.8L245.58 255.9L245.42 255.01L245.23 254.12L245.01 253.23L244.77 252.36L244.51 251.48L244.21 250.62L243.89 249.76L243.55 248.91L243.18 248.07L242.78 247.24L242.36 246.41L241.92 245.6L241.44 244.8L240.95 244.01L240.42 243.24L239.88 242.47L239.3 241.72L220.86 218.29L219.14 216.08L217.45 213.84L215.8 211.59L214.18 209.31L212.58 207.02L211.02 204.7L209.5 202.37L208 200.01L206.54 197.64L205.11 195.25L203.71 192.84L202.35 190.42L201.02 187.98L199.72 185.52L198.46 183.04L197.23 180.55L196.03 178.04L194.87 175.52L193.74 172.98L192.64 170.42L191.58 167.86L190.56 165.27L189.56 162.68L188.61 160.07L187.68 157.45L186.8 154.81L185.95 152.16L185.13 149.51L184.35 146.83L183.6 144.15L182.89 141.46L182.22 138.76L181.58 136.04L180.98 133.32L180.41 130.58L179.88 127.84L179.39 125.09L178.94 122.33L178.52 119.56L178.14 116.79L173.35 80.11L173.28 79.49L173.26 78.88L173.28 78.28L173.33 77.69L173.42 77.12L173.54 76.57L173.7 76.03L173.89 75.51L174.1 75L174.35 74.52L174.63 74.05L174.93 73.6L175.25 73.17L175.6 72.76L175.97 72.38L176.36 72.02L176.78 71.68L177.2 71.36L177.65 71.07L178.11 70.8L178.59 70.56L179.08 70.35L179.58 70.16L180.09 70.01L180.61 69.88L181.13 69.78L181.66 69.71L182.2 69.68L182.74 69.67L183.28 69.7L183.83 69.76L184.37 69.86L184.91 69.99L185.44 70.15L185.97 70.35L186.5 70.59L187.02 70.87L187.53 71.19L188.02 71.54L188.51 71.94L223.66 102.24L224.86 103.28L226.05 104.32L227.23 105.37L228.41 106.43L229.58 107.49L230.74 108.55L231.9 109.63L233.06 110.71L234.21 111.79L235.35 112.89L236.48 113.99L237.61 115.09L238.74 116.2L239.86 117.32L240.97 118.44L242.07 119.57L243.17 120.7L244.27 121.84L245.35 122.99L246.43 124.14L247.51 125.3L248.58 126.46L249.64 127.63L250.69 128.81L251.74 129.99L252.78 131.18L253.82 132.37L254.85 133.57L255.87 134.77L256.89 135.98L257.9 137.2L258.9 138.42L259.9 139.64L260.89 140.88L261.88 142.11L262.85 143.36L263.83 144.6L264.79 145.86L265.75 147.12L266.7 148.38L300.18 193.16L301.21 194.57L302.22 195.99L303.2 197.43L304.15 198.89L305.08 200.35L305.98 201.84L306.85 203.34L307.7 204.85L308.52 206.37L309.31 207.91L310.07 209.46L310.81 211.02L311.52 212.59L312.2 214.18L312.85 215.77L313.48 217.38L314.08 219L314.64 220.62L315.18 222.26L315.7 223.9L316.18 225.56L316.63 227.22L317.06 228.89L317.46 230.56L317.82 232.25L318.16 233.94L318.47 235.63L318.75 237.34L319 239.05L319.22 240.76L319.41 242.48L319.45 242.89L319.49 242.48L319.68 240.76L319.9 239.04L320.15 237.34L320.43 235.63L320.74 233.94L321.07 232.24L321.44 230.56L321.84 228.88L322.26 227.22L322.72 225.55L323.2 223.9L323.71 222.26L324.25 220.62L324.82 219L325.42 217.38L326.04 215.77L326.7 214.18L327.38 212.59L328.09 211.02L328.82 209.46L329.59 207.91L330.38 206.37L331.2 204.85L332.04 203.33L332.92 201.84L333.82 200.35L334.75 198.88L335.7 197.43L336.68 195.99L337.69 194.57L338.72 193.16L372.2 148.38L373.15 147.12L374.11 145.86L375.07 144.6L376.04 143.35L377.02 142.11L378 140.87L379 139.64L379.99 138.42L381 137.2L382.01 135.98L383.02 134.77L384.05 133.57L385.08 132.37L386.11 131.18L387.16 129.99L388.2 128.81L389.26 127.63L390.32 126.46L391.39 125.3L392.46 124.14L393.55 122.99L394.63 121.84L395.73 120.7L396.82 119.57L397.93 118.44L399.04 117.32L400.16 116.2L401.28 115.09L402.41 113.98L403.55 112.89L404.69 111.79L405.84 110.71L406.99 109.63L408.15 108.55L409.32 107.49L410.49 106.42L411.67 105.37L412.85 104.32L414.04 103.28L415.24 102.24L450.39 71.93L450.87 71.54L451.37 71.18L451.88 70.87L452.4 70.59L452.92 70.35L453.45 70.15L453.99 69.98L454.53 69.85L455.07 69.76L455.61 69.7L456.16 69.67L456.7 69.67L457.23 69.71Z" id="c176SySdfW"></path><path d="M299.29 506.75C299.29 514.05 293.18 519.98 285.66 519.98C278.13 519.98 272.02 514.05 272.02 506.75C272.02 499.46 278.13 493.53 285.66 493.53C293.18 493.53 299.29 499.46 299.29 506.75Z" id="a49Pyr6Arp"></path><path d="M367.98 506.75C367.98 514.05 361.87 519.98 354.34 519.98C346.82 519.98 340.71 514.05 340.71 506.75C340.71 499.46 346.82 493.53 354.34 493.53C361.87 493.53 367.98 499.46 367.98 506.75Z" id="a1z5e91sj9"></path><path d="M320 546.84L320 440.22" id="beEe1gkts"></path></defs><g><g><g><g><g><use xlink:href="#a2mXsGA22Q" opacity="1" fill="#909090" fill-opacity="1"></use><g><use xlink:href="#a2mXsGA22Q" opacity="1" fill-opacity="0" stroke="#000000" stroke-width="10" stroke-opacity="1"></use></g></g><g><g><use xlink:href="#asf3wgSW9" opacity="1" fill-opacity="0" stroke="#000000" stroke-width="10" stroke-opacity="1"></use></g></g></g><g><g><use xlink:href="#a1qHYiqP5q" opacity="1" fill="#000000" fill-opacity="1"></use></g><g><use xlink:href="#naql2Yymp" opacity="1" fill="#000000" fill-opacity="1"></use></g></g><g><use xlink:href="#a51aFisNeV" opacity="1" fill="#655b52" fill-opacity="1"></use></g><g><use xlink:href="#c1xML15Ub" opacity="1" fill="#655b52" fill-opacity="1"></use></g><g><g><g><use xlink:href="#agtHlc0vs" opacity="1" fill-opacity="0" stroke="#000000" stroke-width="10" stroke-opacity="1"></use></g></g><g><g><use xlink:href="#c176SySdfW" opacity="1" fill-opacity="0" stroke="#000000" stroke-width="10" stroke-opacity="1"></use></g></g></g><g><g><use xlink:href="#a49Pyr6Arp" opacity="1" fill="#000000" fill-opacity="1"></use></g><g><use xlink:href="#a1z5e91sj9" opacity="1" fill="#000000" fill-opacity="1"></use></g></g><g><g><use xlink:href="#beEe1gkts" opacity="1" fill-opacity="0" stroke="#000000" stroke-width="10" stroke-opacity="1"></use></g></g></g></g></g></svg>