<svg xmlns="http://www.w3.org/2000/svg" xmlns:xlink="http://www.w3.org/1999/xlink" viewBox="0 0 300 300"><defs><style>.cls-1,.cls-3{fill:none;}.cls-2{fill:url(#linear-gradient);}.cls-3{stroke-miterlimit:10;stroke-width:6px;opacity:0.8;stroke:url(#linear-gradient-2);}.cls-4{fill:#cecece;}</style><linearGradient id="linear-gradient" x1="35.45" y1="168.52" x2="265.45" y2="168.52" gradientUnits="userSpaceOnUse"><stop offset="0" stop-opacity="0"/><stop offset="0.24" stop-color="#010103" stop-opacity="0.03"/><stop offset="0.43" stop-color="#04030d" stop-opacity="0.13"/><stop offset="0.61" stop-color="#08061e" stop-opacity="0.3"/><stop offset="0.77" stop-color="#0f0b36" stop-opacity="0.54"/><stop offset="0.93" stop-color="#171154" stop-opacity="0.84"/><stop offset="1" stop-color="#1b1464"/></linearGradient><linearGradient id="linear-gradient-2" x1="53" y1="32.38" x2="247" y2="32.38" gradientUnits="userSpaceOnUse"><stop offset="0" stop-color="#1b1464"/><stop offset="0.5" stop-color="#dcdbe7" stop-opacity="0.15"/><stop offset="1" stop-color="#1b1464"/></linearGradient></defs><g id="Layer_2" data-name="Layer 2"><rect class="cls-1" width="300" height="300"/></g><g id="Layer_1" data-name="Layer 1"><circle class="cls-2" cx="150.45" cy="168.52" r="115"/><ellipse class="cls-3" cx="150" cy="32.38" rx="94" ry="14"/><path class="cls-4" d="M70.49,150.9l40.18,17.82a6.45,6.45,0,0,1,3.83,5.89v4.61a6.45,6.45,0,0,1-7.15,6.41l-33.79-3.76a6.41,6.41,0,0,1-5.38-4.31l-6.4-18.68A6.45,6.45,0,0,1,70.49,150.9Z"/><path class="cls-4" d="M229.51,150.9l-40.18,17.82a6.45,6.45,0,0,0-3.83,5.89v4.61a6.45,6.45,0,0,0,7.15,6.41l33.79-3.76a6.41,6.41,0,0,0,5.38-4.31l6.4-18.68A6.45,6.45,0,0,0,229.51,150.9Z"/><path class="cls-4" d="M100.77,225h97a6.13,6.13,0,0,1,4.64,10.13C193,246.08,174.92,262,150,262s-43.67-15.78-53.75-26.73A6.12,6.12,0,0,1,100.77,225Z"/></g></svg>